{"glyphs":{"0":{"ha":625,"x_min":192,"x_max":703,"o":"m 389 29 q 359 38 379 29 q 317 60 339 47 q 281 86 294 74 q 229 157 250 115 q 200 247 208 199 q 199 339 192 294 q 265 515 214 428 q 383 658 317 601 q 449 708 419 690 q 519 735 478 725 q 553 740 535 739 q 581 740 571 740 q 636 729 608 740 q 683 702 664 718 q 703 672 703 686 q 701 658 703 663 q 689 658 700 653 l 675 658 l 689 618 q 699 588 694 607 q 703 554 703 569 q 699 515 703 542 q 688 457 694 488 q 674 400 681 426 q 661 361 667 374 q 656 345 657 353 q 656 332 656 338 q 638 294 650 322 q 621 256 626 267 q 612 246 615 250 q 614 236 608 242 q 607 219 614 233 q 592 192 600 204 q 581 179 585 179 q 577 178 581 179 q 574 174 574 178 q 556 145 574 168 q 513 97 538 122 q 474 67 499 83 q 426 40 450 51 q 389 29 403 29 m 385 117 q 414 122 400 117 q 438 136 428 126 q 496 191 463 153 q 544 265 529 229 q 569 309 560 286 q 597 388 578 332 q 613 425 608 403 q 617 463 617 447 q 617 504 617 478 q 624 549 618 531 q 622 597 624 585 q 611 619 621 608 q 597 628 606 624 q 578 632 588 632 q 542 622 568 632 q 504 604 515 611 q 483 603 494 599 q 471 614 471 607 q 446 617 471 633 q 390 564 421 601 q 348 513 365 539 q 331 482 331 488 q 326 468 331 476 q 318 449 322 460 q 301 417 311 439 q 283 373 292 394 q 271 340 274 351 q 271 310 271 335 q 271 265 271 286 q 273 225 271 242 q 279 197 275 208 q 290 171 283 185 q 308 148 296 161 q 324 129 319 135 q 349 113 339 115 q 385 117 358 111 z "},"1":{"ha":625,"x_min":225,"x_max":694,"o":"m 446 -14 q 435 -15 442 -17 q 419 -6 428 -12 q 401 8 411 0 q 394 22 396 14 q 397 49 393 29 q 410 111 401 68 q 422 167 415 139 q 435 213 429 194 q 440 232 440 232 q 460 274 447 235 q 490 368 474 313 q 510 433 496 388 q 538 522 524 479 q 558 595 550 563 q 567 628 567 628 q 547 616 567 628 q 496 585 526 604 q 436 544 465 567 q 380 506 413 531 q 322 465 347 481 q 276 433 285 436 q 256 436 268 429 q 231 468 238 451 q 233 499 225 485 q 251 510 236 500 q 283 532 265 519 q 317 556 301 544 q 340 571 333 567 q 356 581 344 571 q 379 599 367 590 q 428 636 386 607 q 518 701 469 665 q 605 753 569 733 q 646 771 640 772 q 659 765 650 771 q 676 751 668 760 q 686 735 685 743 q 678 690 694 725 q 660 645 672 678 q 633 570 647 613 q 605 487 618 528 q 583 417 592 446 q 563 350 572 374 q 547 305 554 326 q 529 246 539 283 q 509 190 519 224 q 490 123 499 156 q 478 69 482 90 q 460 15 467 39 q 446 -14 453 -8 z "},"2":{"ha":625,"x_min":165,"x_max":719,"o":"m 221 32 q 205 42 215 35 q 184 60 194 50 q 169 79 174 71 q 170 104 165 86 q 181 122 175 122 q 194 132 185 119 q 214 159 204 144 q 224 176 224 174 q 231 185 225 182 q 243 193 238 189 q 262 216 250 204 q 281 236 274 228 q 321 278 292 250 q 378 335 350 306 q 429 391 407 367 q 453 425 451 415 q 458 430 453 425 q 469 439 463 435 q 488 453 476 443 q 508 471 500 463 q 524 502 511 482 q 551 536 538 522 q 572 573 563 553 q 585 603 582 593 q 585 622 589 618 q 550 635 581 625 q 477 644 517 646 q 389 607 438 642 q 353 596 369 603 q 326 590 338 589 q 314 603 321 593 q 299 621 307 613 l 285 650 l 328 674 q 431 724 385 710 q 517 725 478 738 q 544 722 532 725 q 557 718 557 718 q 585 706 568 719 q 617 674 601 693 q 642 635 633 654 q 656 565 664 601 q 614 476 649 528 q 583 442 607 468 q 530 383 560 415 q 476 325 500 350 q 444 293 451 300 q 412 265 435 289 q 363 212 389 240 q 320 162 338 183 q 306 140 303 140 q 310 135 304 135 q 328 140 315 136 q 383 154 349 147 q 453 166 417 161 q 516 172 489 171 q 547 169 543 174 q 552 165 550 163 q 554 167 554 167 q 590 172 557 176 q 649 160 622 168 q 673 153 664 156 q 682 144 682 150 q 685 138 682 144 q 697 122 689 132 q 703 99 719 104 q 631 103 686 93 q 571 99 594 103 q 547 96 565 96 q 513 94 529 96 q 463 92 488 97 q 403 76 438 88 q 364 64 390 72 q 307 47 338 56 q 252 35 276 39 q 221 32 228 31 z "},"3":{"ha":625,"x_min":199,"x_max":701,"o":"m 338 22 q 270 30 303 22 q 218 51 238 38 q 200 81 199 64 q 210 105 201 103 q 249 103 218 107 q 350 101 296 93 q 451 131 404 110 q 525 178 499 151 q 559 250 563 214 q 515 313 556 286 q 465 336 497 325 q 402 353 433 347 q 351 358 371 360 q 331 358 339 357 q 306 369 324 360 q 290 391 297 379 q 281 408 283 403 q 288 422 279 415 q 328 447 297 429 q 422 499 358 464 q 515 551 481 531 q 569 584 549 571 q 601 608 589 597 q 626 651 626 642 q 590 668 626 661 q 524 672 556 671 q 492 668 492 674 q 491 668 492 668 q 486 668 490 668 q 456 667 479 671 q 410 657 432 663 q 388 647 389 651 q 372 638 386 644 q 342 628 357 632 q 324 624 328 624 q 308 638 317 626 q 293 663 299 650 q 290 683 288 676 q 308 698 293 689 q 342 717 322 707 q 376 735 361 728 q 431 743 396 740 q 503 747 467 746 q 556 746 539 747 q 654 713 619 739 q 697 642 689 686 q 700 610 701 622 q 688 584 699 597 q 649 546 676 571 q 592 508 614 524 q 525 469 569 493 q 499 451 515 463 q 468 431 482 440 q 454 419 454 422 q 460 416 454 419 q 474 407 465 413 q 489 394 482 401 q 563 350 529 381 q 610 300 596 319 q 626 217 629 257 q 597 141 622 176 q 524 76 572 106 q 433 40 485 54 q 338 22 382 25 z "},"4":{"ha":625,"x_min":253,"x_max":739,"o":"m 440 10 q 431 39 431 22 q 443 107 431 56 q 460 185 450 143 q 475 253 469 228 q 492 301 486 279 q 499 324 499 324 q 481 322 499 324 q 438 310 463 321 q 330 300 368 293 q 269 344 292 307 q 258 369 263 351 q 253 403 253 386 q 260 426 253 419 q 277 463 268 444 q 292 494 286 481 q 299 511 299 508 q 302 520 299 515 q 306 531 306 525 q 333 577 311 543 q 381 651 354 611 q 433 725 408 692 q 468 768 457 758 q 492 777 479 774 q 508 775 504 781 q 517 754 513 768 q 523 729 521 740 q 521 718 525 718 q 517 717 521 718 q 514 711 514 717 q 500 688 514 706 q 469 650 486 669 q 433 599 450 624 q 401 551 417 575 q 372 504 386 528 q 343 456 357 481 q 326 396 328 408 q 329 378 324 383 q 365 376 338 374 q 440 392 392 378 q 490 402 467 397 q 522 413 513 407 q 542 417 533 413 q 551 426 551 421 q 560 450 551 432 q 575 483 569 468 q 602 540 586 504 q 635 601 618 575 q 678 702 669 679 q 693 725 688 725 q 708 720 699 725 q 724 704 718 715 q 736 685 733 694 q 728 657 739 676 q 720 628 725 640 q 706 600 715 617 q 681 551 697 583 q 642 472 664 518 q 600 378 621 426 q 562 287 579 329 q 536 219 544 244 q 507 133 517 164 q 497 84 497 101 q 503 53 496 67 q 492 10 506 28 q 462 -9 478 -7 q 440 10 446 -11 z "},"5":{"ha":625,"x_min":179,"x_max":681,"o":"m 232 33 q 207 64 207 51 q 194 72 201 72 q 187 81 190 71 q 181 103 183 90 q 181 122 179 117 q 197 135 186 133 q 219 133 208 138 q 231 117 229 128 q 252 99 233 106 q 301 93 271 92 q 383 113 340 94 q 462 158 425 131 q 521 215 499 186 q 539 267 531 235 q 550 324 547 299 q 546 349 553 349 q 544 358 546 349 q 538 379 542 368 q 506 422 531 400 q 457 453 481 443 q 422 458 447 456 q 375 457 396 460 q 335 457 353 456 q 318 458 318 458 q 298 469 311 460 q 274 490 285 479 q 263 508 263 501 q 276 540 265 518 q 303 588 288 561 q 338 640 319 615 q 372 681 356 664 q 467 749 414 726 q 578 769 521 772 q 635 763 618 768 q 669 736 653 758 q 679 701 681 717 q 668 681 678 686 q 642 683 658 675 q 588 693 622 696 q 517 679 554 690 q 455 644 488 668 q 415 604 422 619 q 408 596 410 600 q 400 593 406 592 q 396 588 400 593 q 392 578 392 583 q 383 566 385 569 q 375 568 381 563 q 375 564 375 568 q 374 554 375 560 q 376 538 372 544 q 406 529 379 532 q 458 519 440 524 q 511 493 476 514 q 574 434 550 471 q 606 351 597 397 q 608 258 615 306 q 600 211 604 228 q 576 165 596 194 q 499 87 544 121 q 403 34 453 53 q 308 14 353 15 q 232 33 263 13 z "},"6":{"ha":625,"x_min":163,"x_max":660,"o":"m 351 43 q 275 34 306 31 q 215 65 244 38 q 186 94 196 81 q 172 136 176 108 q 164 169 165 157 q 166 200 163 182 q 176 256 169 218 q 196 334 188 306 q 229 397 204 363 q 255 456 240 426 q 276 494 269 486 q 297 524 283 504 q 326 560 311 543 q 352 594 340 578 q 364 610 364 610 q 377 618 371 614 q 390 632 383 622 q 422 661 401 644 q 467 693 442 678 q 519 719 493 708 q 567 733 544 731 q 608 732 611 749 q 613 728 608 732 q 628 721 617 724 q 637 712 633 719 q 644 697 640 704 q 644 678 647 686 q 621 651 640 669 q 594 636 601 638 q 581 640 586 635 q 575 648 582 646 q 568 650 568 650 q 532 638 560 653 q 473 599 504 622 q 421 553 442 575 q 399 531 408 542 q 386 514 389 519 q 354 478 368 496 q 340 461 340 461 q 360 457 344 453 q 378 467 376 461 q 409 481 378 472 q 472 493 440 490 q 506 494 485 499 q 542 488 528 490 q 583 476 572 482 q 611 450 594 471 q 649 398 639 424 q 658 336 660 372 q 654 297 658 314 q 635 263 650 281 q 606 220 624 244 q 570 176 588 196 q 540 149 553 157 q 530 142 535 146 q 525 139 525 139 q 505 117 524 131 q 458 89 486 104 q 402 61 431 74 q 351 43 374 49 m 258 111 q 297 106 283 106 q 346 121 311 107 q 367 126 357 124 q 382 128 376 129 q 401 141 382 128 q 447 169 421 154 q 561 274 521 217 q 594 369 601 332 q 591 391 596 381 q 588 407 586 401 q 574 410 583 407 q 549 415 564 413 q 516 418 532 419 q 469 410 500 417 q 374 389 438 404 q 351 380 364 386 q 326 371 339 374 q 310 360 321 367 q 289 351 299 354 q 261 325 272 350 q 235 231 250 300 q 224 167 225 183 q 229 139 222 150 q 240 118 232 122 q 258 111 249 114 z "},"7":{"ha":625,"x_min":251,"x_max":694,"o":"m 307 -25 q 278 -7 290 -22 q 257 28 265 8 q 279 120 251 54 q 354 275 307 186 q 383 333 385 325 q 357 342 382 342 q 328 348 344 344 q 307 357 311 351 q 281 381 285 368 q 290 396 278 394 q 294 403 296 399 q 294 413 293 408 q 305 413 299 414 q 318 410 311 411 q 347 410 338 410 q 372 410 357 410 q 390 410 379 410 q 408 408 400 410 q 435 412 428 406 q 461 443 442 418 q 496 495 472 463 q 538 563 519 528 q 612 689 604 657 q 579 718 619 721 q 530 708 557 717 q 450 681 503 700 q 378 653 399 658 q 343 657 358 649 q 330 666 335 658 q 324 684 325 674 q 325 704 324 694 q 382 738 328 719 q 507 774 436 756 q 568 781 539 779 q 619 778 597 782 q 646 763 640 774 q 649 759 646 763 q 654 761 653 756 q 663 751 660 760 q 674 728 665 742 q 691 693 688 704 q 690 661 694 682 q 676 631 686 646 q 661 611 667 615 q 651 599 654 606 q 647 592 647 592 q 639 581 646 586 q 625 568 632 576 q 619 556 624 563 q 613 544 614 549 q 601 528 611 543 q 578 492 592 513 q 552 453 564 471 q 536 429 540 436 q 517 403 517 411 q 535 386 517 394 q 574 363 558 376 q 594 331 589 350 q 588 299 596 303 q 566 290 581 289 q 547 297 551 292 q 528 313 543 306 q 500 325 514 321 q 482 329 486 329 q 471 319 476 326 q 458 303 465 311 q 433 258 449 289 q 401 197 417 226 q 376 153 385 167 q 369 139 375 146 q 360 122 363 132 q 350 94 354 113 q 346 60 346 75 q 350 44 346 46 q 366 42 361 47 q 374 26 371 38 q 369 3 381 17 q 340 -19 358 -10 q 307 -25 322 -28 z "},"8":{"ha":625,"x_min":171,"x_max":736,"o":"m 244 -44 q 225 -37 235 -43 q 206 -24 215 -32 q 189 -8 197 -15 q 175 28 179 15 q 175 69 171 40 q 178 108 175 86 q 192 144 182 131 q 223 210 201 172 q 270 285 244 247 q 319 353 296 322 q 353 399 342 385 q 367 431 368 418 q 339 482 367 444 q 326 505 333 497 q 325 513 319 513 q 322 517 325 513 q 314 532 318 522 q 294 592 293 551 q 314 671 294 632 q 363 747 336 721 q 432 778 390 772 q 483 769 447 776 q 558 754 519 763 q 621 735 597 746 q 659 713 638 728 q 697 683 681 697 q 715 660 714 668 q 720 651 715 656 q 726 639 725 646 q 735 603 735 624 q 732 562 736 582 q 719 529 728 542 q 671 485 685 490 q 655 471 664 479 q 635 460 646 463 q 622 443 628 450 q 610 436 615 436 q 599 441 604 440 q 593 436 593 442 q 574 424 593 433 q 536 407 556 414 q 511 403 517 400 q 507 403 511 403 q 494 397 503 403 q 515 353 476 400 q 563 238 547 293 q 558 154 579 183 q 501 56 532 94 q 453 19 471 18 q 447 15 453 19 q 433 7 440 11 q 422 -6 431 -3 q 406 -8 413 -10 q 363 -22 393 -3 q 320 -41 344 -35 q 275 -48 296 -47 q 244 -44 254 -49 m 267 26 q 306 35 281 25 q 359 60 331 44 q 408 90 388 76 q 480 174 461 133 q 482 257 499 214 q 464 293 474 274 q 447 324 454 313 q 433 342 439 336 q 419 351 426 347 q 409 344 419 351 q 392 321 399 336 q 367 288 376 301 q 353 264 358 274 q 335 246 343 254 q 322 233 326 238 q 314 209 322 229 q 294 169 306 189 q 256 73 264 117 q 267 26 249 29 m 482 485 q 533 515 511 511 q 563 503 554 518 q 595 515 565 497 q 647 557 625 533 q 657 581 656 572 q 656 611 658 589 q 653 634 657 625 q 635 651 649 643 q 593 671 622 660 q 451 690 507 701 q 376 614 396 679 q 368 567 368 588 q 379 522 368 546 q 396 508 392 517 q 400 499 400 499 q 411 486 400 486 q 431 471 414 479 q 482 485 447 463 z "},"9":{"ha":625,"x_min":289,"x_max":718,"o":"m 435 -37 q 419 -31 428 -36 q 406 -18 411 -25 q 400 -8 400 -11 q 394 -1 401 -1 q 392 8 394 -1 q 390 26 389 17 q 392 47 390 31 q 393 74 393 64 q 407 147 396 101 q 433 244 418 193 q 463 335 449 294 q 480 396 482 385 q 444 404 478 407 q 366 415 401 397 q 310 469 331 433 q 292 544 289 504 q 301 583 293 565 q 326 631 308 600 q 390 708 356 674 q 463 764 425 742 q 538 793 501 786 q 590 796 560 797 q 638 788 621 794 q 677 756 658 779 q 707 708 696 733 q 714 667 718 683 q 692 597 704 621 q 661 554 679 574 q 609 483 639 535 q 549 366 579 432 q 497 236 519 300 q 473 131 478 178 q 478 82 468 83 q 492 78 483 82 q 507 74 501 74 q 511 61 511 68 q 504 39 511 54 q 491 16 500 29 q 471 -10 482 3 q 450 -30 460 -22 q 435 -37 440 -37 m 372 492 q 429 478 393 469 q 505 517 465 486 q 574 593 544 547 q 602 630 590 613 q 619 651 614 647 q 640 683 638 671 q 632 706 642 696 q 604 722 622 721 q 553 711 586 724 q 512 698 531 707 q 464 669 493 689 q 453 663 458 664 q 442 664 447 663 q 439 663 442 664 q 436 657 436 663 q 419 625 443 644 q 371 547 383 586 q 372 492 358 507 z "},"A":{"ha":697,"x_min":67,"x_max":749,"o":"m 96 -46 q 69 -15 71 -32 q 88 43 67 1 q 153 172 108 85 q 203 270 186 235 q 227 321 221 306 q 233 340 233 336 q 236 360 231 353 q 254 374 242 368 q 277 399 261 381 q 307 442 293 417 q 336 501 319 471 q 381 578 353 532 q 453 700 408 625 q 514 799 481 749 q 585 900 547 850 q 613 931 600 919 q 638 942 625 943 q 676 931 654 942 q 715 901 697 919 q 742 863 733 883 q 747 815 749 851 q 742 728 746 779 q 732 618 738 676 q 719 483 728 561 q 703 321 711 406 q 692 158 696 236 q 692 21 688 79 q 692 -3 693 8 q 690 -21 690 -14 q 663 -28 682 -29 q 627 -19 644 -28 q 607 1 610 -11 q 602 13 603 6 q 603 46 601 21 q 606 125 604 71 l 613 350 l 594 349 q 547 346 582 349 q 472 338 513 343 q 398 328 432 333 q 351 319 364 324 q 322 303 339 319 q 289 260 304 286 q 269 219 283 240 q 254 190 254 197 q 238 174 244 183 q 232 164 232 164 q 219 123 232 156 q 186 51 206 90 q 147 -18 167 11 l 118 -62 l 96 -46 m 383 401 q 398 404 383 401 q 433 410 413 407 q 469 414 453 414 q 554 433 528 428 q 591 438 581 438 q 610 433 601 438 q 620 425 615 426 q 625 424 625 424 q 629 456 626 426 q 637 528 632 485 q 647 617 642 571 q 654 703 651 664 q 658 764 657 743 q 661 812 660 790 q 663 833 663 833 q 627 803 654 833 q 567 722 600 772 q 504 615 533 672 q 478 568 490 589 q 458 547 465 547 q 442 523 456 544 q 414 474 429 501 q 389 426 399 447 q 383 401 379 404 z "},"Á":{"ha":697,"x_min":67,"x_max":850,"o":"m 96 -46 q 69 -15 71 -32 q 88 43 67 1 q 153 172 108 85 q 203 270 186 235 q 227 321 221 306 q 233 340 233 336 q 236 360 231 353 q 254 374 242 368 q 277 399 261 381 q 307 442 293 417 q 336 501 319 471 q 381 578 353 532 q 453 700 408 625 q 514 799 481 749 q 585 900 547 850 q 613 931 600 919 q 638 942 625 943 q 676 931 654 942 q 715 901 697 919 q 742 863 733 883 q 747 815 749 851 q 742 728 746 779 q 732 618 738 676 q 719 483 728 561 q 703 321 711 406 q 692 158 696 236 q 692 21 688 79 q 692 -3 693 8 q 690 -21 690 -14 q 663 -28 682 -29 q 627 -19 644 -28 q 607 1 610 -11 q 602 13 603 6 q 603 46 601 21 q 606 125 604 71 l 613 350 l 594 349 q 547 346 582 349 q 472 338 513 343 q 398 328 432 333 q 351 319 364 324 q 322 303 339 319 q 289 260 304 286 q 269 219 283 240 q 254 190 254 197 q 238 174 244 183 q 232 164 232 164 q 219 123 232 156 q 186 51 206 90 q 147 -18 167 11 l 118 -62 l 96 -46 m 383 401 q 398 404 383 401 q 433 410 413 407 q 469 414 453 414 q 554 433 528 428 q 591 438 581 438 q 610 433 601 438 q 620 425 615 426 q 625 424 625 424 q 629 456 626 426 q 637 528 632 485 q 647 617 642 571 q 654 703 651 664 q 658 764 657 743 q 661 812 660 790 q 663 833 663 833 q 627 803 654 833 q 567 722 600 772 q 504 615 533 672 q 478 568 490 589 q 458 547 465 547 q 442 523 456 544 q 414 474 429 501 q 389 426 399 447 q 383 401 379 404 m 671 992 q 656 1021 661 1001 q 653 1046 651 1040 q 672 1074 654 1053 q 713 1119 689 1094 q 758 1164 736 1144 q 789 1188 779 1183 q 818 1184 804 1197 q 846 1149 832 1171 q 835 1119 850 1136 q 797 1082 821 1101 q 751 1044 774 1063 q 717 1010 728 1025 q 695 983 703 988 q 671 992 688 979 z "},"Ă":{"ha":697,"x_min":67,"x_max":903,"o":"m 96 -46 q 69 -15 71 -32 q 88 43 67 1 q 153 172 108 85 q 203 270 186 235 q 227 321 221 306 q 233 340 233 336 q 236 360 231 353 q 254 374 242 368 q 277 399 261 381 q 307 442 293 417 q 336 501 319 471 q 381 578 353 532 q 453 700 408 625 q 514 799 481 749 q 585 900 547 850 q 613 931 600 919 q 638 942 625 943 q 676 931 654 942 q 715 901 697 919 q 742 863 733 883 q 747 815 749 851 q 742 728 746 779 q 732 618 738 676 q 719 483 728 561 q 703 321 711 406 q 692 158 696 236 q 692 21 688 79 q 692 -3 693 8 q 690 -21 690 -14 q 663 -28 682 -29 q 627 -19 644 -28 q 607 1 610 -11 q 602 13 603 6 q 603 46 601 21 q 606 125 604 71 l 613 350 l 594 349 q 547 346 582 349 q 472 338 513 343 q 398 328 432 333 q 351 319 364 324 q 322 303 339 319 q 289 260 304 286 q 269 219 283 240 q 254 190 254 197 q 238 174 244 183 q 232 164 232 164 q 219 123 232 156 q 186 51 206 90 q 147 -18 167 11 l 118 -62 l 96 -46 m 383 401 q 398 404 383 401 q 433 410 413 407 q 469 414 453 414 q 554 433 528 428 q 591 438 581 438 q 610 433 601 438 q 620 425 615 426 q 625 424 625 424 q 629 456 626 426 q 637 528 632 485 q 647 617 642 571 q 654 703 651 664 q 658 764 657 743 q 661 812 660 790 q 663 833 663 833 q 627 803 654 833 q 567 722 600 772 q 504 615 533 672 q 478 568 490 589 q 458 547 465 547 q 442 523 456 544 q 414 474 429 501 q 389 426 399 447 q 383 401 379 404 m 715 974 q 640 997 671 978 q 598 1049 610 1017 q 593 1122 586 1081 q 610 1161 597 1147 q 635 1176 622 1175 q 656 1165 649 1176 q 657 1131 664 1154 q 656 1092 653 1115 q 676 1051 658 1068 q 736 1035 694 1033 q 774 1053 754 1036 q 812 1092 794 1069 q 838 1128 829 1114 q 865 1160 853 1154 q 887 1158 878 1165 q 899 1137 896 1150 q 900 1114 903 1124 q 881 1077 896 1101 q 842 1028 867 1053 q 785 987 818 1003 q 715 974 753 971 z "},"Â":{"ha":697,"x_min":67,"x_max":842,"o":"m 96 -46 q 69 -15 71 -32 q 88 43 67 1 q 153 172 108 85 q 203 270 186 235 q 227 321 221 306 q 233 340 233 336 q 236 360 231 353 q 254 374 242 368 q 277 399 261 381 q 307 442 293 417 q 336 501 319 471 q 381 578 353 532 q 453 700 408 625 q 514 799 481 749 q 585 900 547 850 q 613 931 600 919 q 638 942 625 943 q 676 931 654 942 q 715 901 697 919 q 742 863 733 883 q 747 815 749 851 q 742 728 746 779 q 732 618 738 676 q 719 483 728 561 q 703 321 711 406 q 692 158 696 236 q 692 21 688 79 q 692 -3 693 8 q 690 -21 690 -14 q 663 -28 682 -29 q 627 -19 644 -28 q 607 1 610 -11 q 602 13 603 6 q 603 46 601 21 q 606 125 604 71 l 613 350 l 594 349 q 547 346 582 349 q 472 338 513 343 q 398 328 432 333 q 351 319 364 324 q 322 303 339 319 q 289 260 304 286 q 269 219 283 240 q 254 190 254 197 q 238 174 244 183 q 232 164 232 164 q 219 123 232 156 q 186 51 206 90 q 147 -18 167 11 l 118 -62 l 96 -46 m 383 401 q 398 404 383 401 q 433 410 413 407 q 469 414 453 414 q 554 433 528 428 q 591 438 581 438 q 610 433 601 438 q 620 425 615 426 q 625 424 625 424 q 629 456 626 426 q 637 528 632 485 q 647 617 642 571 q 654 703 651 664 q 658 764 657 743 q 661 812 660 790 q 663 833 663 833 q 627 803 654 833 q 567 722 600 772 q 504 615 533 672 q 478 568 490 589 q 458 547 465 547 q 442 523 456 544 q 414 474 429 501 q 389 426 399 447 q 383 401 379 404 m 600 1014 q 560 994 576 990 q 539 1015 543 997 q 550 1051 535 1032 q 569 1071 554 1057 q 605 1103 585 1085 q 646 1136 625 1121 q 681 1160 667 1151 q 704 1170 693 1171 q 724 1157 715 1169 q 765 1119 740 1143 q 810 1074 789 1094 q 833 1049 831 1053 q 841 1023 842 1038 q 831 999 840 1008 q 808 992 822 989 q 775 1018 794 996 q 743 1052 765 1031 q 700 1092 721 1074 q 663 1067 683 1082 q 626 1037 643 1051 q 600 1014 610 1022 z "},"Ȁ":{"ha":697,"x_min":67,"x_max":797,"o":"m 96 -46 q 69 -15 71 -32 q 88 43 67 1 q 153 172 108 85 q 203 270 186 235 q 227 321 221 306 q 233 340 233 336 q 236 360 231 353 q 254 374 242 368 q 277 399 261 381 q 307 442 293 417 q 336 501 319 471 q 381 578 353 532 q 453 700 408 625 q 514 799 481 749 q 585 900 547 850 q 613 931 600 919 q 638 942 625 943 q 676 931 654 942 q 715 901 697 919 q 742 863 733 883 q 747 815 749 851 q 742 728 746 779 q 732 618 738 676 q 719 483 728 561 q 703 321 711 406 q 692 158 696 236 q 692 21 688 79 q 692 -3 693 8 q 690 -21 690 -14 q 663 -28 682 -29 q 627 -19 644 -28 q 607 1 610 -11 q 602 13 603 6 q 603 46 601 21 q 606 125 604 71 l 613 350 l 594 349 q 547 346 582 349 q 472 338 513 343 q 398 328 432 333 q 351 319 364 324 q 322 303 339 319 q 289 260 304 286 q 269 219 283 240 q 254 190 254 197 q 238 174 244 183 q 232 164 232 164 q 219 123 232 156 q 186 51 206 90 q 147 -18 167 11 l 118 -62 l 96 -46 m 383 401 q 398 404 383 401 q 433 410 413 407 q 469 414 453 414 q 554 433 528 428 q 591 438 581 438 q 610 433 601 438 q 620 425 615 426 q 625 424 625 424 q 629 456 626 426 q 637 528 632 485 q 647 617 642 571 q 654 703 651 664 q 658 764 657 743 q 661 812 660 790 q 663 833 663 833 q 627 803 654 833 q 567 722 600 772 q 504 615 533 672 q 478 568 490 589 q 458 547 465 547 q 442 523 456 544 q 414 474 429 501 q 389 426 399 447 q 383 401 379 404 m 604 999 q 584 997 590 992 q 569 1024 578 1001 q 547 1059 563 1039 q 515 1101 531 1079 q 490 1140 499 1122 q 486 1164 481 1157 q 515 1191 500 1183 q 540 1192 531 1199 q 564 1165 549 1186 q 594 1117 579 1143 q 621 1069 610 1090 q 632 1044 632 1049 q 629 1033 633 1042 q 619 1014 625 1024 q 604 999 613 1004 m 769 999 q 748 997 754 992 q 733 1024 742 1001 q 710 1059 726 1039 q 678 1101 694 1079 q 653 1140 663 1122 q 650 1164 644 1157 q 681 1191 667 1183 q 704 1192 694 1199 q 728 1165 713 1186 q 759 1117 743 1143 q 785 1069 775 1090 q 796 1044 796 1049 q 789 1023 797 1040 q 769 999 781 1006 z "},"Ä":{"ha":697,"x_min":67,"x_max":890,"o":"m 96 -46 q 69 -15 71 -32 q 88 43 67 1 q 153 172 108 85 q 203 270 186 235 q 227 321 221 306 q 233 340 233 336 q 236 360 231 353 q 254 374 242 368 q 277 399 261 381 q 307 442 293 417 q 336 501 319 471 q 381 578 353 532 q 453 700 408 625 q 514 799 481 749 q 585 900 547 850 q 613 931 600 919 q 638 942 625 943 q 676 931 654 942 q 715 901 697 919 q 742 863 733 883 q 747 815 749 851 q 742 728 746 779 q 732 618 738 676 q 719 483 728 561 q 703 321 711 406 q 692 158 696 236 q 692 21 688 79 q 692 -3 693 8 q 690 -21 690 -14 q 663 -28 682 -29 q 627 -19 644 -28 q 607 1 610 -11 q 602 13 603 6 q 603 46 601 21 q 606 125 604 71 l 613 350 l 594 349 q 547 346 582 349 q 472 338 513 343 q 398 328 432 333 q 351 319 364 324 q 322 303 339 319 q 289 260 304 286 q 269 219 283 240 q 254 190 254 197 q 238 174 244 183 q 232 164 232 164 q 219 123 232 156 q 186 51 206 90 q 147 -18 167 11 l 118 -62 l 96 -46 m 383 401 q 398 404 383 401 q 433 410 413 407 q 469 414 453 414 q 554 433 528 428 q 591 438 581 438 q 610 433 601 438 q 620 425 615 426 q 625 424 625 424 q 629 456 626 426 q 637 528 632 485 q 647 617 642 571 q 654 703 651 664 q 658 764 657 743 q 661 812 660 790 q 663 833 663 833 q 627 803 654 833 q 567 722 600 772 q 504 615 533 672 q 478 568 490 589 q 458 547 465 547 q 442 523 456 544 q 414 474 429 501 q 389 426 399 447 q 383 401 379 404 m 797 1042 q 781 1066 788 1051 q 776 1086 775 1081 q 787 1113 779 1093 q 804 1142 794 1133 q 814 1151 808 1144 q 825 1158 819 1157 q 856 1163 842 1171 q 878 1132 871 1154 q 886 1098 890 1113 q 864 1060 882 1083 q 826 1028 843 1031 q 797 1042 810 1025 m 618 1042 q 602 1066 608 1051 q 597 1086 596 1081 q 608 1113 600 1093 q 625 1142 615 1133 q 634 1151 629 1144 q 644 1158 639 1157 q 666 1165 656 1167 q 685 1156 676 1164 q 699 1132 694 1147 q 707 1098 711 1113 q 685 1060 703 1083 q 646 1028 663 1031 q 618 1042 629 1025 z "},"À":{"ha":697,"x_min":67,"x_max":796,"o":"m 96 -46 q 69 -15 71 -32 q 88 43 67 1 q 153 172 108 85 q 203 270 186 235 q 227 321 221 306 q 233 340 233 336 q 236 360 231 353 q 254 374 242 368 q 277 399 261 381 q 307 442 293 417 q 336 501 319 471 q 381 578 353 532 q 453 700 408 625 q 514 799 481 749 q 585 900 547 850 q 613 931 600 919 q 638 942 625 943 q 676 931 654 942 q 715 901 697 919 q 742 863 733 883 q 747 815 749 851 q 742 728 746 779 q 732 618 738 676 q 719 483 728 561 q 703 321 711 406 q 692 158 696 236 q 692 21 688 79 q 692 -3 693 8 q 690 -21 690 -14 q 663 -28 682 -29 q 627 -19 644 -28 q 607 1 610 -11 q 602 13 603 6 q 603 46 601 21 q 606 125 604 71 l 613 350 l 594 349 q 547 346 582 349 q 472 338 513 343 q 398 328 432 333 q 351 319 364 324 q 322 303 339 319 q 289 260 304 286 q 269 219 283 240 q 254 190 254 197 q 238 174 244 183 q 232 164 232 164 q 219 123 232 156 q 186 51 206 90 q 147 -18 167 11 l 118 -62 l 96 -46 m 383 401 q 398 404 383 401 q 433 410 413 407 q 469 414 453 414 q 554 433 528 428 q 591 438 581 438 q 610 433 601 438 q 620 425 615 426 q 625 424 625 424 q 629 456 626 426 q 637 528 632 485 q 647 617 642 571 q 654 703 651 664 q 658 764 657 743 q 661 812 660 790 q 663 833 663 833 q 627 803 654 833 q 567 722 600 772 q 504 615 533 672 q 478 568 490 589 q 458 547 465 547 q 442 523 456 544 q 414 474 429 501 q 389 426 399 447 q 383 401 379 404 m 767 988 q 749 978 756 979 q 739 986 743 978 q 729 1010 735 994 q 696 1065 718 1033 q 660 1128 674 1097 q 657 1174 646 1158 q 688 1197 675 1189 q 715 1190 701 1206 q 738 1162 725 1185 q 765 1110 751 1139 q 786 1056 778 1081 q 794 1024 794 1032 q 787 1004 796 1018 q 767 988 778 990 z "},"Ȃ":{"ha":697,"x_min":67,"x_max":864,"o":"m 96 -46 q 69 -15 71 -32 q 88 43 67 1 q 153 172 108 85 q 203 270 186 235 q 227 321 221 306 q 233 340 233 336 q 236 360 231 353 q 254 374 242 368 q 277 399 261 381 q 307 442 293 417 q 336 501 319 471 q 381 578 353 532 q 453 700 408 625 q 514 799 481 749 q 585 900 547 850 q 613 931 600 919 q 638 942 625 943 q 676 931 654 942 q 715 901 697 919 q 742 863 733 883 q 747 815 749 851 q 742 728 746 779 q 732 618 738 676 q 719 483 728 561 q 703 321 711 406 q 692 158 696 236 q 692 21 688 79 q 692 -3 693 8 q 690 -21 690 -14 q 663 -28 682 -29 q 627 -19 644 -28 q 607 1 610 -11 q 602 13 603 6 q 603 46 601 21 q 606 125 604 71 l 613 350 l 594 349 q 547 346 582 349 q 472 338 513 343 q 398 328 432 333 q 351 319 364 324 q 322 303 339 319 q 289 260 304 286 q 269 219 283 240 q 254 190 254 197 q 238 174 244 183 q 232 164 232 164 q 219 123 232 156 q 186 51 206 90 q 147 -18 167 11 l 118 -62 l 96 -46 m 383 401 q 398 404 383 401 q 433 410 413 407 q 469 414 453 414 q 554 433 528 428 q 591 438 581 438 q 610 433 601 438 q 620 425 615 426 q 625 424 625 424 q 629 456 626 426 q 637 528 632 485 q 647 617 642 571 q 654 703 651 664 q 658 764 657 743 q 661 812 660 790 q 663 833 663 833 q 627 803 654 833 q 567 722 600 772 q 504 615 533 672 q 478 568 490 589 q 458 547 465 547 q 442 523 456 544 q 414 474 429 501 q 389 426 399 447 q 383 401 379 404 m 792 1014 q 793 1053 796 1031 q 772 1094 790 1076 q 713 1110 754 1111 q 674 1092 694 1110 q 637 1053 654 1075 q 611 1017 619 1032 q 576 983 592 982 q 553 1001 560 983 q 549 1031 546 1018 q 567 1067 553 1043 q 606 1117 582 1092 q 663 1158 631 1142 q 733 1171 696 1174 q 809 1148 779 1168 q 851 1096 839 1128 q 856 1022 864 1064 q 831 976 850 989 q 797 974 811 964 q 792 1014 783 983 z "},"Ā":{"ha":697,"x_min":67,"x_max":918,"o":"m 96 -46 q 69 -15 71 -32 q 88 43 67 1 q 153 172 108 85 q 203 270 186 235 q 227 321 221 306 q 233 340 233 336 q 236 360 231 353 q 254 374 242 368 q 277 399 261 381 q 307 442 293 417 q 336 501 319 471 q 381 578 353 532 q 453 700 408 625 q 514 799 481 749 q 585 900 547 850 q 613 931 600 919 q 638 942 625 943 q 676 931 654 942 q 715 901 697 919 q 742 863 733 883 q 747 815 749 851 q 742 728 746 779 q 732 618 738 676 q 719 483 728 561 q 703 321 711 406 q 692 158 696 236 q 692 21 688 79 q 692 -3 693 8 q 690 -21 690 -14 q 663 -28 682 -29 q 627 -19 644 -28 q 607 1 610 -11 q 602 13 603 6 q 603 46 601 21 q 606 125 604 71 l 613 350 l 594 349 q 547 346 582 349 q 472 338 513 343 q 398 328 432 333 q 351 319 364 324 q 322 303 339 319 q 289 260 304 286 q 269 219 283 240 q 254 190 254 197 q 238 174 244 183 q 232 164 232 164 q 219 123 232 156 q 186 51 206 90 q 147 -18 167 11 l 118 -62 l 96 -46 m 383 401 q 398 404 383 401 q 433 410 413 407 q 469 414 453 414 q 554 433 528 428 q 591 438 581 438 q 610 433 601 438 q 620 425 615 426 q 625 424 625 424 q 629 456 626 426 q 637 528 632 485 q 647 617 642 571 q 654 703 651 664 q 658 764 657 743 q 661 812 660 790 q 663 833 663 833 q 627 803 654 833 q 567 722 600 772 q 504 615 533 672 q 478 568 490 589 q 458 547 465 547 q 442 523 456 544 q 414 474 429 501 q 389 426 399 447 q 383 401 379 404 m 625 1058 q 605 1059 617 1058 q 581 1064 593 1060 q 553 1067 560 1064 q 540 1081 546 1071 q 539 1109 528 1101 q 597 1122 550 1117 q 696 1133 644 1129 q 800 1138 747 1138 q 858 1135 832 1138 q 900 1121 885 1132 q 913 1083 918 1100 q 878 1068 908 1065 q 851 1067 871 1068 q 807 1065 831 1065 q 767 1064 783 1064 q 734 1063 758 1064 q 680 1060 710 1061 q 625 1058 650 1058 z "},"Ą":{"ha":697,"x_min":67,"x_max":749,"o":"m 96 -46 q 69 -15 71 -32 q 88 43 67 1 q 153 172 108 85 q 203 270 186 235 q 227 321 221 306 q 233 340 233 336 q 236 360 231 353 q 254 374 242 368 q 277 399 261 381 q 307 442 293 417 q 336 501 319 471 q 381 578 353 532 q 453 700 408 625 q 514 799 481 749 q 585 900 547 850 q 613 931 600 919 q 638 942 625 943 q 676 931 654 942 q 715 901 697 919 q 742 863 733 883 q 747 815 749 851 q 742 728 746 779 q 732 618 738 676 q 719 483 728 561 q 703 321 711 406 q 692 158 696 236 q 692 21 688 79 q 692 -3 693 8 q 690 -21 690 -14 q 663 -28 682 -29 q 627 -19 644 -28 q 607 1 610 -11 q 602 13 603 6 q 603 46 601 21 q 606 125 604 71 l 613 350 l 594 349 q 547 346 582 349 q 472 338 513 343 q 398 328 432 333 q 351 319 364 324 q 322 303 339 319 q 289 260 304 286 q 269 219 283 240 q 254 190 254 197 q 238 174 244 183 q 232 164 232 164 q 219 123 232 156 q 186 51 206 90 q 147 -18 167 11 l 118 -62 l 96 -46 m 383 401 q 398 404 383 401 q 433 410 413 407 q 469 414 453 414 q 554 433 528 428 q 591 438 581 438 q 610 433 601 438 q 620 425 615 426 q 625 424 625 424 q 629 456 626 426 q 637 528 632 485 q 647 617 642 571 q 654 703 651 664 q 658 764 657 743 q 661 812 660 790 q 663 833 663 833 q 627 803 654 833 q 567 722 600 772 q 504 615 533 672 q 478 568 490 589 q 458 547 465 547 q 442 523 456 544 q 414 474 429 501 q 389 426 399 447 q 383 401 379 404 m 539 -268 q 492 -239 511 -260 q 466 -190 472 -218 q 472 -135 460 -161 q 518 -70 488 -103 q 585 -8 549 -37 q 651 40 621 21 l 693 -1 q 620 -55 663 -19 q 553 -121 578 -90 q 526 -165 533 -144 q 528 -201 518 -186 q 553 -210 532 -210 q 607 -190 585 -204 q 664 -160 629 -176 q 692 -154 682 -150 q 703 -170 701 -158 q 699 -194 706 -182 q 676 -214 693 -207 q 654 -224 671 -215 q 617 -241 638 -232 q 575 -258 596 -250 q 539 -268 554 -265 z "},"Å":{"ha":697,"x_min":67,"x_max":842,"o":"m 96 -46 q 69 -15 71 -32 q 88 43 67 1 q 153 172 108 85 q 203 270 186 235 q 227 321 221 306 q 233 340 233 336 q 236 360 231 353 q 254 374 242 368 q 277 399 261 381 q 307 442 293 417 q 336 501 319 471 q 381 578 353 532 q 453 700 408 625 q 514 799 481 749 q 585 900 547 850 q 613 931 600 919 q 638 942 625 943 q 676 931 654 942 q 715 901 697 919 q 742 863 733 883 q 747 815 749 851 q 742 728 746 779 q 732 618 738 676 q 719 483 728 561 q 703 321 711 406 q 692 158 696 236 q 692 21 688 79 q 692 -3 693 8 q 690 -21 690 -14 q 663 -28 682 -29 q 627 -19 644 -28 q 607 1 610 -11 q 602 13 603 6 q 603 46 601 21 q 606 125 604 71 l 613 350 l 594 349 q 547 346 582 349 q 472 338 513 343 q 398 328 432 333 q 351 319 364 324 q 322 303 339 319 q 289 260 304 286 q 269 219 283 240 q 254 190 254 197 q 238 174 244 183 q 232 164 232 164 q 219 123 232 156 q 186 51 206 90 q 147 -18 167 11 l 118 -62 l 96 -46 m 383 401 q 398 404 383 401 q 433 410 413 407 q 469 414 453 414 q 554 433 528 428 q 591 438 581 438 q 610 433 601 438 q 620 425 615 426 q 625 424 625 424 q 629 456 626 426 q 637 528 632 485 q 647 617 642 571 q 654 703 651 664 q 658 764 657 743 q 661 812 660 790 q 663 833 663 833 q 627 803 654 833 q 567 722 600 772 q 504 615 533 672 q 478 568 490 589 q 458 547 465 547 q 442 523 456 544 q 414 474 429 501 q 389 426 399 447 q 383 401 379 404 m 733 958 q 665 987 686 958 q 640 1056 644 1015 q 652 1113 640 1082 q 685 1165 664 1143 q 736 1188 707 1188 q 811 1167 781 1188 q 842 1107 842 1147 q 828 1039 842 1074 q 792 981 815 1004 q 733 958 768 958 m 728 1014 q 768 1030 753 1014 q 782 1079 783 1046 q 775 1114 781 1097 q 746 1131 769 1131 q 693 1061 693 1131 q 705 1031 693 1047 q 728 1014 717 1014 z "},"Ǻ":{"ha":697,"x_min":67,"x_max":960,"o":"m 96 -46 q 69 -15 71 -32 q 88 43 67 1 q 153 172 108 85 q 203 270 186 235 q 227 321 221 306 q 233 340 233 336 q 236 360 231 353 q 254 374 242 368 q 277 399 261 381 q 307 442 293 417 q 336 501 319 471 q 381 578 353 532 q 453 700 408 625 q 514 799 481 749 q 585 900 547 850 q 613 931 600 919 q 638 942 625 943 q 676 931 654 942 q 715 901 697 919 q 742 863 733 883 q 747 815 749 851 q 742 728 746 779 q 732 618 738 676 q 719 483 728 561 q 703 321 711 406 q 692 158 696 236 q 692 21 688 79 q 692 -3 693 8 q 690 -21 690 -14 q 663 -28 682 -29 q 627 -19 644 -28 q 607 1 610 -11 q 602 13 603 6 q 603 46 601 21 q 606 125 604 71 l 613 350 l 594 349 q 547 346 582 349 q 472 338 513 343 q 398 328 432 333 q 351 319 364 324 q 322 303 339 319 q 289 260 304 286 q 269 219 283 240 q 254 190 254 197 q 238 174 244 183 q 232 164 232 164 q 219 123 232 156 q 186 51 206 90 q 147 -18 167 11 l 118 -62 l 96 -46 m 383 401 q 398 404 383 401 q 433 410 413 407 q 469 414 453 414 q 554 433 528 428 q 591 438 581 438 q 610 433 601 438 q 620 425 615 426 q 625 424 625 424 q 629 456 626 426 q 637 528 632 485 q 647 617 642 571 q 654 703 651 664 q 658 764 657 743 q 661 812 660 790 q 663 833 663 833 q 627 803 654 833 q 567 722 600 772 q 504 615 533 672 q 478 568 490 589 q 458 547 465 547 q 442 523 456 544 q 414 474 429 501 q 389 426 399 447 q 383 401 379 404 m 733 958 q 665 987 686 958 q 640 1056 644 1015 q 652 1113 640 1082 q 685 1165 664 1143 q 736 1188 707 1188 q 811 1167 781 1188 q 842 1107 842 1147 q 828 1039 842 1074 q 792 981 815 1004 q 733 958 768 958 m 728 1014 q 768 1030 753 1014 q 782 1079 783 1046 q 775 1114 781 1097 q 746 1131 769 1131 q 693 1061 693 1131 q 705 1031 693 1047 q 728 1014 717 1014 m 781 1124 q 766 1153 771 1133 q 763 1178 761 1172 q 781 1206 764 1185 q 822 1251 799 1226 q 867 1296 846 1276 q 899 1319 889 1315 q 928 1316 914 1329 q 956 1281 942 1303 q 945 1251 960 1268 q 907 1214 931 1233 q 860 1176 883 1194 q 826 1142 838 1157 q 805 1115 813 1119 q 781 1124 797 1111 z "},"Ã":{"ha":697,"x_min":67,"x_max":935,"o":"m 96 -46 q 69 -15 71 -32 q 88 43 67 1 q 153 172 108 85 q 203 270 186 235 q 227 321 221 306 q 233 340 233 336 q 236 360 231 353 q 254 374 242 368 q 277 399 261 381 q 307 442 293 417 q 336 501 319 471 q 381 578 353 532 q 453 700 408 625 q 514 799 481 749 q 585 900 547 850 q 613 931 600 919 q 638 942 625 943 q 676 931 654 942 q 715 901 697 919 q 742 863 733 883 q 747 815 749 851 q 742 728 746 779 q 732 618 738 676 q 719 483 728 561 q 703 321 711 406 q 692 158 696 236 q 692 21 688 79 q 692 -3 693 8 q 690 -21 690 -14 q 663 -28 682 -29 q 627 -19 644 -28 q 607 1 610 -11 q 602 13 603 6 q 603 46 601 21 q 606 125 604 71 l 613 350 l 594 349 q 547 346 582 349 q 472 338 513 343 q 398 328 432 333 q 351 319 364 324 q 322 303 339 319 q 289 260 304 286 q 269 219 283 240 q 254 190 254 197 q 238 174 244 183 q 232 164 232 164 q 219 123 232 156 q 186 51 206 90 q 147 -18 167 11 l 118 -62 l 96 -46 m 383 401 q 398 404 383 401 q 433 410 413 407 q 469 414 453 414 q 554 433 528 428 q 591 438 581 438 q 610 433 601 438 q 620 425 615 426 q 625 424 625 424 q 629 456 626 426 q 637 528 632 485 q 647 617 642 571 q 654 703 651 664 q 658 764 657 743 q 661 812 660 790 q 663 833 663 833 q 627 803 654 833 q 567 722 600 772 q 504 615 533 672 q 478 568 490 589 q 458 547 465 547 q 442 523 456 544 q 414 474 429 501 q 389 426 399 447 q 383 401 379 404 m 793 1013 q 748 1023 765 1013 q 704 1051 731 1033 q 671 1079 692 1058 q 633 1100 650 1100 q 610 1089 619 1100 q 593 1066 601 1078 q 569 1051 585 1054 q 561 1034 568 1044 q 551 1031 554 1024 q 530 1044 538 1035 q 524 1061 522 1054 q 544 1106 525 1074 q 611 1161 564 1138 q 658 1161 628 1168 q 710 1133 688 1154 q 758 1091 742 1104 q 801 1089 775 1078 q 847 1110 822 1094 q 900 1138 871 1126 q 918 1137 910 1142 q 931 1122 926 1132 q 933 1104 935 1113 q 924 1085 933 1099 q 903 1064 915 1071 q 839 1029 861 1040 q 808 1015 817 1018 q 793 1013 799 1013 z "},"Æ":{"ha":1089,"x_min":75,"x_max":1258,"o":"m 765 -67 q 666 -60 710 -67 q 586 -26 622 -54 q 546 25 558 -4 q 537 99 533 54 q 557 208 540 143 q 567 253 561 232 q 579 286 574 275 l 563 286 q 484 284 536 282 q 363 290 432 286 l 339 261 q 317 232 335 256 q 283 179 299 208 q 249 118 269 153 q 207 57 229 83 q 164 -2 178 14 q 143 -18 150 -18 q 122 -17 131 -18 q 101 -6 113 -15 q 81 33 75 7 q 122 100 88 60 q 137 119 131 110 q 143 129 143 129 q 158 155 144 132 q 191 206 172 178 q 226 256 210 233 q 250 282 243 279 q 254 335 279 310 q 247 347 244 339 q 260 361 250 354 q 283 368 271 368 q 303 378 297 375 q 310 386 310 381 q 324 409 311 389 q 353 456 336 429 q 388 508 371 483 q 417 544 406 532 q 447 597 438 583 q 465 622 457 610 q 490 653 474 629 q 522 699 507 676 q 564 741 544 718 q 597 779 583 764 q 622 813 606 794 q 656 850 638 831 q 702 887 686 879 q 744 882 718 894 q 793 869 760 875 q 865 856 826 864 q 922 874 890 865 q 985 883 954 882 q 1022 892 993 889 q 1088 894 1050 894 q 1157 892 1125 894 q 1206 883 1188 892 q 1242 867 1224 875 q 1252 850 1249 860 q 1257 833 1256 840 q 1258 825 1258 825 q 1240 819 1258 821 q 1194 816 1222 817 q 1135 815 1165 815 q 1067 811 1101 815 q 1008 803 1033 807 q 974 799 983 799 q 940 792 954 793 q 925 790 925 790 q 908 769 922 790 q 876 719 893 747 q 845 666 858 690 q 832 638 832 642 q 821 607 832 624 q 794 568 810 590 q 776 535 781 550 q 785 515 772 521 q 845 524 807 519 q 922 531 883 528 q 981 535 960 535 q 1019 538 1004 542 q 1042 529 1035 533 q 1065 519 1058 526 q 1072 504 1072 511 q 1061 493 1071 497 q 1019 474 1053 485 q 942 451 986 463 q 852 431 897 440 q 775 417 807 422 q 738 413 743 411 q 726 412 729 432 q 694 331 722 392 q 667 265 679 296 q 648 199 656 233 q 632 122 640 165 q 627 62 622 85 q 676 18 632 39 q 751 14 704 13 q 857 31 797 15 q 903 55 882 46 q 933 69 924 64 q 955 73 940 69 q 975 76 969 76 q 987 88 981 83 q 1003 92 993 92 q 1016 81 1006 92 q 1036 58 1026 71 q 1044 42 1046 46 q 1014 14 1044 28 q 914 -28 983 0 q 858 -51 879 -43 q 817 -63 836 -60 q 765 -67 797 -67 m 414 363 q 448 366 414 363 q 521 368 482 369 q 569 370 547 371 q 604 369 590 369 q 610 390 607 382 q 619 404 614 399 q 629 423 624 407 q 636 442 635 439 q 638 452 636 442 q 644 476 639 463 q 660 506 656 496 q 665 522 665 517 q 677 539 668 528 q 692 568 686 550 q 753 681 728 633 q 788 760 778 729 q 749 764 769 763 q 704 765 728 765 q 684 754 701 769 q 644 715 667 739 q 601 669 621 692 q 575 636 582 647 q 549 600 569 629 q 506 538 529 571 q 442 446 464 483 q 413 388 419 408 q 414 363 407 367 z "},"Ǽ":{"ha":1089,"x_min":75,"x_max":1258,"o":"m 765 -67 q 666 -60 710 -67 q 586 -26 622 -54 q 546 25 558 -4 q 537 99 533 54 q 557 208 540 143 q 567 253 561 232 q 579 286 574 275 l 563 286 q 484 284 536 282 q 363 290 432 286 l 339 261 q 317 232 335 256 q 283 179 299 208 q 249 118 269 153 q 207 57 229 83 q 164 -2 178 14 q 143 -18 150 -18 q 122 -17 131 -18 q 101 -6 113 -15 q 81 33 75 7 q 122 100 88 60 q 137 119 131 110 q 143 129 143 129 q 158 155 144 132 q 191 206 172 178 q 226 256 210 233 q 250 282 243 279 q 254 335 279 310 q 247 347 244 339 q 260 361 250 354 q 283 368 271 368 q 303 378 297 375 q 310 386 310 381 q 324 409 311 389 q 353 456 336 429 q 388 508 371 483 q 417 544 406 532 q 447 597 438 583 q 465 622 457 610 q 490 653 474 629 q 522 699 507 676 q 564 741 544 718 q 597 779 583 764 q 622 813 606 794 q 656 850 638 831 q 702 887 686 879 q 744 882 718 894 q 793 869 760 875 q 865 856 826 864 q 922 874 890 865 q 985 883 954 882 q 1022 892 993 889 q 1088 894 1050 894 q 1157 892 1125 894 q 1206 883 1188 892 q 1242 867 1224 875 q 1252 850 1249 860 q 1257 833 1256 840 q 1258 825 1258 825 q 1240 819 1258 821 q 1194 816 1222 817 q 1135 815 1165 815 q 1067 811 1101 815 q 1008 803 1033 807 q 974 799 983 799 q 940 792 954 793 q 925 790 925 790 q 908 769 922 790 q 876 719 893 747 q 845 666 858 690 q 832 638 832 642 q 821 607 832 624 q 794 568 810 590 q 776 535 781 550 q 785 515 772 521 q 845 524 807 519 q 922 531 883 528 q 981 535 960 535 q 1019 538 1004 542 q 1042 529 1035 533 q 1065 519 1058 526 q 1072 504 1072 511 q 1061 493 1071 497 q 1019 474 1053 485 q 942 451 986 463 q 852 431 897 440 q 775 417 807 422 q 738 413 743 411 q 726 412 729 432 q 694 331 722 392 q 667 265 679 296 q 648 199 656 233 q 632 122 640 165 q 627 62 622 85 q 676 18 632 39 q 751 14 704 13 q 857 31 797 15 q 903 55 882 46 q 933 69 924 64 q 955 73 940 69 q 975 76 969 76 q 987 88 981 83 q 1003 92 993 92 q 1016 81 1006 92 q 1036 58 1026 71 q 1044 42 1046 46 q 1014 14 1044 28 q 914 -28 983 0 q 858 -51 879 -43 q 817 -63 836 -60 q 765 -67 797 -67 m 414 363 q 448 366 414 363 q 521 368 482 369 q 569 370 547 371 q 604 369 590 369 q 610 390 607 382 q 619 404 614 399 q 629 423 624 407 q 636 442 635 439 q 638 452 636 442 q 644 476 639 463 q 660 506 656 496 q 665 522 665 517 q 677 539 668 528 q 692 568 686 550 q 753 681 728 633 q 788 760 778 729 q 749 764 769 763 q 704 765 728 765 q 684 754 701 769 q 644 715 667 739 q 601 669 621 692 q 575 636 582 647 q 549 600 569 629 q 506 538 529 571 q 442 446 464 483 q 413 388 419 408 q 414 363 407 367 m 919 992 q 905 1021 910 1001 q 901 1046 900 1040 q 920 1074 903 1053 q 961 1119 938 1094 q 1006 1164 985 1144 q 1038 1188 1028 1183 q 1067 1184 1053 1197 q 1094 1149 1081 1171 q 1084 1119 1099 1136 q 1046 1082 1069 1101 q 999 1044 1022 1063 q 965 1010 976 1025 q 944 983 951 988 q 919 992 936 979 z "},"B":{"ha":722,"x_min":113,"x_max":796,"o":"m 285 -79 q 204 -12 225 -40 q 221 40 183 17 q 248 31 229 46 q 279 4 267 17 q 348 -27 307 -21 q 440 -19 389 -33 q 542 31 499 -1 q 625 111 586 64 q 665 192 654 149 q 674 274 676 236 q 658 326 672 311 q 562 394 624 375 q 417 390 500 413 q 388 385 407 389 q 353 377 368 381 q 336 374 338 374 q 321 367 326 371 q 308 347 315 364 q 285 285 300 329 q 239 157 269 242 q 192 37 210 72 q 162 5 175 1 q 129 35 149 8 q 115 73 118 54 q 126 117 113 92 q 138 140 133 129 q 149 176 142 150 q 176 249 156 197 q 224 372 196 301 q 282 517 251 442 q 341 658 313 592 q 389 771 369 725 q 413 833 408 814 q 410 854 417 853 q 406 867 410 861 q 403 879 401 874 q 422 894 403 885 q 463 913 440 904 q 499 918 486 921 q 515 919 506 918 q 525 925 525 919 q 551 928 529 925 q 600 928 574 931 q 744 874 693 919 q 794 751 796 829 q 770 688 793 728 q 715 607 747 647 q 651 539 682 567 q 613 508 633 524 q 578 481 593 492 q 564 471 564 471 q 575 467 564 471 q 599 458 586 463 q 704 399 663 435 q 761 299 746 363 q 762 247 767 278 q 749 187 757 217 q 731 136 740 157 q 715 116 721 126 q 710 106 710 106 q 699 84 710 103 q 672 43 688 65 q 643 4 657 21 q 610 -22 629 -7 q 569 -51 592 -37 q 519 -75 546 -65 q 435 -98 481 -92 q 350 -99 390 -104 q 285 -79 310 -94 m 353 456 q 378 460 353 456 q 435 472 404 465 q 479 483 465 478 q 499 494 486 488 q 526 515 513 501 q 576 567 546 533 q 635 640 606 601 q 679 708 664 678 q 714 783 711 758 q 699 825 717 807 q 656 845 686 840 q 593 848 626 850 q 536 839 560 846 q 508 826 518 833 q 499 803 499 818 q 491 778 499 790 q 476 760 483 767 q 469 742 475 750 q 464 735 464 735 q 444 689 464 729 q 406 596 425 649 q 367 499 381 536 q 353 456 353 463 z "},"C":{"ha":656,"x_min":158,"x_max":776,"o":"m 297 -78 q 255 -60 276 -69 q 215 -31 233 -50 q 182 21 196 -12 q 163 100 168 61 q 160 190 158 139 q 170 316 160 263 q 203 425 181 369 q 213 449 206 429 q 231 493 221 469 q 247 529 242 517 q 281 592 258 553 q 331 669 304 632 q 397 764 371 729 q 447 822 424 799 q 501 867 471 846 q 578 921 531 889 q 645 944 608 943 q 714 928 682 946 q 761 878 746 911 q 776 808 776 849 q 764 722 776 767 q 729 636 751 676 q 678 569 707 596 q 645 557 660 553 q 611 579 631 561 q 598 607 599 603 q 603 613 597 611 q 625 646 611 622 q 653 697 639 669 q 672 740 667 724 q 688 823 683 799 q 679 860 692 847 q 663 864 674 865 q 629 850 653 863 q 546 788 597 836 q 451 682 494 740 q 358 551 396 608 q 301 435 321 494 q 292 414 299 429 q 286 399 286 399 q 282 372 288 393 q 269 335 276 350 q 251 202 254 271 q 259 81 249 133 q 290 7 269 28 q 340 -1 308 -6 q 411 18 371 3 q 493 51 451 33 q 554 82 526 65 q 596 111 582 99 q 624 128 607 119 q 654 138 642 138 q 676 143 674 144 q 679 131 679 142 q 658 88 679 111 q 603 44 636 64 q 574 21 592 33 q 536 1 556 8 q 464 -42 507 -21 q 377 -74 421 -62 q 297 -78 333 -85 z "},"Ć":{"ha":669,"x_min":158,"x_max":833,"o":"m 297 -78 q 255 -60 276 -69 q 215 -31 233 -50 q 182 21 196 -12 q 163 100 168 61 q 160 190 158 139 q 170 316 160 263 q 203 425 181 369 q 213 449 206 429 q 231 493 221 469 q 247 529 242 517 q 281 592 258 553 q 331 669 304 632 q 397 764 371 729 q 447 822 424 799 q 501 867 471 846 q 578 921 531 889 q 645 944 608 943 q 714 928 682 946 q 761 878 746 911 q 776 808 776 849 q 764 722 776 767 q 729 636 751 676 q 678 569 707 596 q 645 557 660 553 q 611 579 631 561 q 598 607 599 603 q 603 613 597 611 q 625 646 611 622 q 653 697 639 669 q 672 740 667 724 q 688 823 683 799 q 679 860 692 847 q 663 864 674 865 q 629 850 653 863 q 546 788 597 836 q 451 682 494 740 q 358 551 396 608 q 301 435 321 494 q 292 414 299 429 q 286 399 286 399 q 282 372 288 393 q 269 335 276 350 q 251 202 254 271 q 259 81 249 133 q 290 7 269 28 q 340 -1 308 -6 q 411 18 371 3 q 493 51 451 33 q 554 82 526 65 q 596 111 582 99 q 624 128 607 119 q 654 138 642 138 q 676 143 674 144 q 679 131 679 142 q 658 88 679 111 q 603 44 636 64 q 574 21 592 33 q 536 1 556 8 q 464 -42 507 -21 q 377 -74 421 -62 q 297 -78 333 -85 m 654 992 q 640 1021 644 1001 q 636 1046 635 1040 q 655 1074 638 1053 q 696 1119 672 1094 q 741 1164 719 1144 q 772 1188 763 1183 q 801 1184 788 1197 q 829 1149 815 1171 q 819 1119 833 1136 q 781 1082 804 1101 q 734 1044 757 1063 q 700 1010 711 1025 q 678 983 686 988 q 654 992 671 979 z "},"Č":{"ha":669,"x_min":158,"x_max":875,"o":"m 297 -78 q 255 -60 276 -69 q 215 -31 233 -50 q 182 21 196 -12 q 163 100 168 61 q 160 190 158 139 q 170 316 160 263 q 203 425 181 369 q 213 449 206 429 q 231 493 221 469 q 247 529 242 517 q 281 592 258 553 q 331 669 304 632 q 397 764 371 729 q 447 822 424 799 q 501 867 471 846 q 578 921 531 889 q 645 944 608 943 q 714 928 682 946 q 761 878 746 911 q 776 808 776 849 q 764 722 776 767 q 729 636 751 676 q 678 569 707 596 q 645 557 660 553 q 611 579 631 561 q 598 607 599 603 q 603 613 597 611 q 625 646 611 622 q 653 697 639 669 q 672 740 667 724 q 688 823 683 799 q 679 860 692 847 q 663 864 674 865 q 629 850 653 863 q 546 788 597 836 q 451 682 494 740 q 358 551 396 608 q 301 435 321 494 q 292 414 299 429 q 286 399 286 399 q 282 372 288 393 q 269 335 276 350 q 251 202 254 271 q 259 81 249 133 q 290 7 269 28 q 340 -1 308 -6 q 411 18 371 3 q 493 51 451 33 q 554 82 526 65 q 596 111 582 99 q 624 128 607 119 q 654 138 642 138 q 676 143 674 144 q 679 131 679 142 q 658 88 679 111 q 603 44 636 64 q 574 21 592 33 q 536 1 556 8 q 464 -42 507 -21 q 377 -74 421 -62 q 297 -78 333 -85 m 724 997 q 701 990 713 989 q 682 1000 690 990 q 640 1040 665 1015 q 593 1085 614 1064 q 569 1110 572 1106 q 570 1140 565 1124 q 590 1161 575 1157 q 628 1139 606 1165 q 660 1106 638 1125 q 706 1068 683 1088 q 742 1090 722 1078 q 778 1115 761 1103 q 806 1136 796 1128 q 854 1158 839 1161 q 872 1139 869 1154 q 869 1111 875 1124 q 851 1090 868 1106 q 809 1056 833 1074 q 762 1022 785 1038 q 724 997 739 1006 z "},"Ç":{"ha":669,"x_min":158,"x_max":776,"o":"m 297 -78 q 255 -60 276 -69 q 215 -31 233 -50 q 182 21 196 -12 q 163 100 168 61 q 160 190 158 139 q 170 316 160 263 q 203 425 181 369 q 213 449 206 429 q 231 493 221 469 q 247 529 242 517 q 281 592 258 553 q 331 669 304 632 q 397 764 371 729 q 447 822 424 799 q 501 867 471 846 q 578 921 531 889 q 645 944 608 943 q 714 928 682 946 q 761 878 746 911 q 776 808 776 849 q 764 722 776 767 q 729 636 751 676 q 678 569 707 596 q 645 557 660 553 q 611 579 631 561 q 598 607 599 603 q 603 613 597 611 q 625 646 611 622 q 653 697 639 669 q 672 740 667 724 q 688 823 683 799 q 679 860 692 847 q 663 864 674 865 q 629 850 653 863 q 546 788 597 836 q 451 682 494 740 q 358 551 396 608 q 301 435 321 494 q 292 414 299 429 q 286 399 286 399 q 282 372 288 393 q 269 335 276 350 q 251 202 254 271 q 259 81 249 133 q 290 7 269 28 q 340 -1 308 -6 q 411 18 371 3 q 493 51 451 33 q 554 82 526 65 q 596 111 582 99 q 624 128 607 119 q 654 138 642 138 q 676 143 674 144 q 679 131 679 142 q 658 88 679 111 q 603 44 636 64 q 574 21 592 33 q 536 1 556 8 q 464 -42 507 -21 q 377 -74 421 -62 q 297 -78 333 -85 m 329 -347 q 279 -348 308 -351 q 225 -338 250 -344 q 192 -329 200 -332 q 170 -312 175 -324 q 169 -290 165 -301 q 185 -272 174 -278 q 210 -269 196 -265 q 259 -285 232 -276 q 308 -293 286 -293 q 340 -274 331 -293 q 344 -244 350 -258 q 322 -212 338 -229 q 299 -183 313 -200 q 269 -151 285 -165 q 255 -119 258 -135 q 274 -81 251 -103 q 363 -26 296 -60 l 408 -58 q 352 -90 374 -75 q 331 -124 331 -106 q 374 -177 350 -151 q 404 -231 397 -203 q 405 -288 413 -264 q 377 -327 397 -312 q 329 -347 357 -342 z "},"Ĉ":{"ha":669,"x_min":158,"x_max":881,"o":"m 297 -78 q 255 -60 276 -69 q 215 -31 233 -50 q 182 21 196 -12 q 163 100 168 61 q 160 190 158 139 q 170 316 160 263 q 203 425 181 369 q 213 449 206 429 q 231 493 221 469 q 247 529 242 517 q 281 592 258 553 q 331 669 304 632 q 397 764 371 729 q 447 822 424 799 q 501 867 471 846 q 578 921 531 889 q 645 944 608 943 q 714 928 682 946 q 761 878 746 911 q 776 808 776 849 q 764 722 776 767 q 729 636 751 676 q 678 569 707 596 q 645 557 660 553 q 611 579 631 561 q 598 607 599 603 q 603 613 597 611 q 625 646 611 622 q 653 697 639 669 q 672 740 667 724 q 688 823 683 799 q 679 860 692 847 q 663 864 674 865 q 629 850 653 863 q 546 788 597 836 q 451 682 494 740 q 358 551 396 608 q 301 435 321 494 q 292 414 299 429 q 286 399 286 399 q 282 372 288 393 q 269 335 276 350 q 251 202 254 271 q 259 81 249 133 q 290 7 269 28 q 340 -1 308 -6 q 411 18 371 3 q 493 51 451 33 q 554 82 526 65 q 596 111 582 99 q 624 128 607 119 q 654 138 642 138 q 676 143 674 144 q 679 131 679 142 q 658 88 679 111 q 603 44 636 64 q 574 21 592 33 q 536 1 556 8 q 464 -42 507 -21 q 377 -74 421 -62 q 297 -78 333 -85 m 639 1014 q 599 994 615 990 q 578 1015 582 997 q 589 1051 574 1032 q 608 1071 593 1057 q 644 1103 624 1085 q 685 1136 664 1121 q 719 1160 706 1151 q 743 1170 732 1171 q 763 1157 754 1169 q 803 1119 779 1143 q 849 1074 828 1094 q 872 1049 869 1053 q 880 1023 881 1038 q 870 999 879 1008 q 847 992 861 989 q 814 1018 833 996 q 782 1052 804 1031 q 739 1092 760 1074 q 702 1067 722 1082 q 665 1037 682 1051 q 639 1014 649 1022 z "},"Ċ":{"ha":669,"x_min":158,"x_max":790,"o":"m 297 -78 q 255 -60 276 -69 q 215 -31 233 -50 q 182 21 196 -12 q 163 100 168 61 q 160 190 158 139 q 170 316 160 263 q 203 425 181 369 q 213 449 206 429 q 231 493 221 469 q 247 529 242 517 q 281 592 258 553 q 331 669 304 632 q 397 764 371 729 q 447 822 424 799 q 501 867 471 846 q 578 921 531 889 q 645 944 608 943 q 714 928 682 946 q 761 878 746 911 q 776 808 776 849 q 764 722 776 767 q 729 636 751 676 q 678 569 707 596 q 645 557 660 553 q 611 579 631 561 q 598 607 599 603 q 603 613 597 611 q 625 646 611 622 q 653 697 639 669 q 672 740 667 724 q 688 823 683 799 q 679 860 692 847 q 663 864 674 865 q 629 850 653 863 q 546 788 597 836 q 451 682 494 740 q 358 551 396 608 q 301 435 321 494 q 292 414 299 429 q 286 399 286 399 q 282 372 288 393 q 269 335 276 350 q 251 202 254 271 q 259 81 249 133 q 290 7 269 28 q 340 -1 308 -6 q 411 18 371 3 q 493 51 451 33 q 554 82 526 65 q 596 111 582 99 q 624 128 607 119 q 654 138 642 138 q 676 143 674 144 q 679 131 679 142 q 658 88 679 111 q 603 44 636 64 q 574 21 592 33 q 536 1 556 8 q 464 -42 507 -21 q 377 -74 421 -62 q 297 -78 333 -85 m 679 1025 q 663 1054 669 1035 q 658 1079 657 1074 q 669 1108 661 1086 q 696 1144 678 1129 q 705 1153 700 1147 q 715 1161 710 1160 q 748 1165 732 1172 q 778 1135 764 1157 q 785 1091 790 1108 q 754 1043 779 1074 q 716 1013 733 1015 q 679 1025 699 1010 z "},"D":{"ha":803,"x_min":110,"x_max":903,"o":"m 313 -132 q 264 -137 286 -136 q 199 -126 242 -137 q 167 -110 176 -119 q 138 -74 158 -100 q 116 -33 122 -51 q 114 -3 110 -14 q 132 3 118 7 q 145 -6 136 1 q 163 -25 154 -14 q 210 -53 182 -46 q 283 -54 238 -60 q 331 -42 303 -50 q 385 -24 358 -35 q 426 -1 411 -12 q 544 78 500 49 q 589 107 589 107 q 599 116 592 113 q 618 124 607 119 q 645 150 626 132 q 681 186 664 168 q 703 207 699 204 q 708 227 706 219 q 711 243 711 235 q 741 290 722 254 q 779 369 760 325 q 807 449 799 413 q 817 613 826 546 q 777 727 807 679 q 703 813 747 775 q 660 840 688 825 q 604 865 633 854 q 553 883 575 876 q 528 889 532 890 q 505 845 522 888 q 464 738 488 803 q 413 599 440 672 q 363 460 386 525 q 344 404 354 433 q 328 353 335 375 q 321 325 321 332 q 297 263 306 301 q 276 133 288 224 q 258 62 264 86 q 247 39 253 38 q 247 38 247 39 q 242 33 246 38 q 231 25 242 25 q 205 31 219 25 q 182 46 190 38 q 177 75 178 61 q 188 129 176 89 q 205 194 194 156 q 228 273 215 232 q 251 349 240 314 q 268 401 263 383 q 296 490 278 425 q 319 563 307 526 q 342 627 331 599 q 357 664 353 656 q 378 725 364 682 q 414 821 392 768 l 424 867 l 408 874 q 383 870 392 868 q 371 874 374 872 q 347 878 363 871 q 320 896 332 885 q 306 915 308 907 q 302 930 303 921 q 301 939 301 939 q 322 955 303 947 q 373 968 342 963 q 441 976 404 974 q 513 975 478 978 q 581 960 549 972 q 650 933 613 947 q 744 876 694 917 q 834 779 793 835 q 889 663 875 724 q 897 615 893 646 q 902 556 901 585 q 896 519 903 528 q 892 506 893 514 q 897 496 892 499 q 888 465 896 492 q 872 418 879 438 q 856 343 869 382 q 825 270 842 304 q 794 213 808 236 q 784 210 789 213 q 785 207 779 208 q 769 181 785 200 q 752 160 764 176 q 733 139 740 144 q 725 123 732 129 q 713 117 718 117 q 710 117 713 117 q 708 111 708 117 q 674 72 697 94 q 620 24 650 49 q 559 -21 590 0 q 500 -53 528 -42 q 471 -69 486 -62 q 442 -82 456 -75 q 411 -98 435 -87 q 360 -118 388 -108 q 313 -132 333 -128 z "},"Ð":{"ha":803,"x_min":110,"x_max":903,"o":"m 313 -132 q 264 -137 286 -136 q 199 -126 242 -137 q 176 -117 185 -122 q 160 -101 168 -111 q 138 -74 151 -90 q 113 -16 115 -42 q 132 3 110 10 q 145 -6 136 1 q 163 -25 154 -14 q 210 -53 182 -46 q 283 -54 238 -60 q 331 -42 303 -50 q 385 -24 358 -35 q 426 -1 411 -12 q 544 78 500 49 q 589 107 589 107 q 599 116 592 113 q 618 124 607 119 q 645 150 626 132 q 681 186 664 168 q 703 207 699 204 q 708 227 706 219 q 711 243 711 235 q 741 290 722 254 q 779 369 760 325 q 807 449 799 413 q 817 613 826 546 q 777 727 807 679 q 703 813 747 775 q 660 840 688 825 q 604 865 633 854 q 553 883 575 876 q 528 889 532 890 q 508 849 524 888 q 469 751 492 811 q 421 621 446 690 q 372 488 396 551 l 397 488 q 442 485 429 488 q 469 471 454 482 q 483 433 488 450 q 447 418 478 415 q 413 415 438 417 q 364 414 389 414 q 357 414 361 414 q 349 413 353 414 q 330 357 339 382 q 321 325 321 332 q 297 263 306 301 q 276 133 288 224 q 258 62 264 86 q 247 39 253 38 l 242 33 q 231 25 242 25 q 205 31 219 25 q 182 46 190 38 q 177 75 178 61 q 188 129 176 89 q 205 194 194 156 q 228 273 215 232 q 251 349 240 314 q 268 401 263 383 q 269 405 269 403 q 271 408 269 407 l 250 408 q 230 409 242 408 q 206 414 218 410 q 178 417 185 414 q 165 431 171 421 q 164 459 153 451 q 222 472 175 467 q 259 478 242 475 q 293 482 276 481 q 294 487 294 485 q 296 490 294 489 q 319 563 307 526 q 342 627 331 599 q 357 664 353 656 q 378 725 364 682 q 414 821 392 768 l 424 867 l 408 874 q 383 870 392 868 q 371 874 374 872 q 347 878 363 871 q 320 896 332 885 q 306 915 308 907 q 302 930 303 921 q 301 939 301 939 q 336 960 303 950 q 417 974 369 969 q 513 975 465 979 q 581 960 549 972 q 650 933 613 947 q 744 876 694 917 q 834 779 793 835 q 889 663 875 724 q 897 615 893 646 q 902 556 901 585 q 896 519 903 528 q 892 506 893 514 q 897 496 892 499 q 888 465 896 492 q 872 418 879 438 q 856 343 869 382 q 825 270 842 304 q 794 213 808 236 q 784 210 789 213 q 785 207 779 208 q 781 197 785 201 q 769 181 778 192 q 752 160 764 176 q 733 139 740 144 q 725 123 732 129 q 713 117 718 117 q 710 117 713 117 q 708 111 708 117 q 674 72 697 94 q 620 24 650 49 q 559 -21 590 0 q 500 -53 528 -42 q 471 -69 486 -62 q 442 -82 456 -75 q 411 -98 435 -87 q 360 -118 388 -108 q 313 -132 333 -128 z "},"Ď":{"ha":803,"x_min":110,"x_max":942,"o":"m 313 -132 q 264 -137 286 -136 q 199 -126 242 -137 q 167 -110 176 -119 q 138 -74 158 -100 q 116 -33 122 -51 q 114 -3 110 -14 q 132 3 118 7 q 145 -6 136 1 q 163 -25 154 -14 q 210 -53 182 -46 q 283 -54 238 -60 q 331 -42 303 -50 q 385 -24 358 -35 q 426 -1 411 -12 q 544 78 500 49 q 589 107 589 107 q 599 116 592 113 q 618 124 607 119 q 645 150 626 132 q 681 186 664 168 q 703 207 699 204 q 708 227 706 219 q 711 243 711 235 q 741 290 722 254 q 779 369 760 325 q 807 449 799 413 q 817 613 826 546 q 777 727 807 679 q 703 813 747 775 q 660 840 688 825 q 604 865 633 854 q 553 883 575 876 q 528 889 532 890 q 505 845 522 888 q 464 738 488 803 q 413 599 440 672 q 363 460 386 525 q 344 404 354 433 q 328 353 335 375 q 321 325 321 332 q 297 263 306 301 q 276 133 288 224 q 258 62 264 86 q 247 39 253 38 q 247 38 247 39 q 242 33 246 38 q 231 25 242 25 q 205 31 219 25 q 182 46 190 38 q 177 75 178 61 q 188 129 176 89 q 205 194 194 156 q 228 273 215 232 q 251 349 240 314 q 268 401 263 383 q 296 490 278 425 q 319 563 307 526 q 342 627 331 599 q 357 664 353 656 q 378 725 364 682 q 414 821 392 768 l 424 867 l 408 874 q 383 870 392 868 q 371 874 374 872 q 347 878 363 871 q 320 896 332 885 q 306 915 308 907 q 302 930 303 921 q 301 939 301 939 q 322 955 303 947 q 373 968 342 963 q 441 976 404 974 q 513 975 478 978 q 581 960 549 972 q 650 933 613 947 q 744 876 694 917 q 834 779 793 835 q 889 663 875 724 q 897 615 893 646 q 902 556 901 585 q 896 519 903 528 q 892 506 893 514 q 897 496 892 499 q 888 465 896 492 q 872 418 879 438 q 856 343 869 382 q 825 270 842 304 q 794 213 808 236 q 784 210 789 213 q 785 207 779 208 q 769 181 785 200 q 752 160 764 176 q 733 139 740 144 q 725 123 732 129 q 713 117 718 117 q 710 117 713 117 q 708 111 708 117 q 674 72 697 94 q 620 24 650 49 q 559 -21 590 0 q 500 -53 528 -42 q 471 -69 486 -62 q 442 -82 456 -75 q 411 -98 435 -87 q 360 -118 388 -108 q 313 -132 333 -128 m 790 997 q 768 990 779 989 q 749 1000 757 990 q 706 1040 732 1015 q 660 1085 681 1064 q 636 1110 639 1106 q 637 1140 632 1124 q 657 1161 642 1157 q 694 1139 672 1165 q 727 1106 704 1125 q 772 1068 750 1088 q 808 1090 789 1078 q 845 1115 828 1103 q 872 1136 863 1128 q 921 1158 906 1161 q 939 1139 936 1154 q 936 1111 942 1124 q 917 1090 935 1106 q 876 1056 900 1074 q 828 1022 851 1038 q 790 997 806 1006 z "},"Đ":{"ha":803,"x_min":110,"x_max":903,"o":"m 313 -132 q 264 -137 286 -136 q 199 -126 242 -137 q 176 -117 185 -122 q 160 -101 168 -111 q 138 -74 151 -90 q 113 -16 115 -42 q 132 3 110 10 q 145 -6 136 1 q 163 -25 154 -14 q 210 -53 182 -46 q 283 -54 238 -60 q 331 -42 303 -50 q 385 -24 358 -35 q 426 -1 411 -12 q 544 78 500 49 q 589 107 589 107 q 599 116 592 113 q 618 124 607 119 q 645 150 626 132 q 681 186 664 168 q 703 207 699 204 q 708 227 706 219 q 711 243 711 235 q 741 290 722 254 q 779 369 760 325 q 807 449 799 413 q 817 613 826 546 q 777 727 807 679 q 703 813 747 775 q 660 840 688 825 q 604 865 633 854 q 553 883 575 876 q 528 889 532 890 q 508 849 524 888 q 469 751 492 811 q 421 621 446 690 q 372 488 396 551 l 397 488 q 442 485 429 488 q 469 471 454 482 q 483 433 488 450 q 447 418 478 415 q 413 415 438 417 q 364 414 389 414 q 357 414 361 414 q 349 413 353 414 q 330 357 339 382 q 321 325 321 332 q 297 263 306 301 q 276 133 288 224 q 258 62 264 86 q 247 39 253 38 l 242 33 q 231 25 242 25 q 205 31 219 25 q 182 46 190 38 q 177 75 178 61 q 188 129 176 89 q 205 194 194 156 q 228 273 215 232 q 251 349 240 314 q 268 401 263 383 q 269 405 269 403 q 271 408 269 407 l 250 408 q 230 409 242 408 q 206 414 218 410 q 178 417 185 414 q 165 431 171 421 q 164 459 153 451 q 222 472 175 467 q 259 478 242 475 q 293 482 276 481 q 294 487 294 485 q 296 490 294 489 q 319 563 307 526 q 342 627 331 599 q 357 664 353 656 q 378 725 364 682 q 414 821 392 768 l 424 867 l 408 874 q 383 870 392 868 q 371 874 374 872 q 347 878 363 871 q 320 896 332 885 q 306 915 308 907 q 302 930 303 921 q 301 939 301 939 q 336 960 303 950 q 417 974 369 969 q 513 975 465 979 q 581 960 549 972 q 650 933 613 947 q 744 876 694 917 q 834 779 793 835 q 889 663 875 724 q 897 615 893 646 q 902 556 901 585 q 896 519 903 528 q 892 506 893 514 q 897 496 892 499 q 888 465 896 492 q 872 418 879 438 q 856 343 869 382 q 825 270 842 304 q 794 213 808 236 q 784 210 789 213 q 785 207 779 208 q 781 197 785 201 q 769 181 778 192 q 752 160 764 176 q 733 139 740 144 q 725 123 732 129 q 713 117 718 117 q 710 117 713 117 q 708 111 708 117 q 674 72 697 94 q 620 24 650 49 q 559 -21 590 0 q 500 -53 528 -42 q 471 -69 486 -62 q 442 -82 456 -75 q 411 -98 435 -87 q 360 -118 388 -108 q 313 -132 333 -128 z "},"Ḍ":{"ha":803,"x_min":110,"x_max":903,"o":"m 313 -132 q 264 -137 286 -136 q 199 -126 242 -137 q 167 -110 176 -119 q 138 -74 158 -100 q 116 -33 122 -51 q 114 -3 110 -14 q 132 3 118 7 q 145 -6 136 1 q 163 -25 154 -14 q 210 -53 182 -46 q 283 -54 238 -60 q 331 -42 303 -50 q 385 -24 358 -35 q 426 -1 411 -12 q 544 78 500 49 q 589 107 589 107 q 599 116 592 113 q 618 124 607 119 q 645 150 626 132 q 681 186 664 168 q 703 207 699 204 q 708 227 706 219 q 711 243 711 235 q 741 290 722 254 q 779 369 760 325 q 807 449 799 413 q 817 613 826 546 q 777 727 807 679 q 703 813 747 775 q 660 840 688 825 q 604 865 633 854 q 553 883 575 876 q 528 889 532 890 q 505 845 522 888 q 464 738 488 803 q 413 599 440 672 q 363 460 386 525 q 344 404 354 433 q 328 353 335 375 q 321 325 321 332 q 297 263 306 301 q 276 133 288 224 q 258 62 264 86 q 247 39 253 38 q 247 38 247 39 q 242 33 246 38 q 231 25 242 25 q 205 31 219 25 q 182 46 190 38 q 177 75 178 61 q 188 129 176 89 q 205 194 194 156 q 228 273 215 232 q 251 349 240 314 q 268 401 263 383 q 296 490 278 425 q 319 563 307 526 q 342 627 331 599 q 357 664 353 656 q 378 725 364 682 q 414 821 392 768 l 424 867 l 408 874 q 383 870 392 868 q 371 874 374 872 q 347 878 363 871 q 320 896 332 885 q 306 915 308 907 q 302 930 303 921 q 301 939 301 939 q 322 955 303 947 q 373 968 342 963 q 441 976 404 974 q 513 975 478 978 q 581 960 549 972 q 650 933 613 947 q 744 876 694 917 q 834 779 793 835 q 889 663 875 724 q 897 615 893 646 q 902 556 901 585 q 896 519 903 528 q 892 506 893 514 q 897 496 892 499 q 888 465 896 492 q 872 418 879 438 q 856 343 869 382 q 825 270 842 304 q 794 213 808 236 q 784 210 789 213 q 785 207 779 208 q 769 181 785 200 q 752 160 764 176 q 733 139 740 144 q 725 123 732 129 q 713 117 718 117 q 710 117 713 117 q 708 111 708 117 q 674 72 697 94 q 620 24 650 49 q 559 -21 590 0 q 500 -53 528 -42 q 471 -69 486 -62 q 442 -82 456 -75 q 411 -98 435 -87 q 360 -118 388 -108 q 313 -132 333 -128 m 326 -300 q 311 -277 317 -290 q 307 -258 306 -264 q 317 -231 310 -251 q 332 -206 324 -211 q 341 -197 336 -203 q 351 -189 346 -190 q 382 -185 368 -178 q 401 -214 396 -193 q 410 -247 414 -232 q 390 -282 406 -261 q 353 -312 369 -310 q 326 -300 338 -315 z "},"E":{"ha":735,"x_min":111,"x_max":885,"o":"m 321 -33 q 245 -7 278 -31 q 176 42 213 17 q 139 92 153 65 q 117 164 125 119 q 117 231 111 190 q 135 312 122 271 q 158 378 147 353 q 201 462 175 417 q 252 548 226 507 q 293 614 278 589 q 302 624 303 624 q 301 625 301 625 q 316 660 301 632 q 342 711 331 689 q 365 747 363 733 q 361 769 368 761 q 371 789 358 775 q 408 821 383 803 q 465 857 433 839 q 530 885 499 883 q 567 872 561 888 q 583 870 567 868 q 620 877 599 872 q 658 885 642 882 q 691 898 665 893 q 751 907 717 903 q 787 906 769 906 q 816 908 804 907 q 828 910 828 910 q 851 907 838 913 q 875 876 864 901 q 869 839 885 851 q 796 819 853 826 q 724 810 754 814 q 660 802 693 807 q 578 786 626 797 q 521 770 543 779 q 482 744 499 761 q 444 694 465 726 q 419 658 435 688 q 389 600 404 629 q 322 506 350 546 q 299 460 293 467 q 314 456 299 460 q 335 451 329 451 q 369 461 349 458 q 401 467 389 464 q 537 501 488 489 q 612 520 586 514 q 651 528 638 526 q 690 533 671 543 q 719 503 708 524 q 720 476 726 488 q 685 454 714 465 q 601 428 657 443 q 456 388 546 413 q 325 361 379 365 q 274 385 271 357 q 252 372 264 390 q 229 321 240 353 q 210 253 218 289 q 201 185 203 217 q 204 139 199 154 q 233 88 215 107 q 299 56 251 69 q 353 51 326 54 q 413 63 379 49 q 542 92 494 76 q 596 113 589 107 q 610 119 607 118 q 621 119 614 119 q 624 119 617 113 q 646 139 632 125 q 686 165 661 153 q 731 185 711 178 q 753 185 751 192 q 750 147 761 171 q 710 94 739 122 q 635 39 681 65 q 475 -16 561 0 q 321 -33 389 -32 z "},"É":{"ha":761,"x_min":111,"x_max":885,"o":"m 321 -33 q 245 -7 278 -31 q 176 42 213 17 q 139 92 153 65 q 117 164 125 119 q 117 231 111 190 q 135 312 122 271 q 158 378 147 353 q 201 462 175 417 q 252 548 226 507 q 293 614 278 589 q 302 624 303 624 q 301 625 301 625 q 316 660 301 632 q 342 711 331 689 q 365 747 363 733 q 361 769 368 761 q 371 789 358 775 q 408 821 383 803 q 465 857 433 839 q 530 885 499 883 q 567 872 561 888 q 583 870 567 868 q 620 877 599 872 q 658 885 642 882 q 691 898 665 893 q 751 907 717 903 q 787 906 769 906 q 816 908 804 907 q 828 910 828 910 q 851 907 838 913 q 875 876 864 901 q 869 839 885 851 q 796 819 853 826 q 724 810 754 814 q 660 802 693 807 q 578 786 626 797 q 521 770 543 779 q 482 744 499 761 q 444 694 465 726 q 419 658 435 688 q 389 600 404 629 q 322 506 350 546 q 299 460 293 467 q 314 456 299 460 q 335 451 329 451 q 369 461 349 458 q 401 467 389 464 q 537 501 488 489 q 612 520 586 514 q 651 528 638 526 q 690 533 671 543 q 719 503 708 524 q 720 476 726 488 q 685 454 714 465 q 601 428 657 443 q 456 388 546 413 q 325 361 379 365 q 274 385 271 357 q 252 372 264 390 q 229 321 240 353 q 210 253 218 289 q 201 185 203 217 q 204 139 199 154 q 233 88 215 107 q 299 56 251 69 q 353 51 326 54 q 413 63 379 49 q 542 92 494 76 q 596 113 589 107 q 610 119 607 118 q 621 119 614 119 q 624 119 617 113 q 646 139 632 125 q 686 165 661 153 q 731 185 711 178 q 753 185 751 192 q 750 147 761 171 q 710 94 739 122 q 635 39 681 65 q 475 -16 561 0 q 321 -33 389 -32 m 701 992 q 687 1021 692 1001 q 683 1046 682 1040 q 702 1074 685 1053 q 743 1119 719 1094 q 788 1164 767 1144 q 819 1188 810 1183 q 849 1184 835 1197 q 876 1149 863 1171 q 866 1119 881 1136 q 828 1082 851 1101 q 781 1044 804 1063 q 747 1010 758 1025 q 726 983 733 988 q 701 992 718 979 z "},"Ĕ":{"ha":761,"x_min":111,"x_max":933,"o":"m 321 -33 q 245 -7 278 -31 q 176 42 213 17 q 139 92 153 65 q 117 164 125 119 q 117 231 111 190 q 135 312 122 271 q 158 378 147 353 q 201 462 175 417 q 252 548 226 507 q 293 614 278 589 q 302 624 303 624 q 301 625 301 625 q 316 660 301 632 q 342 711 331 689 q 365 747 363 733 q 361 769 368 761 q 371 789 358 775 q 408 821 383 803 q 465 857 433 839 q 530 885 499 883 q 567 872 561 888 q 583 870 567 868 q 620 877 599 872 q 658 885 642 882 q 691 898 665 893 q 751 907 717 903 q 787 906 769 906 q 816 908 804 907 q 828 910 828 910 q 851 907 838 913 q 875 876 864 901 q 869 839 885 851 q 796 819 853 826 q 724 810 754 814 q 660 802 693 807 q 578 786 626 797 q 521 770 543 779 q 482 744 499 761 q 444 694 465 726 q 419 658 435 688 q 389 600 404 629 q 322 506 350 546 q 299 460 293 467 q 314 456 299 460 q 335 451 329 451 q 369 461 349 458 q 401 467 389 464 q 537 501 488 489 q 612 520 586 514 q 651 528 638 526 q 690 533 671 543 q 719 503 708 524 q 720 476 726 488 q 685 454 714 465 q 601 428 657 443 q 456 388 546 413 q 325 361 379 365 q 274 385 271 357 q 252 372 264 390 q 229 321 240 353 q 210 253 218 289 q 201 185 203 217 q 204 139 199 154 q 233 88 215 107 q 299 56 251 69 q 353 51 326 54 q 413 63 379 49 q 542 92 494 76 q 596 113 589 107 q 610 119 607 118 q 621 119 614 119 q 624 119 617 113 q 646 139 632 125 q 686 165 661 153 q 731 185 711 178 q 753 185 751 192 q 750 147 761 171 q 710 94 739 122 q 635 39 681 65 q 475 -16 561 0 q 321 -33 389 -32 m 746 974 q 671 997 701 978 q 628 1049 640 1017 q 624 1122 617 1081 q 640 1161 628 1147 q 666 1176 653 1175 q 687 1165 679 1176 q 688 1131 694 1154 q 686 1092 683 1115 q 707 1051 689 1068 q 767 1035 725 1033 q 805 1053 785 1036 q 842 1092 825 1069 q 868 1128 860 1114 q 896 1160 883 1154 q 917 1158 908 1165 q 930 1137 926 1150 q 931 1114 933 1124 q 912 1077 926 1101 q 873 1028 897 1053 q 816 987 849 1003 q 746 974 783 971 z "},"Ě":{"ha":761,"x_min":111,"x_max":922,"o":"m 321 -33 q 245 -7 278 -31 q 176 42 213 17 q 139 92 153 65 q 117 164 125 119 q 117 231 111 190 q 135 312 122 271 q 158 378 147 353 q 201 462 175 417 q 252 548 226 507 q 293 614 278 589 q 302 624 303 624 q 301 625 301 625 q 316 660 301 632 q 342 711 331 689 q 365 747 363 733 q 361 769 368 761 q 371 789 358 775 q 408 821 383 803 q 465 857 433 839 q 530 885 499 883 q 567 872 561 888 q 583 870 567 868 q 620 877 599 872 q 658 885 642 882 q 691 898 665 893 q 751 907 717 903 q 787 906 769 906 q 816 908 804 907 q 828 910 828 910 q 851 907 838 913 q 875 876 864 901 q 869 839 885 851 q 796 819 853 826 q 724 810 754 814 q 660 802 693 807 q 578 786 626 797 q 521 770 543 779 q 482 744 499 761 q 444 694 465 726 q 419 658 435 688 q 389 600 404 629 q 322 506 350 546 q 299 460 293 467 q 314 456 299 460 q 335 451 329 451 q 369 461 349 458 q 401 467 389 464 q 537 501 488 489 q 612 520 586 514 q 651 528 638 526 q 690 533 671 543 q 719 503 708 524 q 720 476 726 488 q 685 454 714 465 q 601 428 657 443 q 456 388 546 413 q 325 361 379 365 q 274 385 271 357 q 252 372 264 390 q 229 321 240 353 q 210 253 218 289 q 201 185 203 217 q 204 139 199 154 q 233 88 215 107 q 299 56 251 69 q 353 51 326 54 q 413 63 379 49 q 542 92 494 76 q 596 113 589 107 q 610 119 607 118 q 621 119 614 119 q 624 119 617 113 q 646 139 632 125 q 686 165 661 153 q 731 185 711 178 q 753 185 751 192 q 750 147 761 171 q 710 94 739 122 q 635 39 681 65 q 475 -16 561 0 q 321 -33 389 -32 m 771 997 q 749 990 760 989 q 729 1000 738 990 q 687 1040 713 1015 q 640 1085 661 1064 q 617 1110 619 1106 q 617 1140 613 1124 q 638 1161 622 1157 q 675 1139 653 1165 q 708 1106 685 1125 q 753 1068 731 1088 q 789 1090 769 1078 q 826 1115 808 1103 q 853 1136 843 1128 q 901 1158 886 1161 q 919 1139 917 1154 q 917 1111 922 1124 q 898 1090 915 1106 q 856 1056 881 1074 q 809 1022 832 1038 q 771 997 786 1006 z "},"Ê":{"ha":761,"x_min":111,"x_max":928,"o":"m 321 -33 q 245 -7 278 -31 q 176 42 213 17 q 139 92 153 65 q 117 164 125 119 q 117 231 111 190 q 135 312 122 271 q 158 378 147 353 q 201 462 175 417 q 252 548 226 507 q 293 614 278 589 q 302 624 303 624 q 301 625 301 625 q 316 660 301 632 q 342 711 331 689 q 365 747 363 733 q 361 769 368 761 q 371 789 358 775 q 408 821 383 803 q 465 857 433 839 q 530 885 499 883 q 567 872 561 888 q 583 870 567 868 q 620 877 599 872 q 658 885 642 882 q 691 898 665 893 q 751 907 717 903 q 787 906 769 906 q 816 908 804 907 q 828 910 828 910 q 851 907 838 913 q 875 876 864 901 q 869 839 885 851 q 796 819 853 826 q 724 810 754 814 q 660 802 693 807 q 578 786 626 797 q 521 770 543 779 q 482 744 499 761 q 444 694 465 726 q 419 658 435 688 q 389 600 404 629 q 322 506 350 546 q 299 460 293 467 q 314 456 299 460 q 335 451 329 451 q 369 461 349 458 q 401 467 389 464 q 537 501 488 489 q 612 520 586 514 q 651 528 638 526 q 690 533 671 543 q 719 503 708 524 q 720 476 726 488 q 685 454 714 465 q 601 428 657 443 q 456 388 546 413 q 325 361 379 365 q 274 385 271 357 q 252 372 264 390 q 229 321 240 353 q 210 253 218 289 q 201 185 203 217 q 204 139 199 154 q 233 88 215 107 q 299 56 251 69 q 353 51 326 54 q 413 63 379 49 q 542 92 494 76 q 596 113 589 107 q 610 119 607 118 q 621 119 614 119 q 624 119 617 113 q 646 139 632 125 q 686 165 661 153 q 731 185 711 178 q 753 185 751 192 q 750 147 761 171 q 710 94 739 122 q 635 39 681 65 q 475 -16 561 0 q 321 -33 389 -32 m 686 1014 q 646 994 663 990 q 625 1015 629 997 q 636 1051 621 1032 q 656 1071 640 1057 q 691 1103 671 1085 q 732 1136 711 1121 q 767 1160 753 1151 q 790 1170 779 1171 q 810 1157 801 1169 q 851 1119 826 1143 q 896 1074 875 1094 q 919 1049 917 1053 q 927 1023 928 1038 q 917 999 926 1008 q 894 992 908 989 q 861 1018 881 996 q 829 1052 851 1031 q 786 1092 807 1074 q 749 1067 769 1082 q 713 1037 729 1051 q 686 1014 696 1022 z "},"Ȅ":{"ha":761,"x_min":111,"x_max":885,"o":"m 321 -33 q 245 -7 278 -31 q 176 42 213 17 q 139 92 153 65 q 117 164 125 119 q 117 231 111 190 q 135 312 122 271 q 158 378 147 353 q 201 462 175 417 q 252 548 226 507 q 293 614 278 589 q 302 624 303 624 q 301 625 301 625 q 316 660 301 632 q 342 711 331 689 q 365 747 363 733 q 361 769 368 761 q 371 789 358 775 q 408 821 383 803 q 465 857 433 839 q 530 885 499 883 q 567 872 561 888 q 583 870 567 868 q 620 877 599 872 q 658 885 642 882 q 691 898 665 893 q 751 907 717 903 q 787 906 769 906 q 816 908 804 907 q 828 910 828 910 q 851 907 838 913 q 875 876 864 901 q 869 839 885 851 q 796 819 853 826 q 724 810 754 814 q 660 802 693 807 q 578 786 626 797 q 521 770 543 779 q 482 744 499 761 q 444 694 465 726 q 419 658 435 688 q 389 600 404 629 q 322 506 350 546 q 299 460 293 467 q 314 456 299 460 q 335 451 329 451 q 369 461 349 458 q 401 467 389 464 q 537 501 488 489 q 612 520 586 514 q 651 528 638 526 q 690 533 671 543 q 719 503 708 524 q 720 476 726 488 q 685 454 714 465 q 601 428 657 443 q 456 388 546 413 q 325 361 379 365 q 274 385 271 357 q 252 372 264 390 q 229 321 240 353 q 210 253 218 289 q 201 185 203 217 q 204 139 199 154 q 233 88 215 107 q 299 56 251 69 q 353 51 326 54 q 413 63 379 49 q 542 92 494 76 q 596 113 589 107 q 610 119 607 118 q 621 119 614 119 q 624 119 617 113 q 646 139 632 125 q 686 165 661 153 q 731 185 711 178 q 753 185 751 192 q 750 147 761 171 q 710 94 739 122 q 635 39 681 65 q 475 -16 561 0 q 321 -33 389 -32 m 635 999 q 615 997 621 992 q 600 1024 608 1001 q 577 1059 593 1039 q 545 1101 561 1079 q 520 1140 529 1122 q 517 1164 511 1157 q 546 1191 531 1183 q 571 1192 561 1199 q 594 1165 579 1186 q 625 1117 610 1143 q 651 1069 640 1090 q 663 1044 663 1049 q 660 1033 664 1042 q 649 1014 656 1024 q 635 999 643 1004 m 800 999 q 778 997 785 992 q 764 1024 772 1001 q 741 1059 757 1039 q 709 1101 725 1079 q 684 1140 693 1122 q 681 1164 675 1157 q 711 1191 697 1183 q 735 1192 725 1199 q 758 1165 743 1186 q 790 1117 774 1143 q 816 1069 806 1090 q 826 1044 826 1049 q 819 1023 828 1040 q 800 999 811 1006 z "},"Ë":{"ha":761,"x_min":111,"x_max":921,"o":"m 321 -33 q 245 -7 278 -31 q 176 42 213 17 q 139 92 153 65 q 117 164 125 119 q 117 231 111 190 q 135 312 122 271 q 158 378 147 353 q 201 462 175 417 q 252 548 226 507 q 293 614 278 589 q 302 624 303 624 q 301 625 301 625 q 316 660 301 632 q 342 711 331 689 q 365 747 363 733 q 361 769 368 761 q 371 789 358 775 q 408 821 383 803 q 465 857 433 839 q 530 885 499 883 q 567 872 561 888 q 583 870 567 868 q 620 877 599 872 q 658 885 642 882 q 691 898 665 893 q 751 907 717 903 q 787 906 769 906 q 816 908 804 907 q 828 910 828 910 q 851 907 838 913 q 875 876 864 901 q 869 839 885 851 q 796 819 853 826 q 724 810 754 814 q 660 802 693 807 q 578 786 626 797 q 521 770 543 779 q 482 744 499 761 q 444 694 465 726 q 419 658 435 688 q 389 600 404 629 q 322 506 350 546 q 299 460 293 467 q 314 456 299 460 q 335 451 329 451 q 369 461 349 458 q 401 467 389 464 q 537 501 488 489 q 612 520 586 514 q 651 528 638 526 q 690 533 671 543 q 719 503 708 524 q 720 476 726 488 q 685 454 714 465 q 601 428 657 443 q 456 388 546 413 q 325 361 379 365 q 274 385 271 357 q 252 372 264 390 q 229 321 240 353 q 210 253 218 289 q 201 185 203 217 q 204 139 199 154 q 233 88 215 107 q 299 56 251 69 q 353 51 326 54 q 413 63 379 49 q 542 92 494 76 q 596 113 589 107 q 610 119 607 118 q 621 119 614 119 q 624 119 617 113 q 646 139 632 125 q 686 165 661 153 q 731 185 711 178 q 753 185 751 192 q 750 147 761 171 q 710 94 739 122 q 635 39 681 65 q 475 -16 561 0 q 321 -33 389 -32 m 828 1042 q 812 1066 818 1051 q 807 1086 806 1081 q 817 1113 810 1093 q 835 1142 825 1133 q 844 1151 839 1144 q 856 1158 850 1157 q 887 1163 872 1171 q 908 1132 901 1154 q 917 1098 921 1113 q 894 1060 913 1083 q 857 1028 874 1031 q 828 1042 840 1025 m 649 1042 q 633 1066 639 1051 q 628 1086 626 1081 q 638 1113 631 1093 q 656 1142 646 1133 q 665 1151 660 1144 q 675 1158 669 1157 q 697 1165 686 1167 q 716 1156 707 1164 q 729 1132 725 1147 q 738 1098 742 1113 q 715 1060 733 1083 q 676 1028 693 1031 q 649 1042 660 1025 z "},"Ė":{"ha":761,"x_min":111,"x_max":885,"o":"m 321 -33 q 245 -7 278 -31 q 176 42 213 17 q 139 92 153 65 q 117 164 125 119 q 117 231 111 190 q 135 312 122 271 q 158 378 147 353 q 201 462 175 417 q 252 548 226 507 q 293 614 278 589 q 302 624 303 624 q 301 625 301 625 q 316 660 301 632 q 342 711 331 689 q 365 747 363 733 q 361 769 368 761 q 371 789 358 775 q 408 821 383 803 q 465 857 433 839 q 530 885 499 883 q 567 872 561 888 q 583 870 567 868 q 620 877 599 872 q 658 885 642 882 q 691 898 665 893 q 751 907 717 903 q 787 906 769 906 q 816 908 804 907 q 828 910 828 910 q 851 907 838 913 q 875 876 864 901 q 869 839 885 851 q 796 819 853 826 q 724 810 754 814 q 660 802 693 807 q 578 786 626 797 q 521 770 543 779 q 482 744 499 761 q 444 694 465 726 q 419 658 435 688 q 389 600 404 629 q 322 506 350 546 q 299 460 293 467 q 314 456 299 460 q 335 451 329 451 q 369 461 349 458 q 401 467 389 464 q 537 501 488 489 q 612 520 586 514 q 651 528 638 526 q 690 533 671 543 q 719 503 708 524 q 720 476 726 488 q 685 454 714 465 q 601 428 657 443 q 456 388 546 413 q 325 361 379 365 q 274 385 271 357 q 252 372 264 390 q 229 321 240 353 q 210 253 218 289 q 201 185 203 217 q 204 139 199 154 q 233 88 215 107 q 299 56 251 69 q 353 51 326 54 q 413 63 379 49 q 542 92 494 76 q 596 113 589 107 q 610 119 607 118 q 621 119 614 119 q 624 119 617 113 q 646 139 632 125 q 686 165 661 153 q 731 185 711 178 q 753 185 751 192 q 750 147 761 171 q 710 94 739 122 q 635 39 681 65 q 475 -16 561 0 q 321 -33 389 -32 m 726 1025 q 710 1054 717 1035 q 706 1079 704 1074 q 717 1108 708 1086 q 743 1144 725 1129 q 752 1153 747 1147 q 763 1161 757 1160 q 795 1165 779 1172 q 825 1135 811 1157 q 832 1091 838 1108 q 801 1043 826 1074 q 763 1013 781 1015 q 726 1025 746 1010 z "},"Ẹ":{"ha":761,"x_min":111,"x_max":885,"o":"m 321 -33 q 245 -7 278 -31 q 176 42 213 17 q 139 92 153 65 q 117 164 125 119 q 117 231 111 190 q 135 312 122 271 q 158 378 147 353 q 201 462 175 417 q 252 548 226 507 q 293 614 278 589 q 302 624 303 624 q 301 625 301 625 q 316 660 301 632 q 342 711 331 689 q 365 747 363 733 q 361 769 368 761 q 371 789 358 775 q 408 821 383 803 q 465 857 433 839 q 530 885 499 883 q 567 872 561 888 q 583 870 567 868 q 620 877 599 872 q 658 885 642 882 q 691 898 665 893 q 751 907 717 903 q 787 906 769 906 q 816 908 804 907 q 828 910 828 910 q 851 907 838 913 q 875 876 864 901 q 869 839 885 851 q 796 819 853 826 q 724 810 754 814 q 660 802 693 807 q 578 786 626 797 q 521 770 543 779 q 482 744 499 761 q 444 694 465 726 q 419 658 435 688 q 389 600 404 629 q 322 506 350 546 q 299 460 293 467 q 314 456 299 460 q 335 451 329 451 q 369 461 349 458 q 401 467 389 464 q 537 501 488 489 q 612 520 586 514 q 651 528 638 526 q 690 533 671 543 q 719 503 708 524 q 720 476 726 488 q 685 454 714 465 q 601 428 657 443 q 456 388 546 413 q 325 361 379 365 q 274 385 271 357 q 252 372 264 390 q 229 321 240 353 q 210 253 218 289 q 201 185 203 217 q 204 139 199 154 q 233 88 215 107 q 299 56 251 69 q 353 51 326 54 q 413 63 379 49 q 542 92 494 76 q 596 113 589 107 q 610 119 607 118 q 621 119 614 119 q 624 119 617 113 q 646 139 632 125 q 686 165 661 153 q 731 185 711 178 q 753 185 751 192 q 750 147 761 171 q 710 94 739 122 q 635 39 681 65 q 475 -16 561 0 q 321 -33 389 -32 m 315 -214 q 300 -191 306 -204 q 296 -172 294 -178 q 306 -145 299 -165 q 321 -119 313 -125 q 330 -110 325 -117 q 340 -103 335 -104 q 371 -99 357 -92 q 390 -128 385 -107 q 399 -160 403 -146 q 379 -196 394 -175 q 342 -226 358 -224 q 315 -214 326 -229 z "},"È":{"ha":761,"x_min":111,"x_max":885,"o":"m 321 -33 q 245 -7 278 -31 q 176 42 213 17 q 139 92 153 65 q 117 164 125 119 q 117 231 111 190 q 135 312 122 271 q 158 378 147 353 q 201 462 175 417 q 252 548 226 507 q 293 614 278 589 q 302 624 303 624 q 301 625 301 625 q 316 660 301 632 q 342 711 331 689 q 365 747 363 733 q 361 769 368 761 q 371 789 358 775 q 408 821 383 803 q 465 857 433 839 q 530 885 499 883 q 567 872 561 888 q 583 870 567 868 q 620 877 599 872 q 658 885 642 882 q 691 898 665 893 q 751 907 717 903 q 787 906 769 906 q 816 908 804 907 q 828 910 828 910 q 851 907 838 913 q 875 876 864 901 q 869 839 885 851 q 796 819 853 826 q 724 810 754 814 q 660 802 693 807 q 578 786 626 797 q 521 770 543 779 q 482 744 499 761 q 444 694 465 726 q 419 658 435 688 q 389 600 404 629 q 322 506 350 546 q 299 460 293 467 q 314 456 299 460 q 335 451 329 451 q 369 461 349 458 q 401 467 389 464 q 537 501 488 489 q 612 520 586 514 q 651 528 638 526 q 690 533 671 543 q 719 503 708 524 q 720 476 726 488 q 685 454 714 465 q 601 428 657 443 q 456 388 546 413 q 325 361 379 365 q 274 385 271 357 q 252 372 264 390 q 229 321 240 353 q 210 253 218 289 q 201 185 203 217 q 204 139 199 154 q 233 88 215 107 q 299 56 251 69 q 353 51 326 54 q 413 63 379 49 q 542 92 494 76 q 596 113 589 107 q 610 119 607 118 q 621 119 614 119 q 624 119 617 113 q 646 139 632 125 q 686 165 661 153 q 731 185 711 178 q 753 185 751 192 q 750 147 761 171 q 710 94 739 122 q 635 39 681 65 q 475 -16 561 0 q 321 -33 389 -32 m 797 988 q 780 978 786 979 q 769 986 774 978 q 760 1010 765 994 q 726 1065 749 1033 q 690 1128 704 1097 q 688 1174 676 1158 q 719 1197 706 1189 q 746 1190 732 1206 q 769 1162 756 1185 q 795 1110 782 1139 q 817 1056 808 1081 q 825 1024 825 1032 q 817 1004 826 1018 q 797 988 808 990 z "},"Ȇ":{"ha":761,"x_min":111,"x_max":894,"o":"m 321 -33 q 245 -7 278 -31 q 176 42 213 17 q 139 92 153 65 q 117 164 125 119 q 117 231 111 190 q 135 312 122 271 q 158 378 147 353 q 201 462 175 417 q 252 548 226 507 q 293 614 278 589 q 302 624 303 624 q 301 625 301 625 q 316 660 301 632 q 342 711 331 689 q 365 747 363 733 q 361 769 368 761 q 371 789 358 775 q 408 821 383 803 q 465 857 433 839 q 530 885 499 883 q 567 872 561 888 q 583 870 567 868 q 620 877 599 872 q 658 885 642 882 q 691 898 665 893 q 751 907 717 903 q 787 906 769 906 q 816 908 804 907 q 828 910 828 910 q 851 907 838 913 q 875 876 864 901 q 869 839 885 851 q 796 819 853 826 q 724 810 754 814 q 660 802 693 807 q 578 786 626 797 q 521 770 543 779 q 482 744 499 761 q 444 694 465 726 q 419 658 435 688 q 389 600 404 629 q 322 506 350 546 q 299 460 293 467 q 314 456 299 460 q 335 451 329 451 q 369 461 349 458 q 401 467 389 464 q 537 501 488 489 q 612 520 586 514 q 651 528 638 526 q 690 533 671 543 q 719 503 708 524 q 720 476 726 488 q 685 454 714 465 q 601 428 657 443 q 456 388 546 413 q 325 361 379 365 q 274 385 271 357 q 252 372 264 390 q 229 321 240 353 q 210 253 218 289 q 201 185 203 217 q 204 139 199 154 q 233 88 215 107 q 299 56 251 69 q 353 51 326 54 q 413 63 379 49 q 542 92 494 76 q 596 113 589 107 q 610 119 607 118 q 621 119 614 119 q 624 119 617 113 q 646 139 632 125 q 686 165 661 153 q 731 185 711 178 q 753 185 751 192 q 750 147 761 171 q 710 94 739 122 q 635 39 681 65 q 475 -16 561 0 q 321 -33 389 -32 m 822 1014 q 824 1053 826 1031 q 803 1094 821 1076 q 743 1110 785 1111 q 705 1092 725 1110 q 667 1053 685 1075 q 642 1017 650 1032 q 606 983 622 982 q 583 1001 590 983 q 579 1031 576 1018 q 598 1067 583 1043 q 637 1117 613 1092 q 694 1158 661 1142 q 764 1171 726 1174 q 840 1148 810 1168 q 882 1096 869 1128 q 886 1022 894 1064 q 861 976 881 989 q 828 974 842 964 q 822 1014 814 983 z "},"Ē":{"ha":761,"x_min":111,"x_max":949,"o":"m 321 -33 q 245 -7 278 -31 q 176 42 213 17 q 139 92 153 65 q 117 164 125 119 q 117 231 111 190 q 135 312 122 271 q 158 378 147 353 q 201 462 175 417 q 252 548 226 507 q 293 614 278 589 q 302 624 303 624 q 301 625 301 625 q 316 660 301 632 q 342 711 331 689 q 365 747 363 733 q 361 769 368 761 q 371 789 358 775 q 408 821 383 803 q 465 857 433 839 q 530 885 499 883 q 567 872 561 888 q 583 870 567 868 q 620 877 599 872 q 658 885 642 882 q 691 898 665 893 q 751 907 717 903 q 787 906 769 906 q 816 908 804 907 q 828 910 828 910 q 851 907 838 913 q 875 876 864 901 q 869 839 885 851 q 796 819 853 826 q 724 810 754 814 q 660 802 693 807 q 578 786 626 797 q 521 770 543 779 q 482 744 499 761 q 444 694 465 726 q 419 658 435 688 q 389 600 404 629 q 322 506 350 546 q 299 460 293 467 q 314 456 299 460 q 335 451 329 451 q 369 461 349 458 q 401 467 389 464 q 537 501 488 489 q 612 520 586 514 q 651 528 638 526 q 690 533 671 543 q 719 503 708 524 q 720 476 726 488 q 685 454 714 465 q 601 428 657 443 q 456 388 546 413 q 325 361 379 365 q 274 385 271 357 q 252 372 264 390 q 229 321 240 353 q 210 253 218 289 q 201 185 203 217 q 204 139 199 154 q 233 88 215 107 q 299 56 251 69 q 353 51 326 54 q 413 63 379 49 q 542 92 494 76 q 596 113 589 107 q 610 119 607 118 q 621 119 614 119 q 624 119 617 113 q 646 139 632 125 q 686 165 661 153 q 731 185 711 178 q 753 185 751 192 q 750 147 761 171 q 710 94 739 122 q 635 39 681 65 q 475 -16 561 0 q 321 -33 389 -32 m 656 1058 q 635 1059 647 1058 q 611 1064 624 1060 q 583 1067 590 1064 q 571 1081 576 1071 q 569 1109 558 1101 q 628 1122 581 1117 q 726 1133 675 1129 q 831 1138 778 1138 q 889 1135 863 1138 q 931 1121 915 1132 q 944 1083 949 1100 q 908 1068 939 1065 q 881 1067 901 1068 q 838 1065 861 1065 q 797 1064 814 1064 q 765 1063 789 1064 q 710 1060 740 1061 q 656 1058 681 1058 z "},"Ę":{"ha":761,"x_min":111,"x_max":885,"o":"m 321 -33 q 245 -7 278 -31 q 176 42 213 17 q 139 92 153 65 q 117 164 125 119 q 117 231 111 190 q 135 312 122 271 q 158 378 147 353 q 201 462 175 417 q 252 548 226 507 q 293 614 278 589 q 302 624 303 624 q 301 625 301 625 q 316 660 301 632 q 342 711 331 689 q 365 747 363 733 q 361 769 368 761 q 371 789 358 775 q 408 821 383 803 q 465 857 433 839 q 530 885 499 883 q 567 872 561 888 q 583 870 567 868 q 620 877 599 872 q 658 885 642 882 q 691 898 665 893 q 751 907 717 903 q 787 906 769 906 q 816 908 804 907 q 828 910 828 910 q 851 907 838 913 q 875 876 864 901 q 869 839 885 851 q 796 819 853 826 q 724 810 754 814 q 660 802 693 807 q 578 786 626 797 q 521 770 543 779 q 482 744 499 761 q 444 694 465 726 q 419 658 435 688 q 389 600 404 629 q 322 506 350 546 q 299 460 293 467 q 314 456 299 460 q 335 451 329 451 q 369 461 349 458 q 401 467 389 464 q 537 501 488 489 q 612 520 586 514 q 651 528 638 526 q 690 533 671 543 q 719 503 708 524 q 720 476 726 488 q 685 454 714 465 q 601 428 657 443 q 456 388 546 413 q 325 361 379 365 q 274 385 271 357 q 252 372 264 390 q 229 321 240 353 q 210 253 218 289 q 201 185 203 217 q 204 139 199 154 q 233 88 215 107 q 299 56 251 69 q 353 51 326 54 q 413 63 379 49 q 542 92 494 76 q 596 113 589 107 q 610 119 607 118 q 621 119 614 119 q 624 119 617 113 q 646 139 632 125 q 686 165 661 153 q 731 185 711 178 q 753 185 751 192 q 750 147 761 171 q 710 94 739 122 q 635 39 681 65 q 475 -16 561 0 q 321 -33 389 -32 m 511 -226 q 464 -197 483 -218 q 438 -148 444 -176 q 444 -93 432 -119 q 490 -28 460 -61 q 557 33 521 4 q 624 82 593 63 l 665 40 q 592 -13 635 22 q 525 -79 550 -49 q 498 -124 506 -103 q 500 -160 490 -144 q 525 -168 504 -168 q 579 -149 557 -162 q 636 -118 601 -135 q 664 -112 654 -108 q 676 -128 674 -117 q 672 -153 678 -140 q 649 -172 665 -165 q 626 -182 643 -174 q 589 -199 610 -190 q 547 -216 568 -208 q 511 -226 526 -224 z "},"Ẽ":{"ha":761,"x_min":111,"x_max":965,"o":"m 321 -33 q 245 -7 278 -31 q 176 42 213 17 q 139 92 153 65 q 117 164 125 119 q 117 231 111 190 q 135 312 122 271 q 158 378 147 353 q 201 462 175 417 q 252 548 226 507 q 293 614 278 589 q 302 624 303 624 q 301 625 301 625 q 316 660 301 632 q 342 711 331 689 q 365 747 363 733 q 361 769 368 761 q 371 789 358 775 q 408 821 383 803 q 465 857 433 839 q 530 885 499 883 q 567 872 561 888 q 583 870 567 868 q 620 877 599 872 q 658 885 642 882 q 691 898 665 893 q 751 907 717 903 q 787 906 769 906 q 816 908 804 907 q 828 910 828 910 q 851 907 838 913 q 875 876 864 901 q 869 839 885 851 q 796 819 853 826 q 724 810 754 814 q 660 802 693 807 q 578 786 626 797 q 521 770 543 779 q 482 744 499 761 q 444 694 465 726 q 419 658 435 688 q 389 600 404 629 q 322 506 350 546 q 299 460 293 467 q 314 456 299 460 q 335 451 329 451 q 369 461 349 458 q 401 467 389 464 q 537 501 488 489 q 612 520 586 514 q 651 528 638 526 q 690 533 671 543 q 719 503 708 524 q 720 476 726 488 q 685 454 714 465 q 601 428 657 443 q 456 388 546 413 q 325 361 379 365 q 274 385 271 357 q 252 372 264 390 q 229 321 240 353 q 210 253 218 289 q 201 185 203 217 q 204 139 199 154 q 233 88 215 107 q 299 56 251 69 q 353 51 326 54 q 413 63 379 49 q 542 92 494 76 q 596 113 589 107 q 610 119 607 118 q 621 119 614 119 q 624 119 617 113 q 646 139 632 125 q 686 165 661 153 q 731 185 711 178 q 753 185 751 192 q 750 147 761 171 q 710 94 739 122 q 635 39 681 65 q 475 -16 561 0 q 321 -33 389 -32 m 824 1013 q 778 1023 796 1013 q 735 1051 761 1033 q 701 1079 722 1058 q 664 1100 681 1100 q 641 1089 650 1100 q 624 1066 632 1078 q 600 1051 615 1054 q 592 1034 599 1044 q 582 1031 585 1024 q 560 1044 568 1035 q 554 1061 553 1054 q 575 1106 556 1074 q 642 1161 594 1138 q 688 1161 658 1168 q 740 1133 718 1154 q 789 1091 772 1104 q 832 1089 806 1078 q 877 1110 853 1094 q 931 1138 901 1126 q 949 1137 940 1142 q 961 1122 957 1132 q 964 1104 965 1113 q 955 1085 964 1099 q 933 1064 946 1071 q 869 1029 892 1040 q 838 1015 847 1018 q 824 1013 829 1013 z "},"F":{"ha":631,"x_min":113,"x_max":900,"o":"m 710 439 q 678 424 706 429 q 589 411 650 418 q 535 408 571 410 q 459 406 500 407 q 385 405 418 404 q 339 408 351 406 q 333 401 339 408 q 326 383 326 394 q 302 332 317 367 q 270 256 288 297 q 238 172 253 214 q 214 100 224 131 q 204 58 204 69 q 189 1 192 25 q 179 -26 186 -22 q 161 -29 178 -32 q 133 -14 144 -26 q 115 9 117 -1 q 122 50 113 19 q 137 103 126 68 q 160 182 147 139 q 188 266 174 225 q 217 333 203 307 q 236 381 232 360 q 247 421 240 403 q 247 442 246 436 q 258 458 249 447 q 276 478 265 464 q 300 524 286 493 q 313 562 304 538 q 331 612 322 586 q 346 656 339 638 q 353 675 353 674 q 361 697 356 681 q 369 722 367 713 q 378 754 375 742 q 376 767 382 767 q 332 763 365 764 q 308 759 315 760 q 294 757 300 758 q 269 760 281 756 q 258 776 258 764 q 274 813 261 799 q 308 829 288 828 q 330 834 318 832 q 363 842 342 836 q 403 851 389 847 q 426 851 418 854 q 439 860 433 856 q 444 871 444 865 q 451 881 444 878 q 465 885 457 885 q 483 883 474 886 q 496 874 492 881 q 508 867 499 869 q 544 867 518 864 q 617 881 569 871 q 680 886 642 883 q 740 882 718 889 q 783 885 764 886 q 808 890 801 885 q 851 883 838 885 q 872 874 864 881 q 876 863 878 868 q 874 858 874 858 q 875 858 868 861 q 885 851 882 854 q 897 841 894 847 q 900 829 900 835 q 899 819 900 824 q 885 805 897 807 q 822 804 872 803 q 705 810 763 813 q 571 797 647 808 q 522 790 543 796 q 497 783 500 783 q 478 765 492 783 q 451 710 464 746 q 432 665 446 700 q 402 590 418 631 q 374 519 386 550 q 360 486 363 489 q 423 481 379 481 q 520 484 467 481 q 618 492 574 488 q 662 499 639 496 q 692 500 685 503 q 704 484 699 496 q 712 460 710 472 q 710 439 714 447 z "},"G":{"ha":676,"x_min":158,"x_max":807,"o":"m 238 -43 q 179 24 200 -19 q 160 113 158 68 q 174 287 158 199 q 217 458 190 375 q 256 562 235 508 q 300 663 278 615 q 339 738 322 710 q 430 855 382 808 q 501 915 478 901 q 569 938 521 926 q 668 936 617 949 q 735 913 704 926 q 776 889 767 899 q 797 860 788 872 q 806 832 806 849 q 798 805 807 821 q 776 782 789 789 q 750 789 763 775 q 713 827 732 817 q 671 849 693 838 q 629 859 656 858 q 575 853 603 860 q 526 829 547 846 q 490 792 513 817 q 446 739 468 768 q 410 682 424 710 q 342 551 372 617 q 292 407 313 485 q 277 350 286 388 q 260 275 268 313 q 249 214 251 238 q 242 94 239 146 q 278 24 246 43 q 383 29 310 4 q 452 57 415 33 q 524 116 489 81 q 585 192 560 151 q 627 279 608 236 q 647 350 646 322 q 621 376 649 378 q 538 380 569 382 q 481 389 506 378 q 472 419 471 404 q 489 450 474 435 q 540 458 504 456 q 618 456 576 461 q 692 436 660 451 q 725 403 715 425 q 735 354 735 382 q 729 297 735 326 q 699 224 722 267 q 644 135 676 182 q 587 71 624 106 q 512 8 550 36 q 447 -29 474 -19 q 333 -62 392 -54 q 238 -43 275 -69 z "},"Ǵ":{"ha":692,"x_min":158,"x_max":844,"o":"m 238 -43 q 179 24 200 -19 q 160 113 158 68 q 174 287 158 199 q 217 458 190 375 q 256 562 235 508 q 300 663 278 615 q 339 738 322 710 q 430 855 382 808 q 501 915 478 901 q 569 938 521 926 q 668 936 617 949 q 735 913 704 926 q 776 889 767 899 q 797 860 788 872 q 806 832 806 849 q 798 805 807 821 q 776 782 789 789 q 750 789 763 775 q 713 827 732 817 q 671 849 693 838 q 629 859 656 858 q 575 853 603 860 q 526 829 547 846 q 490 792 513 817 q 446 739 468 768 q 410 682 424 710 q 342 551 372 617 q 292 407 313 485 q 277 350 286 388 q 260 275 268 313 q 249 214 251 238 q 242 94 239 146 q 278 24 246 43 q 383 29 310 4 q 452 57 415 33 q 524 116 489 81 q 585 192 560 151 q 627 279 608 236 q 647 350 646 322 q 621 376 649 378 q 538 380 569 382 q 481 389 506 378 q 472 419 471 404 q 489 450 474 435 q 540 458 504 456 q 618 456 576 461 q 692 436 660 451 q 725 403 715 425 q 735 354 735 382 q 729 297 735 326 q 699 224 722 267 q 644 135 676 182 q 587 71 624 106 q 512 8 550 36 q 447 -29 474 -19 q 333 -62 392 -54 q 238 -43 275 -69 m 665 992 q 651 1021 656 1001 q 647 1046 646 1040 q 666 1074 649 1053 q 707 1119 683 1094 q 752 1164 731 1144 q 783 1188 774 1183 q 813 1184 799 1197 q 840 1149 826 1171 q 830 1119 844 1136 q 792 1082 815 1101 q 745 1044 768 1063 q 711 1010 722 1025 q 690 983 697 988 q 665 992 682 979 z "},"Ğ":{"ha":692,"x_min":158,"x_max":897,"o":"m 238 -43 q 179 24 200 -19 q 160 113 158 68 q 174 287 158 199 q 217 458 190 375 q 256 562 235 508 q 300 663 278 615 q 339 738 322 710 q 430 855 382 808 q 501 915 478 901 q 569 938 521 926 q 668 936 617 949 q 735 913 704 926 q 776 889 767 899 q 797 860 788 872 q 806 832 806 849 q 798 805 807 821 q 776 782 789 789 q 750 789 763 775 q 713 827 732 817 q 671 849 693 838 q 629 859 656 858 q 575 853 603 860 q 526 829 547 846 q 490 792 513 817 q 446 739 468 768 q 410 682 424 710 q 342 551 372 617 q 292 407 313 485 q 277 350 286 388 q 260 275 268 313 q 249 214 251 238 q 242 94 239 146 q 278 24 246 43 q 383 29 310 4 q 452 57 415 33 q 524 116 489 81 q 585 192 560 151 q 627 279 608 236 q 647 350 646 322 q 621 376 649 378 q 538 380 569 382 q 481 389 506 378 q 472 419 471 404 q 489 450 474 435 q 540 458 504 456 q 618 456 576 461 q 692 436 660 451 q 725 403 715 425 q 735 354 735 382 q 729 297 735 326 q 699 224 722 267 q 644 135 676 182 q 587 71 624 106 q 512 8 550 36 q 447 -29 474 -19 q 333 -62 392 -54 q 238 -43 275 -69 m 710 974 q 635 997 665 978 q 592 1049 604 1017 q 588 1122 581 1081 q 604 1161 592 1147 q 630 1176 617 1175 q 651 1165 643 1176 q 651 1131 658 1154 q 650 1092 647 1115 q 671 1051 653 1068 q 731 1035 689 1033 q 769 1053 749 1036 q 806 1092 789 1069 q 832 1128 824 1114 q 860 1160 847 1154 q 881 1158 872 1165 q 894 1137 890 1150 q 894 1114 897 1124 q 876 1077 890 1101 q 837 1028 861 1053 q 780 987 813 1003 q 710 974 747 971 z "},"Ĝ":{"ha":692,"x_min":158,"x_max":807,"o":"m 238 -43 q 179 24 200 -19 q 160 113 158 68 q 174 287 158 199 q 217 458 190 375 q 256 562 235 508 q 300 663 278 615 q 339 738 322 710 q 430 855 382 808 q 501 915 478 901 q 569 938 521 926 q 668 936 617 949 q 735 913 704 926 q 776 889 767 899 q 797 860 788 872 q 806 832 806 849 q 798 805 807 821 q 776 782 789 789 q 750 789 763 775 q 713 827 732 817 q 671 849 693 838 q 629 859 656 858 q 575 853 603 860 q 526 829 547 846 q 490 792 513 817 q 446 739 468 768 q 410 682 424 710 q 342 551 372 617 q 292 407 313 485 q 277 350 286 388 q 260 275 268 313 q 249 214 251 238 q 242 94 239 146 q 278 24 246 43 q 383 29 310 4 q 452 57 415 33 q 524 116 489 81 q 585 192 560 151 q 627 279 608 236 q 647 350 646 322 q 621 376 649 378 q 538 380 569 382 q 481 389 506 378 q 472 419 471 404 q 489 450 474 435 q 540 458 504 456 q 618 456 576 461 q 692 436 660 451 q 725 403 715 425 q 735 354 735 382 q 729 297 735 326 q 699 224 722 267 q 644 135 676 182 q 587 71 624 106 q 512 8 550 36 q 447 -29 474 -19 q 333 -62 392 -54 q 238 -43 275 -69 m 553 1014 q 513 994 529 990 q 492 1015 496 997 q 503 1051 488 1032 q 522 1071 507 1057 q 558 1103 538 1085 q 599 1136 578 1121 q 633 1160 619 1151 q 657 1170 646 1171 q 676 1157 668 1169 q 717 1119 693 1143 q 763 1074 742 1094 q 786 1049 783 1053 q 794 1023 794 1038 q 784 999 793 1008 q 761 992 775 989 q 728 1018 747 996 q 696 1052 718 1031 q 653 1092 674 1074 q 616 1067 636 1082 q 579 1037 596 1051 q 553 1014 563 1022 z "},"Ģ":{"ha":692,"x_min":158,"x_max":807,"o":"m 238 -43 q 179 24 200 -19 q 160 113 158 68 q 174 287 158 199 q 217 458 190 375 q 256 562 235 508 q 300 663 278 615 q 339 738 322 710 q 430 855 382 808 q 501 915 478 901 q 569 938 521 926 q 668 936 617 949 q 735 913 704 926 q 776 889 767 899 q 797 860 788 872 q 806 832 806 849 q 798 805 807 821 q 776 782 789 789 q 750 789 763 775 q 713 827 732 817 q 671 849 693 838 q 629 859 656 858 q 575 853 603 860 q 526 829 547 846 q 490 792 513 817 q 446 739 468 768 q 410 682 424 710 q 342 551 372 617 q 292 407 313 485 q 277 350 286 388 q 260 275 268 313 q 249 214 251 238 q 242 94 239 146 q 278 24 246 43 q 383 29 310 4 q 452 57 415 33 q 524 116 489 81 q 585 192 560 151 q 627 279 608 236 q 647 350 646 322 q 621 376 649 378 q 538 380 569 382 q 481 389 506 378 q 472 419 471 404 q 489 450 474 435 q 540 458 504 456 q 618 456 576 461 q 692 436 660 451 q 725 403 715 425 q 735 354 735 382 q 729 297 735 326 q 699 224 722 267 q 644 135 676 182 q 587 71 624 106 q 512 8 550 36 q 447 -29 474 -19 q 333 -62 392 -54 q 238 -43 275 -69 m 217 -325 q 199 -324 203 -325 q 190 -315 196 -322 q 210 -289 190 -306 q 253 -239 229 -268 q 275 -187 276 -210 q 294 -133 274 -149 q 344 -140 314 -117 q 344 -189 350 -169 q 324 -243 339 -208 q 308 -265 321 -249 q 283 -297 296 -282 q 267 -312 271 -312 q 260 -313 264 -312 q 254 -315 257 -314 q 247 -319 251 -317 q 241 -324 244 -322 q 232 -325 238 -325 q 217 -325 226 -325 z "},"Ġ":{"ha":692,"x_min":158,"x_max":807,"o":"m 238 -43 q 179 24 200 -19 q 160 113 158 68 q 174 287 158 199 q 217 458 190 375 q 256 562 235 508 q 300 663 278 615 q 339 738 322 710 q 430 855 382 808 q 501 915 478 901 q 569 938 521 926 q 668 936 617 949 q 735 913 704 926 q 776 889 767 899 q 797 860 788 872 q 806 832 806 849 q 798 805 807 821 q 776 782 789 789 q 750 789 763 775 q 713 827 732 817 q 671 849 693 838 q 629 859 656 858 q 575 853 603 860 q 526 829 547 846 q 490 792 513 817 q 446 739 468 768 q 410 682 424 710 q 342 551 372 617 q 292 407 313 485 q 277 350 286 388 q 260 275 268 313 q 249 214 251 238 q 242 94 239 146 q 278 24 246 43 q 383 29 310 4 q 452 57 415 33 q 524 116 489 81 q 585 192 560 151 q 627 279 608 236 q 647 350 646 322 q 621 376 649 378 q 538 380 569 382 q 481 389 506 378 q 472 419 471 404 q 489 450 474 435 q 540 458 504 456 q 618 456 576 461 q 692 436 660 451 q 725 403 715 425 q 735 354 735 382 q 729 297 735 326 q 699 224 722 267 q 644 135 676 182 q 587 71 624 106 q 512 8 550 36 q 447 -29 474 -19 q 333 -62 392 -54 q 238 -43 275 -69 m 690 1025 q 674 1054 681 1035 q 669 1079 668 1074 q 681 1108 672 1086 q 707 1144 689 1129 q 716 1153 711 1147 q 726 1161 721 1160 q 759 1165 743 1172 q 789 1135 775 1157 q 796 1091 801 1108 q 765 1043 790 1074 q 727 1013 744 1015 q 690 1025 710 1010 z "},"H":{"ha":782,"x_min":110,"x_max":992,"o":"m 181 -115 q 176 -113 181 -115 q 166 -110 172 -111 q 151 -108 160 -108 q 119 -84 129 -103 q 115 -43 110 -65 q 124 -19 121 -37 q 126 10 126 -1 q 133 26 132 21 q 140 53 135 31 q 155 119 144 76 q 178 210 165 161 q 204 303 192 258 q 227 378 217 347 q 242 413 238 408 q 242 417 242 413 q 242 428 242 422 q 244 441 242 428 q 257 471 246 454 q 267 504 263 486 q 271 528 271 522 q 287 562 276 535 q 307 615 297 589 q 326 663 315 638 q 344 706 336 688 q 351 724 351 724 q 351 730 351 729 q 351 731 351 731 q 378 787 357 736 q 438 918 400 838 q 451 943 443 929 q 460 963 460 957 q 479 973 467 974 q 505 964 492 972 q 525 940 518 956 l 539 918 l 489 818 q 452 747 467 779 q 438 710 438 715 q 429 688 438 710 q 410 635 421 665 q 390 579 399 604 q 362 508 375 536 q 349 475 349 481 q 379 479 349 478 q 457 481 410 481 q 553 481 504 481 q 641 483 603 482 q 693 486 679 483 l 765 493 l 813 636 q 842 731 824 675 q 874 825 860 786 q 908 904 896 889 q 938 919 921 919 q 949 917 942 919 q 965 910 957 915 q 975 897 972 906 q 991 863 992 882 q 968 811 990 843 q 931 730 946 774 q 906 658 917 686 q 901 631 906 642 q 892 615 897 621 q 881 594 889 613 q 865 558 872 576 q 858 536 858 540 q 854 513 858 526 q 844 493 850 499 q 832 451 842 485 q 810 373 822 418 q 783 285 797 328 q 758 215 769 243 q 751 191 758 206 q 744 165 744 176 q 731 124 739 149 q 722 92 722 99 q 708 26 715 60 q 695 -31 700 -7 q 690 -60 690 -56 q 674 -61 685 -65 q 647 -51 663 -57 q 616 -19 621 -36 q 626 31 611 -1 q 644 85 633 42 q 665 172 654 129 q 683 228 674 193 q 703 301 693 264 q 719 363 713 338 q 729 392 726 389 q 729 401 729 397 q 729 406 729 406 q 694 410 726 408 q 615 412 663 413 q 517 409 568 411 q 426 401 467 407 q 392 401 411 401 q 361 401 372 401 q 335 401 346 401 q 325 401 325 401 q 315 372 324 397 q 296 312 307 347 q 273 240 285 276 q 253 173 261 203 q 243 131 246 143 q 228 68 238 106 q 209 -9 219 31 q 191 -78 199 -49 q 181 -115 183 -107 z "},"Ħ":{"ha":783,"x_min":110,"x_max":1036,"o":"m 913 664 q 865 665 908 664 q 756 667 822 665 q 614 670 689 668 q 469 674 539 672 q 351 676 400 675 q 290 676 303 676 q 270 677 282 676 q 246 682 258 678 q 218 685 225 682 q 206 699 211 689 q 204 727 193 719 q 263 740 215 735 q 329 744 278 743 q 451 744 381 744 q 601 742 522 743 q 751 740 679 742 q 876 738 824 739 q 946 738 928 738 q 990 735 978 738 q 1018 721 1003 732 q 1031 683 1036 700 q 996 668 1026 665 q 962 665 986 667 q 913 664 938 664 m 181 -115 q 176 -113 181 -115 q 166 -110 172 -111 q 151 -108 160 -108 q 119 -84 129 -103 q 115 -43 110 -65 q 124 -19 121 -37 q 126 10 126 -1 q 133 26 132 21 q 140 53 135 31 q 155 119 144 76 q 178 210 165 161 q 204 303 192 258 q 227 378 217 347 q 242 413 238 408 q 242 417 242 413 q 242 428 242 422 q 244 441 242 428 q 257 471 246 454 q 267 504 263 486 q 271 528 271 522 q 287 562 276 535 q 307 615 297 589 q 326 663 315 638 q 344 706 336 688 q 351 724 351 724 q 351 730 351 729 q 351 731 351 731 q 378 787 357 736 q 438 918 400 838 q 451 943 443 929 q 460 963 460 957 q 479 973 467 974 q 505 964 492 972 q 525 940 518 956 l 539 918 l 489 818 q 452 747 467 779 q 438 710 438 715 q 429 688 438 710 q 410 635 421 665 q 390 579 399 604 q 362 508 375 536 q 349 475 349 481 q 379 479 349 478 q 457 481 410 481 q 553 481 504 481 q 641 483 603 482 q 693 486 679 483 l 765 493 l 813 636 q 842 731 824 675 q 874 825 860 786 q 908 904 896 889 q 938 919 921 919 q 949 917 942 919 q 965 910 957 915 q 975 897 972 906 q 991 863 992 882 q 968 811 990 843 q 931 730 946 774 q 906 658 917 686 q 901 631 906 642 q 892 615 897 621 q 881 594 889 613 q 865 558 872 576 q 858 536 858 540 q 854 513 858 526 q 844 493 850 499 q 832 451 842 485 q 810 373 822 418 q 783 285 797 328 q 758 215 769 243 q 751 191 758 206 q 744 165 744 176 q 731 124 739 149 q 722 92 722 99 q 708 26 715 60 q 695 -31 700 -7 q 690 -60 690 -56 q 674 -61 685 -65 q 647 -51 663 -57 q 616 -19 621 -36 q 626 31 611 -1 q 644 85 633 42 q 665 172 654 129 q 683 228 674 193 q 703 301 693 264 q 719 363 713 338 q 729 392 726 389 q 729 401 729 397 q 729 406 729 406 q 694 410 726 408 q 615 412 663 413 q 517 409 568 411 q 426 401 467 407 q 392 401 411 401 q 361 401 372 401 q 335 401 346 401 q 325 401 325 401 q 315 372 324 397 q 296 312 307 347 q 273 240 285 276 q 253 173 261 203 q 243 131 246 143 q 228 68 238 106 q 209 -9 219 31 q 191 -78 199 -49 q 181 -115 183 -107 z "},"Ĥ":{"ha":783,"x_min":110,"x_max":992,"o":"m 181 -115 q 176 -113 181 -115 q 166 -110 172 -111 q 151 -108 160 -108 q 119 -84 129 -103 q 115 -43 110 -65 q 124 -19 121 -37 q 126 10 126 -1 q 133 26 132 21 q 140 53 135 31 q 155 119 144 76 q 178 210 165 161 q 204 303 192 258 q 227 378 217 347 q 242 413 238 408 q 242 417 242 413 q 242 428 242 422 q 244 441 242 428 q 257 471 246 454 q 267 504 263 486 q 271 528 271 522 q 287 562 276 535 q 307 615 297 589 q 326 663 315 638 q 344 706 336 688 q 351 724 351 724 q 351 730 351 729 q 351 731 351 731 q 378 787 357 736 q 438 918 400 838 q 451 943 443 929 q 460 963 460 957 q 479 973 467 974 q 505 964 492 972 q 525 940 518 956 l 539 918 l 489 818 q 452 747 467 779 q 438 710 438 715 q 429 688 438 710 q 410 635 421 665 q 390 579 399 604 q 362 508 375 536 q 349 475 349 481 q 379 479 349 478 q 457 481 410 481 q 553 481 504 481 q 641 483 603 482 q 693 486 679 483 l 765 493 l 813 636 q 842 731 824 675 q 874 825 860 786 q 908 904 896 889 q 938 919 921 919 q 949 917 942 919 q 965 910 957 915 q 975 897 972 906 q 991 863 992 882 q 968 811 990 843 q 931 730 946 774 q 906 658 917 686 q 901 631 906 642 q 892 615 897 621 q 881 594 889 613 q 865 558 872 576 q 858 536 858 540 q 854 513 858 526 q 844 493 850 499 q 832 451 842 485 q 810 373 822 418 q 783 285 797 328 q 758 215 769 243 q 751 191 758 206 q 744 165 744 176 q 731 124 739 149 q 722 92 722 99 q 708 26 715 60 q 695 -31 700 -7 q 690 -60 690 -56 q 674 -61 685 -65 q 647 -51 663 -57 q 616 -19 621 -36 q 626 31 611 -1 q 644 85 633 42 q 665 172 654 129 q 683 228 674 193 q 703 301 693 264 q 719 363 713 338 q 729 392 726 389 q 729 401 729 397 q 729 406 729 406 q 694 410 726 408 q 615 412 663 413 q 517 409 568 411 q 426 401 467 407 q 392 401 411 401 q 361 401 372 401 q 335 401 346 401 q 325 401 325 401 q 315 372 324 397 q 296 312 307 347 q 273 240 285 276 q 253 173 261 203 q 243 131 246 143 q 228 68 238 106 q 209 -9 219 31 q 191 -78 199 -49 q 181 -115 183 -107 m 697 1014 q 657 994 674 990 q 636 1015 640 997 q 647 1051 632 1032 q 667 1071 651 1057 q 702 1103 682 1085 q 743 1136 722 1121 q 778 1160 764 1151 q 801 1170 790 1171 q 821 1157 813 1169 q 862 1119 838 1143 q 907 1074 886 1094 q 931 1049 928 1053 q 938 1023 939 1038 q 928 999 938 1008 q 906 992 919 989 q 872 1018 892 996 q 840 1052 863 1031 q 797 1092 818 1074 q 760 1067 781 1082 q 724 1037 740 1051 q 697 1014 707 1022 z "},"Ḥ":{"ha":783,"x_min":110,"x_max":992,"o":"m 181 -115 q 176 -113 181 -115 q 166 -110 172 -111 q 151 -108 160 -108 q 119 -84 129 -103 q 115 -43 110 -65 q 124 -19 121 -37 q 126 10 126 -1 q 133 26 132 21 q 140 53 135 31 q 155 119 144 76 q 178 210 165 161 q 204 303 192 258 q 227 378 217 347 q 242 413 238 408 q 242 417 242 413 q 242 428 242 422 q 244 441 242 428 q 257 471 246 454 q 267 504 263 486 q 271 528 271 522 q 287 562 276 535 q 307 615 297 589 q 326 663 315 638 q 344 706 336 688 q 351 724 351 724 q 351 730 351 729 q 351 731 351 731 q 378 787 357 736 q 438 918 400 838 q 451 943 443 929 q 460 963 460 957 q 479 973 467 974 q 505 964 492 972 q 525 940 518 956 l 539 918 l 489 818 q 452 747 467 779 q 438 710 438 715 q 429 688 438 710 q 410 635 421 665 q 390 579 399 604 q 362 508 375 536 q 349 475 349 481 q 379 479 349 478 q 457 481 410 481 q 553 481 504 481 q 641 483 603 482 q 693 486 679 483 l 765 493 l 813 636 q 842 731 824 675 q 874 825 860 786 q 908 904 896 889 q 938 919 921 919 q 949 917 942 919 q 965 910 957 915 q 975 897 972 906 q 991 863 992 882 q 968 811 990 843 q 931 730 946 774 q 906 658 917 686 q 901 631 906 642 q 892 615 897 621 q 881 594 889 613 q 865 558 872 576 q 858 536 858 540 q 854 513 858 526 q 844 493 850 499 q 832 451 842 485 q 810 373 822 418 q 783 285 797 328 q 758 215 769 243 q 751 191 758 206 q 744 165 744 176 q 731 124 739 149 q 722 92 722 99 q 708 26 715 60 q 695 -31 700 -7 q 690 -60 690 -56 q 674 -61 685 -65 q 647 -51 663 -57 q 616 -19 621 -36 q 626 31 611 -1 q 644 85 633 42 q 665 172 654 129 q 683 228 674 193 q 703 301 693 264 q 719 363 713 338 q 729 392 726 389 q 729 401 729 397 q 729 406 729 406 q 694 410 726 408 q 615 412 663 413 q 517 409 568 411 q 426 401 467 407 q 392 401 411 401 q 361 401 372 401 q 335 401 346 401 q 325 401 325 401 q 315 372 324 397 q 296 312 307 347 q 273 240 285 276 q 253 173 261 203 q 243 131 246 143 q 228 68 238 106 q 209 -9 219 31 q 191 -78 199 -49 q 181 -115 183 -107 m 336 -226 q 321 -203 326 -217 q 317 -185 315 -190 q 326 -158 319 -178 q 342 -132 333 -137 q 351 -123 346 -129 q 361 -115 356 -117 q 392 -112 378 -104 q 411 -140 406 -119 q 419 -173 424 -158 q 400 -208 415 -187 q 363 -239 379 -236 q 336 -226 347 -242 z "},"I":{"ha":556,"x_min":64,"x_max":839,"o":"m 267 -43 q 223 -24 257 -28 q 140 -22 189 -19 q 103 -20 121 -25 q 74 -5 85 -15 q 67 17 64 6 q 95 43 68 33 q 182 54 122 53 l 256 56 l 269 83 q 283 126 275 99 q 301 186 292 154 q 318 239 307 206 q 342 310 329 272 q 364 377 354 347 q 376 419 374 407 q 392 462 382 432 q 410 523 401 492 q 422 568 419 554 q 469 724 458 678 q 475 772 481 771 q 448 771 469 772 q 401 767 426 769 q 355 763 375 765 q 331 757 335 760 q 307 753 324 747 q 286 772 290 758 q 285 792 285 785 q 293 803 286 799 q 331 822 303 811 q 394 840 358 832 q 461 853 429 849 q 508 863 485 856 q 546 882 532 871 q 570 889 558 886 q 594 890 582 892 q 633 883 606 883 q 690 885 660 883 q 795 889 768 892 q 832 867 822 886 q 835 826 839 840 q 807 813 831 811 q 762 808 794 810 q 693 804 729 806 q 588 785 594 796 q 578 774 582 779 q 569 761 575 768 q 563 726 571 756 q 544 665 556 696 q 528 614 539 647 q 505 545 517 581 q 483 481 493 510 q 469 443 474 453 q 460 416 464 431 q 456 394 457 401 q 422 279 436 326 q 395 197 407 232 q 374 128 383 161 q 353 57 364 96 q 374 59 353 57 q 432 64 396 61 q 526 72 497 71 q 564 69 554 74 q 578 51 574 64 q 585 0 606 14 q 486 -12 564 -14 q 376 -17 414 -15 q 323 -24 338 -19 q 306 -37 308 -28 q 294 -49 306 -49 q 267 -43 283 -49 z "},"Ĳ":{"ha":1036,"x_min":64,"x_max":1228,"o":"m 267 -43 q 223 -24 257 -28 q 140 -22 189 -19 q 103 -20 121 -25 q 74 -5 85 -15 q 67 17 64 6 q 95 43 68 33 q 182 54 122 53 l 256 56 l 269 83 q 283 126 275 99 q 301 186 292 154 q 318 239 307 206 q 342 310 329 272 q 364 377 354 347 q 376 419 374 407 q 392 462 382 432 q 410 523 401 492 q 422 568 419 554 q 469 724 458 678 q 475 772 481 771 q 448 771 469 772 q 401 767 426 769 q 355 763 375 765 q 331 757 335 760 q 307 753 324 747 q 286 772 290 758 q 285 792 285 785 q 293 803 286 799 q 331 822 303 811 q 394 840 358 832 q 461 853 429 849 q 508 863 485 856 q 546 882 532 871 q 570 889 558 886 q 594 890 582 892 q 633 883 606 883 q 690 885 660 883 q 795 889 768 892 q 832 867 822 886 q 835 826 839 840 q 807 813 831 811 q 762 808 794 810 q 693 804 729 806 q 588 785 594 796 q 578 774 582 779 q 569 761 575 768 q 563 726 571 756 q 544 665 556 696 q 528 614 539 647 q 505 545 517 581 q 483 481 493 510 q 469 443 474 453 q 460 416 464 431 q 456 394 457 401 q 422 279 436 326 q 395 197 407 232 q 374 128 383 161 q 353 57 364 96 q 374 59 353 57 q 432 64 396 61 q 526 72 497 71 q 564 69 554 74 q 578 51 574 64 q 585 0 606 14 q 486 -12 564 -14 q 376 -17 414 -15 q 323 -24 338 -19 q 306 -37 308 -28 q 294 -49 306 -49 q 267 -43 283 -49 m 735 -251 q 681 -260 711 -262 q 622 -244 651 -258 q 571 -206 593 -229 q 558 -184 561 -194 q 561 -156 556 -174 q 579 -131 568 -131 q 614 -157 594 -131 q 691 -176 653 -192 q 772 -94 729 -161 q 799 -35 781 -74 q 837 49 817 4 q 874 131 857 93 q 896 186 890 169 q 897 191 896 186 q 903 201 897 196 q 910 224 904 207 q 921 263 915 240 q 937 308 926 278 q 959 372 947 339 q 979 428 971 406 q 997 491 986 457 q 1014 543 1007 525 q 1031 588 1019 554 q 1056 663 1042 622 q 1088 763 1072 717 q 1112 840 1103 810 q 1118 874 1121 869 q 1094 869 1118 874 q 1040 860 1069 865 q 994 853 1017 850 q 972 863 971 857 q 972 869 972 868 q 972 869 972 869 q 961 872 968 867 q 949 885 954 876 q 943 901 943 894 q 971 922 943 913 q 1042 936 999 931 q 1097 944 1069 940 q 1142 950 1124 947 q 1162 950 1147 954 q 1192 939 1176 946 q 1215 924 1208 932 q 1226 900 1224 913 q 1222 865 1228 888 q 1202 802 1217 843 q 1161 690 1188 761 q 1107 534 1131 604 q 1064 418 1083 464 q 1049 374 1060 403 q 1029 315 1039 344 q 1014 265 1019 285 q 993 208 1003 239 q 978 160 983 178 q 972 135 978 149 q 960 114 967 121 q 950 90 960 114 q 926 32 940 65 q 902 -30 915 4 q 878 -82 889 -64 q 861 -113 871 -99 q 851 -133 851 -128 q 851 -137 851 -133 q 844 -142 850 -142 q 840 -145 844 -142 q 836 -156 836 -149 q 822 -178 833 -164 q 794 -207 810 -192 q 762 -234 778 -222 q 735 -251 746 -246 z "},"Í":{"ha":556,"x_min":64,"x_max":839,"o":"m 267 -43 q 223 -24 257 -28 q 140 -22 189 -19 q 103 -20 121 -25 q 74 -5 85 -15 q 67 17 64 6 q 95 43 68 33 q 182 54 122 53 l 256 56 l 269 83 q 283 126 275 99 q 301 186 292 154 q 318 239 307 206 q 342 310 329 272 q 364 377 354 347 q 376 419 374 407 q 392 462 382 432 q 410 523 401 492 q 422 568 419 554 q 469 724 458 678 q 475 772 481 771 q 448 771 469 772 q 401 767 426 769 q 355 763 375 765 q 331 757 335 760 q 307 753 324 747 q 286 772 290 758 q 285 792 285 785 q 293 803 286 799 q 331 822 303 811 q 394 840 358 832 q 461 853 429 849 q 508 863 485 856 q 546 882 532 871 q 570 889 558 886 q 594 890 582 892 q 633 883 606 883 q 690 885 660 883 q 795 889 768 892 q 832 867 822 886 q 835 826 839 840 q 807 813 831 811 q 762 808 794 810 q 693 804 729 806 q 588 785 594 796 q 578 774 582 779 q 569 761 575 768 q 563 726 571 756 q 544 665 556 696 q 528 614 539 647 q 505 545 517 581 q 483 481 493 510 q 469 443 474 453 q 460 416 464 431 q 456 394 457 401 q 422 279 436 326 q 395 197 407 232 q 374 128 383 161 q 353 57 364 96 q 374 59 353 57 q 432 64 396 61 q 526 72 497 71 q 564 69 554 74 q 578 51 574 64 q 585 0 606 14 q 486 -12 564 -14 q 376 -17 414 -15 q 323 -24 338 -19 q 306 -37 308 -28 q 294 -49 306 -49 q 267 -43 283 -49 m 561 992 q 547 1021 551 1001 q 543 1046 542 1040 q 562 1074 544 1053 q 603 1119 579 1094 q 648 1164 626 1144 q 679 1188 669 1183 q 708 1184 694 1197 q 736 1149 722 1171 q 726 1119 740 1136 q 688 1082 711 1101 q 641 1044 664 1063 q 607 1010 618 1025 q 585 983 593 988 q 561 992 578 979 z "},"Ĭ":{"ha":556,"x_min":64,"x_max":839,"o":"m 267 -43 q 223 -24 257 -28 q 140 -22 189 -19 q 103 -20 121 -25 q 74 -5 85 -15 q 67 17 64 6 q 95 43 68 33 q 182 54 122 53 l 256 56 l 269 83 q 283 126 275 99 q 301 186 292 154 q 318 239 307 206 q 342 310 329 272 q 364 377 354 347 q 376 419 374 407 q 392 462 382 432 q 410 523 401 492 q 422 568 419 554 q 469 724 458 678 q 475 772 481 771 q 448 771 469 772 q 401 767 426 769 q 355 763 375 765 q 331 757 335 760 q 307 753 324 747 q 286 772 290 758 q 285 792 285 785 q 293 803 286 799 q 331 822 303 811 q 394 840 358 832 q 461 853 429 849 q 508 863 485 856 q 546 882 532 871 q 570 889 558 886 q 594 890 582 892 q 633 883 606 883 q 690 885 660 883 q 795 889 768 892 q 832 867 822 886 q 835 826 839 840 q 807 813 831 811 q 762 808 794 810 q 693 804 729 806 q 588 785 594 796 q 578 774 582 779 q 569 761 575 768 q 563 726 571 756 q 544 665 556 696 q 528 614 539 647 q 505 545 517 581 q 483 481 493 510 q 469 443 474 453 q 460 416 464 431 q 456 394 457 401 q 422 279 436 326 q 395 197 407 232 q 374 128 383 161 q 353 57 364 96 q 374 59 353 57 q 432 64 396 61 q 526 72 497 71 q 564 69 554 74 q 578 51 574 64 q 585 0 606 14 q 486 -12 564 -14 q 376 -17 414 -15 q 323 -24 338 -19 q 306 -37 308 -28 q 294 -49 306 -49 q 267 -43 283 -49 m 606 974 q 531 997 561 978 q 488 1049 500 1017 q 483 1122 476 1081 q 500 1161 488 1147 q 526 1176 513 1175 q 547 1165 539 1176 q 547 1131 554 1154 q 546 1092 543 1115 q 567 1051 549 1068 q 626 1035 585 1033 q 665 1053 644 1036 q 702 1092 685 1069 q 728 1128 719 1114 q 756 1160 743 1154 q 777 1158 768 1165 q 790 1137 786 1150 q 790 1114 793 1124 q 772 1077 786 1101 q 733 1028 757 1053 q 676 987 708 1003 q 606 974 643 971 z "},"Î":{"ha":556,"x_min":64,"x_max":839,"o":"m 267 -43 q 223 -24 257 -28 q 140 -22 189 -19 q 103 -20 121 -25 q 74 -5 85 -15 q 67 17 64 6 q 95 43 68 33 q 182 54 122 53 l 256 56 l 269 83 q 283 126 275 99 q 301 186 292 154 q 318 239 307 206 q 342 310 329 272 q 364 377 354 347 q 376 419 374 407 q 392 462 382 432 q 410 523 401 492 q 422 568 419 554 q 469 724 458 678 q 475 772 481 771 q 448 771 469 772 q 401 767 426 769 q 355 763 375 765 q 331 757 335 760 q 307 753 324 747 q 286 772 290 758 q 285 792 285 785 q 293 803 286 799 q 331 822 303 811 q 394 840 358 832 q 461 853 429 849 q 508 863 485 856 q 546 882 532 871 q 570 889 558 886 q 594 890 582 892 q 633 883 606 883 q 690 885 660 883 q 795 889 768 892 q 832 867 822 886 q 835 826 839 840 q 807 813 831 811 q 762 808 794 810 q 693 804 729 806 q 588 785 594 796 q 578 774 582 779 q 569 761 575 768 q 563 726 571 756 q 544 665 556 696 q 528 614 539 647 q 505 545 517 581 q 483 481 493 510 q 469 443 474 453 q 460 416 464 431 q 456 394 457 401 q 422 279 436 326 q 395 197 407 232 q 374 128 383 161 q 353 57 364 96 q 374 59 353 57 q 432 64 396 61 q 526 72 497 71 q 564 69 554 74 q 578 51 574 64 q 585 0 606 14 q 486 -12 564 -14 q 376 -17 414 -15 q 323 -24 338 -19 q 306 -37 308 -28 q 294 -49 306 -49 q 267 -43 283 -49 m 546 1014 q 506 994 522 990 q 485 1015 489 997 q 496 1051 481 1032 q 515 1071 500 1057 q 551 1103 531 1085 q 592 1136 571 1121 q 626 1160 613 1151 q 650 1170 639 1171 q 669 1157 661 1169 q 710 1119 686 1143 q 756 1074 735 1094 q 779 1049 776 1053 q 787 1023 788 1038 q 777 999 786 1008 q 754 992 768 989 q 721 1018 740 996 q 689 1052 711 1031 q 646 1092 667 1074 q 609 1067 629 1082 q 572 1037 589 1051 q 546 1014 556 1022 z "},"Ȉ":{"ha":556,"x_min":64,"x_max":839,"o":"m 267 -43 q 223 -24 257 -28 q 140 -22 189 -19 q 103 -20 121 -25 q 74 -5 85 -15 q 67 17 64 6 q 95 43 68 33 q 182 54 122 53 l 256 56 l 269 83 q 283 126 275 99 q 301 186 292 154 q 318 239 307 206 q 342 310 329 272 q 364 377 354 347 q 376 419 374 407 q 392 462 382 432 q 410 523 401 492 q 422 568 419 554 q 469 724 458 678 q 475 772 481 771 q 448 771 469 772 q 401 767 426 769 q 355 763 375 765 q 331 757 335 760 q 307 753 324 747 q 286 772 290 758 q 285 792 285 785 q 293 803 286 799 q 331 822 303 811 q 394 840 358 832 q 461 853 429 849 q 508 863 485 856 q 546 882 532 871 q 570 889 558 886 q 594 890 582 892 q 633 883 606 883 q 690 885 660 883 q 795 889 768 892 q 832 867 822 886 q 835 826 839 840 q 807 813 831 811 q 762 808 794 810 q 693 804 729 806 q 588 785 594 796 q 578 774 582 779 q 569 761 575 768 q 563 726 571 756 q 544 665 556 696 q 528 614 539 647 q 505 545 517 581 q 483 481 493 510 q 469 443 474 453 q 460 416 464 431 q 456 394 457 401 q 422 279 436 326 q 395 197 407 232 q 374 128 383 161 q 353 57 364 96 q 374 59 353 57 q 432 64 396 61 q 526 72 497 71 q 564 69 554 74 q 578 51 574 64 q 585 0 606 14 q 486 -12 564 -14 q 376 -17 414 -15 q 323 -24 338 -19 q 306 -37 308 -28 q 294 -49 306 -49 q 267 -43 283 -49 m 494 999 q 474 997 481 992 q 460 1024 468 1001 q 437 1059 453 1039 q 405 1101 421 1079 q 380 1140 389 1122 q 376 1164 371 1157 q 406 1191 390 1183 q 431 1192 421 1199 q 454 1165 439 1186 q 485 1117 469 1143 q 511 1069 500 1090 q 522 1044 522 1049 q 519 1033 524 1042 q 509 1014 515 1024 q 494 999 503 1004 m 660 999 q 638 997 644 992 q 624 1024 632 1001 q 601 1059 617 1039 q 569 1101 585 1079 q 544 1140 553 1122 q 540 1164 535 1157 q 571 1191 557 1183 q 594 1192 585 1199 q 618 1165 603 1186 q 649 1117 633 1143 q 676 1069 665 1090 q 686 1044 686 1049 q 679 1023 688 1040 q 660 999 671 1006 z "},"Ï":{"ha":556,"x_min":64,"x_max":839,"o":"m 267 -43 q 223 -24 257 -28 q 140 -22 189 -19 q 103 -20 121 -25 q 74 -5 85 -15 q 67 17 64 6 q 95 43 68 33 q 182 54 122 53 l 256 56 l 269 83 q 283 126 275 99 q 301 186 292 154 q 318 239 307 206 q 342 310 329 272 q 364 377 354 347 q 376 419 374 407 q 392 462 382 432 q 410 523 401 492 q 422 568 419 554 q 469 724 458 678 q 475 772 481 771 q 448 771 469 772 q 401 767 426 769 q 355 763 375 765 q 331 757 335 760 q 307 753 324 747 q 286 772 290 758 q 285 792 285 785 q 293 803 286 799 q 331 822 303 811 q 394 840 358 832 q 461 853 429 849 q 508 863 485 856 q 546 882 532 871 q 570 889 558 886 q 594 890 582 892 q 633 883 606 883 q 690 885 660 883 q 795 889 768 892 q 832 867 822 886 q 835 826 839 840 q 807 813 831 811 q 762 808 794 810 q 693 804 729 806 q 588 785 594 796 q 578 774 582 779 q 569 761 575 768 q 563 726 571 756 q 544 665 556 696 q 528 614 539 647 q 505 545 517 581 q 483 481 493 510 q 469 443 474 453 q 460 416 464 431 q 456 394 457 401 q 422 279 436 326 q 395 197 407 232 q 374 128 383 161 q 353 57 364 96 q 374 59 353 57 q 432 64 396 61 q 526 72 497 71 q 564 69 554 74 q 578 51 574 64 q 585 0 606 14 q 486 -12 564 -14 q 376 -17 414 -15 q 323 -24 338 -19 q 306 -37 308 -28 q 294 -49 306 -49 q 267 -43 283 -49 m 688 1042 q 672 1066 678 1051 q 667 1086 665 1081 q 677 1113 669 1093 q 694 1142 685 1133 q 704 1151 699 1144 q 715 1158 710 1157 q 747 1163 732 1171 q 768 1132 761 1154 q 776 1098 781 1113 q 754 1060 772 1083 q 717 1028 733 1031 q 688 1042 700 1025 m 508 1042 q 492 1066 499 1051 q 488 1086 486 1081 q 498 1113 490 1093 q 515 1142 506 1133 q 524 1151 519 1144 q 535 1158 529 1157 q 556 1165 546 1167 q 576 1156 567 1164 q 589 1132 585 1147 q 597 1098 601 1113 q 575 1060 593 1083 q 536 1028 553 1031 q 508 1042 519 1025 z "},"İ":{"ha":556,"x_min":64,"x_max":839,"o":"m 267 -43 q 223 -24 257 -28 q 140 -22 189 -19 q 103 -20 121 -25 q 74 -5 85 -15 q 67 17 64 6 q 95 43 68 33 q 182 54 122 53 l 256 56 l 269 83 q 283 126 275 99 q 301 186 292 154 q 318 239 307 206 q 342 310 329 272 q 364 377 354 347 q 376 419 374 407 q 392 462 382 432 q 410 523 401 492 q 422 568 419 554 q 469 724 458 678 q 475 772 481 771 q 448 771 469 772 q 401 767 426 769 q 355 763 375 765 q 331 757 335 760 q 307 753 324 747 q 286 772 290 758 q 285 792 285 785 q 293 803 286 799 q 331 822 303 811 q 394 840 358 832 q 461 853 429 849 q 508 863 485 856 q 546 882 532 871 q 570 889 558 886 q 594 890 582 892 q 633 883 606 883 q 690 885 660 883 q 795 889 768 892 q 832 867 822 886 q 835 826 839 840 q 807 813 831 811 q 762 808 794 810 q 693 804 729 806 q 588 785 594 796 q 578 774 582 779 q 569 761 575 768 q 563 726 571 756 q 544 665 556 696 q 528 614 539 647 q 505 545 517 581 q 483 481 493 510 q 469 443 474 453 q 460 416 464 431 q 456 394 457 401 q 422 279 436 326 q 395 197 407 232 q 374 128 383 161 q 353 57 364 96 q 374 59 353 57 q 432 64 396 61 q 526 72 497 71 q 564 69 554 74 q 578 51 574 64 q 585 0 606 14 q 486 -12 564 -14 q 376 -17 414 -15 q 323 -24 338 -19 q 306 -37 308 -28 q 294 -49 306 -49 q 267 -43 283 -49 m 586 1025 q 570 1054 576 1035 q 565 1079 564 1074 q 576 1108 568 1086 q 603 1144 585 1129 q 612 1153 607 1147 q 622 1161 617 1160 q 655 1165 639 1172 q 685 1135 671 1157 q 692 1091 697 1108 q 661 1043 686 1074 q 623 1013 640 1015 q 586 1025 606 1010 z "},"Ị":{"ha":556,"x_min":64,"x_max":839,"o":"m 267 -43 q 223 -24 257 -28 q 140 -22 189 -19 q 103 -20 121 -25 q 74 -5 85 -15 q 67 17 64 6 q 95 43 68 33 q 182 54 122 53 l 256 56 l 269 83 q 283 126 275 99 q 301 186 292 154 q 318 239 307 206 q 342 310 329 272 q 364 377 354 347 q 376 419 374 407 q 392 462 382 432 q 410 523 401 492 q 422 568 419 554 q 469 724 458 678 q 475 772 481 771 q 448 771 469 772 q 401 767 426 769 q 355 763 375 765 q 331 757 335 760 q 307 753 324 747 q 286 772 290 758 q 285 792 285 785 q 293 803 286 799 q 331 822 303 811 q 394 840 358 832 q 461 853 429 849 q 508 863 485 856 q 546 882 532 871 q 570 889 558 886 q 594 890 582 892 q 633 883 606 883 q 690 885 660 883 q 795 889 768 892 q 832 867 822 886 q 835 826 839 840 q 807 813 831 811 q 762 808 794 810 q 693 804 729 806 q 588 785 594 796 q 578 774 582 779 q 569 761 575 768 q 563 726 571 756 q 544 665 556 696 q 528 614 539 647 q 505 545 517 581 q 483 481 493 510 q 469 443 474 453 q 460 416 464 431 q 456 394 457 401 q 422 279 436 326 q 395 197 407 232 q 374 128 383 161 q 353 57 364 96 q 374 59 353 57 q 432 64 396 61 q 526 72 497 71 q 564 69 554 74 q 578 51 574 64 q 585 0 606 14 q 486 -12 564 -14 q 376 -17 414 -15 q 323 -24 338 -19 q 306 -37 308 -28 q 294 -49 306 -49 q 267 -43 283 -49 m 204 -239 q 189 -216 194 -229 q 185 -197 183 -203 q 194 -170 188 -190 q 210 -144 201 -150 q 219 -135 214 -142 q 229 -128 224 -129 q 260 -124 246 -117 q 279 -153 274 -132 q 288 -185 292 -171 q 268 -221 283 -200 q 231 -251 247 -249 q 204 -239 215 -254 z "},"Ì":{"ha":556,"x_min":64,"x_max":839,"o":"m 267 -43 q 223 -24 257 -28 q 140 -22 189 -19 q 103 -20 121 -25 q 74 -5 85 -15 q 67 17 64 6 q 95 43 68 33 q 182 54 122 53 l 256 56 l 269 83 q 283 126 275 99 q 301 186 292 154 q 318 239 307 206 q 342 310 329 272 q 364 377 354 347 q 376 419 374 407 q 392 462 382 432 q 410 523 401 492 q 422 568 419 554 q 469 724 458 678 q 475 772 481 771 q 448 771 469 772 q 401 767 426 769 q 355 763 375 765 q 331 757 335 760 q 307 753 324 747 q 286 772 290 758 q 285 792 285 785 q 293 803 286 799 q 331 822 303 811 q 394 840 358 832 q 461 853 429 849 q 508 863 485 856 q 546 882 532 871 q 570 889 558 886 q 594 890 582 892 q 633 883 606 883 q 690 885 660 883 q 795 889 768 892 q 832 867 822 886 q 835 826 839 840 q 807 813 831 811 q 762 808 794 810 q 693 804 729 806 q 588 785 594 796 q 578 774 582 779 q 569 761 575 768 q 563 726 571 756 q 544 665 556 696 q 528 614 539 647 q 505 545 517 581 q 483 481 493 510 q 469 443 474 453 q 460 416 464 431 q 456 394 457 401 q 422 279 436 326 q 395 197 407 232 q 374 128 383 161 q 353 57 364 96 q 374 59 353 57 q 432 64 396 61 q 526 72 497 71 q 564 69 554 74 q 578 51 574 64 q 585 0 606 14 q 486 -12 564 -14 q 376 -17 414 -15 q 323 -24 338 -19 q 306 -37 308 -28 q 294 -49 306 -49 q 267 -43 283 -49 m 657 988 q 640 978 646 979 q 629 986 633 978 q 619 1010 625 994 q 586 1065 608 1033 q 550 1128 564 1097 q 547 1174 536 1158 q 578 1197 565 1189 q 606 1190 592 1206 q 628 1162 615 1185 q 655 1110 642 1139 q 676 1056 668 1081 q 685 1024 685 1032 q 677 1004 686 1018 q 657 988 668 990 z "},"Ȋ":{"ha":556,"x_min":64,"x_max":839,"o":"m 267 -43 q 223 -24 257 -28 q 140 -22 189 -19 q 103 -20 121 -25 q 74 -5 85 -15 q 67 17 64 6 q 95 43 68 33 q 182 54 122 53 l 256 56 l 269 83 q 283 126 275 99 q 301 186 292 154 q 318 239 307 206 q 342 310 329 272 q 364 377 354 347 q 376 419 374 407 q 392 462 382 432 q 410 523 401 492 q 422 568 419 554 q 469 724 458 678 q 475 772 481 771 q 448 771 469 772 q 401 767 426 769 q 355 763 375 765 q 331 757 335 760 q 307 753 324 747 q 286 772 290 758 q 285 792 285 785 q 293 803 286 799 q 331 822 303 811 q 394 840 358 832 q 461 853 429 849 q 508 863 485 856 q 546 882 532 871 q 570 889 558 886 q 594 890 582 892 q 633 883 606 883 q 690 885 660 883 q 795 889 768 892 q 832 867 822 886 q 835 826 839 840 q 807 813 831 811 q 762 808 794 810 q 693 804 729 806 q 588 785 594 796 q 578 774 582 779 q 569 761 575 768 q 563 726 571 756 q 544 665 556 696 q 528 614 539 647 q 505 545 517 581 q 483 481 493 510 q 469 443 474 453 q 460 416 464 431 q 456 394 457 401 q 422 279 436 326 q 395 197 407 232 q 374 128 383 161 q 353 57 364 96 q 374 59 353 57 q 432 64 396 61 q 526 72 497 71 q 564 69 554 74 q 578 51 574 64 q 585 0 606 14 q 486 -12 564 -14 q 376 -17 414 -15 q 323 -24 338 -19 q 306 -37 308 -28 q 294 -49 306 -49 q 267 -43 283 -49 m 682 1014 q 683 1053 686 1031 q 663 1094 681 1076 q 603 1110 644 1111 q 565 1092 585 1110 q 527 1053 544 1075 q 501 1017 510 1032 q 466 983 482 982 q 443 1001 450 983 q 439 1031 436 1018 q 458 1067 443 1043 q 497 1117 472 1092 q 553 1158 521 1142 q 624 1171 586 1174 q 699 1148 669 1168 q 742 1096 729 1128 q 746 1022 754 1064 q 721 976 740 989 q 688 974 701 964 q 682 1014 674 983 z "},"Ī":{"ha":556,"x_min":64,"x_max":839,"o":"m 267 -43 q 223 -24 257 -28 q 140 -22 189 -19 q 103 -20 121 -25 q 74 -5 85 -15 q 67 17 64 6 q 95 43 68 33 q 182 54 122 53 l 256 56 l 269 83 q 283 126 275 99 q 301 186 292 154 q 318 239 307 206 q 342 310 329 272 q 364 377 354 347 q 376 419 374 407 q 392 462 382 432 q 410 523 401 492 q 422 568 419 554 q 469 724 458 678 q 475 772 481 771 q 448 771 469 772 q 401 767 426 769 q 355 763 375 765 q 331 757 335 760 q 307 753 324 747 q 286 772 290 758 q 285 792 285 785 q 293 803 286 799 q 331 822 303 811 q 394 840 358 832 q 461 853 429 849 q 508 863 485 856 q 546 882 532 871 q 570 889 558 886 q 594 890 582 892 q 633 883 606 883 q 690 885 660 883 q 795 889 768 892 q 832 867 822 886 q 835 826 839 840 q 807 813 831 811 q 762 808 794 810 q 693 804 729 806 q 588 785 594 796 q 578 774 582 779 q 569 761 575 768 q 563 726 571 756 q 544 665 556 696 q 528 614 539 647 q 505 545 517 581 q 483 481 493 510 q 469 443 474 453 q 460 416 464 431 q 456 394 457 401 q 422 279 436 326 q 395 197 407 232 q 374 128 383 161 q 353 57 364 96 q 374 59 353 57 q 432 64 396 61 q 526 72 497 71 q 564 69 554 74 q 578 51 574 64 q 585 0 606 14 q 486 -12 564 -14 q 376 -17 414 -15 q 323 -24 338 -19 q 306 -37 308 -28 q 294 -49 306 -49 q 267 -43 283 -49 m 515 1058 q 495 1059 507 1058 q 471 1064 483 1060 q 443 1067 450 1064 q 431 1081 436 1071 q 429 1109 418 1101 q 488 1122 440 1117 q 586 1133 535 1129 q 690 1138 638 1138 q 749 1135 722 1138 q 790 1121 775 1132 q 803 1083 808 1100 q 768 1068 799 1065 q 741 1067 761 1068 q 697 1065 721 1065 q 657 1064 674 1064 q 624 1063 649 1064 q 570 1060 600 1061 q 515 1058 540 1058 z "},"Į":{"ha":556,"x_min":64,"x_max":839,"o":"m 267 -43 q 223 -24 257 -28 q 140 -22 189 -19 q 103 -20 121 -25 q 74 -5 85 -15 q 67 17 64 6 q 95 43 68 33 q 182 54 122 53 l 256 56 l 269 83 q 283 126 275 99 q 301 186 292 154 q 318 239 307 206 q 342 310 329 272 q 364 377 354 347 q 376 419 374 407 q 392 462 382 432 q 410 523 401 492 q 422 568 419 554 q 469 724 458 678 q 475 772 481 771 q 448 771 469 772 q 401 767 426 769 q 355 763 375 765 q 331 757 335 760 q 307 753 324 747 q 286 772 290 758 q 285 792 285 785 q 293 803 286 799 q 331 822 303 811 q 394 840 358 832 q 461 853 429 849 q 508 863 485 856 q 546 882 532 871 q 570 889 558 886 q 594 890 582 892 q 633 883 606 883 q 690 885 660 883 q 795 889 768 892 q 832 867 822 886 q 835 826 839 840 q 807 813 831 811 q 762 808 794 810 q 693 804 729 806 q 588 785 594 796 q 578 774 582 779 q 569 761 575 768 q 563 726 571 756 q 544 665 556 696 q 528 614 539 647 q 505 545 517 581 q 483 481 493 510 q 469 443 474 453 q 460 416 464 431 q 456 394 457 401 q 422 279 436 326 q 395 197 407 232 q 374 128 383 161 q 353 57 364 96 q 374 59 353 57 q 432 64 396 61 q 526 72 497 71 q 564 69 554 74 q 578 51 574 64 q 585 0 606 14 q 486 -12 564 -14 q 376 -17 414 -15 q 323 -24 338 -19 q 306 -37 308 -28 q 294 -49 306 -49 q 267 -43 283 -49 m 190 -283 q 143 -254 163 -275 q 117 -205 124 -233 q 124 -150 111 -176 q 169 -85 139 -118 q 236 -24 200 -53 q 303 25 272 6 l 344 -17 q 272 -70 314 -35 q 204 -136 229 -106 q 177 -181 185 -160 q 179 -217 169 -201 q 204 -225 183 -225 q 258 -206 236 -219 q 315 -175 281 -192 q 343 -169 333 -165 q 355 -185 353 -174 q 351 -210 357 -197 q 328 -229 344 -222 q 306 -239 322 -231 q 268 -256 289 -247 q 226 -273 247 -265 q 190 -283 206 -281 z "},"Ĩ":{"ha":556,"x_min":64,"x_max":839,"o":"m 267 -43 q 223 -24 257 -28 q 140 -22 189 -19 q 103 -20 121 -25 q 74 -5 85 -15 q 67 17 64 6 q 95 43 68 33 q 182 54 122 53 l 256 56 l 269 83 q 283 126 275 99 q 301 186 292 154 q 318 239 307 206 q 342 310 329 272 q 364 377 354 347 q 376 419 374 407 q 392 462 382 432 q 410 523 401 492 q 422 568 419 554 q 469 724 458 678 q 475 772 481 771 q 448 771 469 772 q 401 767 426 769 q 355 763 375 765 q 331 757 335 760 q 307 753 324 747 q 286 772 290 758 q 285 792 285 785 q 293 803 286 799 q 331 822 303 811 q 394 840 358 832 q 461 853 429 849 q 508 863 485 856 q 546 882 532 871 q 570 889 558 886 q 594 890 582 892 q 633 883 606 883 q 690 885 660 883 q 795 889 768 892 q 832 867 822 886 q 835 826 839 840 q 807 813 831 811 q 762 808 794 810 q 693 804 729 806 q 588 785 594 796 q 578 774 582 779 q 569 761 575 768 q 563 726 571 756 q 544 665 556 696 q 528 614 539 647 q 505 545 517 581 q 483 481 493 510 q 469 443 474 453 q 460 416 464 431 q 456 394 457 401 q 422 279 436 326 q 395 197 407 232 q 374 128 383 161 q 353 57 364 96 q 374 59 353 57 q 432 64 396 61 q 526 72 497 71 q 564 69 554 74 q 578 51 574 64 q 585 0 606 14 q 486 -12 564 -14 q 376 -17 414 -15 q 323 -24 338 -19 q 306 -37 308 -28 q 294 -49 306 -49 q 267 -43 283 -49 m 683 1013 q 638 1023 656 1013 q 594 1051 621 1033 q 561 1079 582 1058 q 524 1100 540 1100 q 501 1089 510 1100 q 483 1066 492 1078 q 460 1051 475 1054 q 451 1034 458 1044 q 442 1031 444 1024 q 420 1044 428 1035 q 414 1061 413 1054 q 435 1106 415 1074 q 501 1161 454 1138 q 548 1161 518 1168 q 600 1133 578 1154 q 649 1091 632 1104 q 692 1089 665 1078 q 737 1110 713 1094 q 790 1138 761 1126 q 808 1137 800 1142 q 821 1122 817 1132 q 824 1104 825 1113 q 815 1085 824 1099 q 793 1064 806 1071 q 729 1029 751 1040 q 698 1015 707 1018 q 683 1013 689 1013 z "},"J":{"ha":425,"x_min":-56,"x_max":617,"o":"m 124 -251 q 70 -260 100 -262 q 11 -244 40 -258 q -40 -206 -18 -229 q -53 -184 -50 -194 q -50 -156 -56 -174 q -32 -131 -43 -131 q 3 -157 -17 -131 q 80 -176 42 -192 q 161 -94 118 -161 q 188 -35 169 -74 q 226 49 206 4 q 263 131 246 93 q 285 186 279 169 q 285 191 285 186 q 292 201 286 196 q 299 224 293 207 q 310 263 304 240 q 326 308 315 278 q 348 372 336 339 q 368 428 360 406 q 385 491 375 457 q 403 543 396 525 q 419 588 408 554 q 444 663 431 622 q 476 763 461 717 q 501 840 492 810 q 507 874 510 869 q 483 869 507 874 q 429 860 458 865 q 383 853 406 850 q 361 863 360 857 q 361 869 361 868 q 361 869 361 869 q 350 872 357 867 q 338 885 343 876 q 332 901 332 894 q 360 922 332 913 q 431 936 388 931 q 485 944 458 940 q 531 950 513 947 q 551 950 536 954 q 581 939 565 946 q 604 924 597 932 q 615 900 613 913 q 611 865 617 888 q 591 802 606 843 q 550 690 576 761 q 496 534 519 604 q 453 418 472 464 q 438 374 449 403 q 418 315 428 344 q 403 265 408 285 q 382 208 392 239 q 367 160 372 178 q 361 135 367 149 q 349 114 356 121 q 339 90 349 114 q 315 32 329 65 q 291 -30 304 4 q 267 -82 278 -64 q 250 -113 260 -99 q 240 -133 240 -128 q 240 -137 240 -133 q 233 -142 239 -142 q 229 -145 233 -142 q 225 -156 225 -149 q 210 -178 222 -164 q 183 -207 199 -192 q 151 -234 167 -222 q 124 -251 135 -246 z "},"Ĵ":{"ha":425,"x_min":-56,"x_max":703,"o":"m 124 -251 q 70 -260 100 -262 q 11 -244 40 -258 q -40 -206 -18 -229 q -53 -184 -50 -194 q -50 -156 -56 -174 q -32 -131 -43 -131 q 3 -157 -17 -131 q 80 -176 42 -192 q 161 -94 118 -161 q 188 -35 169 -74 q 226 49 206 4 q 263 131 246 93 q 285 186 279 169 q 285 191 285 186 q 292 201 286 196 q 299 224 293 207 q 310 263 304 240 q 326 308 315 278 q 348 372 336 339 q 368 428 360 406 q 385 491 375 457 q 403 543 396 525 q 419 588 408 554 q 444 663 431 622 q 476 763 461 717 q 501 840 492 810 q 507 874 510 869 q 483 869 507 874 q 429 860 458 865 q 383 853 406 850 q 361 863 360 857 q 361 869 361 868 q 361 869 361 869 q 350 872 357 867 q 338 885 343 876 q 332 901 332 894 q 360 922 332 913 q 431 936 388 931 q 485 944 458 940 q 531 950 513 947 q 551 950 536 954 q 581 939 565 946 q 604 924 597 932 q 615 900 613 913 q 611 865 617 888 q 591 802 606 843 q 550 690 576 761 q 496 534 519 604 q 453 418 472 464 q 438 374 449 403 q 418 315 428 344 q 403 265 408 285 q 382 208 392 239 q 367 160 372 178 q 361 135 367 149 q 349 114 356 121 q 339 90 349 114 q 315 32 329 65 q 291 -30 304 4 q 267 -82 278 -64 q 250 -113 260 -99 q 240 -133 240 -128 q 240 -137 240 -133 q 233 -142 239 -142 q 229 -145 233 -142 q 225 -156 225 -149 q 210 -178 222 -164 q 183 -207 199 -192 q 151 -234 167 -222 q 124 -251 135 -246 m 461 1014 q 421 994 438 990 q 400 1015 404 997 q 411 1051 396 1032 q 431 1071 415 1057 q 466 1103 446 1085 q 507 1136 486 1121 q 542 1160 528 1151 q 565 1170 554 1171 q 585 1157 576 1169 q 626 1119 601 1143 q 671 1074 650 1094 q 694 1049 692 1053 q 702 1023 703 1038 q 692 999 701 1008 q 669 992 683 989 q 636 1018 656 996 q 604 1052 626 1031 q 561 1092 582 1074 q 524 1067 544 1082 q 488 1037 504 1051 q 461 1014 471 1022 z "},"K":{"ha":692,"x_min":113,"x_max":944,"o":"m 133 -51 q 114 -30 115 -40 q 121 10 113 -19 q 123 43 119 28 q 128 64 126 58 q 136 72 135 64 q 138 86 138 81 q 147 124 138 97 q 163 178 156 150 q 184 230 174 206 q 194 260 194 254 q 200 283 194 271 q 213 306 206 294 q 223 342 219 322 q 226 374 226 363 q 244 413 235 392 q 260 456 254 433 q 284 524 268 479 q 318 617 300 569 q 343 672 331 643 q 365 722 356 701 q 379 743 375 743 q 379 748 379 743 q 379 758 379 753 q 390 785 379 765 q 411 828 401 806 q 431 867 425 849 q 436 886 436 886 q 441 894 436 886 q 451 908 446 903 q 485 918 469 921 q 513 892 501 915 q 522 855 524 869 q 510 824 521 840 q 481 760 499 799 q 442 678 463 722 q 405 595 422 635 q 377 527 388 556 q 367 492 367 499 l 310 351 q 305 338 310 349 q 292 304 300 326 q 274 246 285 282 q 247 158 263 210 q 204 20 219 69 q 180 -48 189 -29 q 161 -67 171 -67 q 149 -62 156 -67 q 133 -51 143 -57 m 624 -62 q 590 -51 611 -64 q 544 -18 568 -37 q 498 22 519 1 q 464 58 476 43 q 408 142 442 90 q 358 254 375 194 q 339 324 349 299 q 326 367 329 350 l 328 464 l 399 442 q 420 317 406 367 q 456 231 435 268 q 493 159 472 194 q 538 100 514 124 q 594 49 569 65 q 632 32 619 32 q 652 22 639 31 q 677 5 665 14 q 690 -12 689 -4 q 692 -26 692 -17 q 690 -42 692 -35 q 685 -54 688 -50 q 670 -72 681 -64 q 624 -62 660 -79 m 313 453 l 414 526 q 444 554 418 531 q 529 622 469 578 l 700 761 q 772 807 735 779 q 828 847 808 835 q 869 876 851 864 q 893 888 888 889 q 916 884 904 893 q 935 860 928 875 q 942 835 943 846 q 936 811 944 821 q 896 783 928 801 q 849 758 869 771 q 825 738 829 746 q 799 717 825 738 q 733 669 774 697 q 638 601 678 633 q 588 553 599 569 q 577 549 582 553 q 567 546 572 544 q 556 539 567 546 q 540 525 546 532 q 528 506 538 518 q 506 494 519 493 q 471 472 496 489 q 419 433 446 454 q 372 396 392 413 q 351 376 353 379 l 313 453 z "},"Ķ":{"ha":686,"x_min":113,"x_max":944,"o":"m 133 -51 q 114 -30 115 -40 q 121 10 113 -19 q 123 43 119 28 q 128 64 126 58 q 136 72 135 64 q 138 86 138 81 q 147 124 138 97 q 163 178 156 150 q 184 230 174 206 q 194 260 194 254 q 200 283 194 271 q 213 306 206 294 q 223 342 219 322 q 226 374 226 363 q 244 413 235 392 q 260 456 254 433 q 284 524 268 479 q 318 617 300 569 q 343 672 331 643 q 365 722 356 701 q 379 743 375 743 q 379 748 379 743 q 379 758 379 753 q 390 785 379 765 q 411 828 401 806 q 431 867 425 849 q 436 886 436 886 q 441 894 436 886 q 451 908 446 903 q 485 918 469 921 q 513 892 501 915 q 522 855 524 869 q 510 824 521 840 q 481 760 499 799 q 442 678 463 722 q 405 595 422 635 q 377 527 388 556 q 367 492 367 499 l 310 351 q 305 338 310 349 q 292 304 300 326 q 274 246 285 282 q 247 158 263 210 q 204 20 219 69 q 180 -48 189 -29 q 161 -67 171 -67 q 149 -62 156 -67 q 133 -51 143 -57 m 624 -62 q 590 -51 611 -64 q 544 -18 568 -37 q 498 22 519 1 q 464 58 476 43 q 408 142 442 90 q 358 254 375 194 q 339 324 349 299 q 326 367 329 350 l 328 464 l 399 442 q 420 317 406 367 q 456 231 435 268 q 493 159 472 194 q 538 100 514 124 q 594 49 569 65 q 632 32 619 32 q 652 22 639 31 q 677 5 665 14 q 690 -12 689 -4 q 692 -26 692 -17 q 690 -42 692 -35 q 685 -54 688 -50 q 670 -72 681 -64 q 624 -62 660 -79 m 313 453 l 414 526 q 444 554 418 531 q 529 622 469 578 l 700 761 q 772 807 735 779 q 828 847 808 835 q 869 876 851 864 q 893 888 888 889 q 916 884 904 893 q 935 860 928 875 q 942 835 943 846 q 936 811 944 821 q 896 783 928 801 q 849 758 869 771 q 825 738 829 746 q 799 717 825 738 q 733 669 774 697 q 638 601 678 633 q 588 553 599 569 q 577 549 582 553 q 567 546 572 544 q 556 539 567 546 q 540 525 546 532 q 528 506 538 518 q 506 494 519 493 q 471 472 496 489 q 419 433 446 454 q 372 396 392 413 q 351 376 353 379 l 313 453 m 225 -254 q 208 -253 211 -254 q 199 -244 204 -251 q 218 -218 199 -235 q 261 -168 238 -197 q 283 -117 285 -139 q 302 -62 282 -78 q 353 -69 322 -46 q 353 -118 358 -99 q 332 -172 347 -137 q 317 -194 329 -178 q 292 -226 304 -211 q 275 -242 279 -242 q 269 -242 272 -242 q 263 -244 265 -243 q 256 -249 260 -246 q 249 -253 253 -251 q 240 -254 246 -254 q 225 -254 235 -254 z "},"L":{"ha":592,"x_min":140,"x_max":625,"o":"m 301 -53 q 202 3 246 -39 q 146 89 158 44 q 142 136 144 107 q 141 190 140 165 q 144 219 142 215 q 149 236 149 222 q 151 255 147 242 q 158 282 154 268 q 165 309 165 299 q 164 325 165 319 q 168 334 164 325 q 178 349 172 343 q 185 365 186 357 q 185 374 185 374 q 188 389 183 379 q 196 404 192 399 q 203 416 199 407 q 208 425 208 425 q 215 447 208 429 q 229 487 221 465 q 245 526 238 508 q 257 550 253 544 l 257 553 q 272 582 263 567 q 279 605 274 589 q 292 636 285 621 q 330 712 307 669 q 379 797 353 754 q 430 873 406 839 q 472 924 454 907 q 510 951 496 950 q 544 932 524 953 q 558 908 554 922 q 562 884 563 894 q 556 872 561 874 q 526 841 546 867 q 483 781 507 815 q 435 709 458 746 q 396 643 413 672 q 363 573 378 603 q 347 543 347 543 q 344 536 346 539 q 342 531 343 533 q 307 452 321 488 q 279 378 293 417 q 269 358 271 368 q 268 349 268 349 q 264 342 265 350 q 258 325 263 335 q 250 308 251 319 q 249 285 249 296 q 231 224 239 260 q 219 156 222 189 q 217 106 215 124 q 241 63 219 82 q 293 32 263 44 q 319 23 308 26 q 340 19 331 19 q 369 20 351 18 q 417 28 386 22 l 415 28 q 453 35 433 31 q 492 44 474 40 q 524 51 508 47 q 547 57 539 54 q 592 69 578 65 q 613 67 606 72 q 622 53 619 61 q 621 33 625 46 q 599 13 618 26 q 552 -12 579 0 q 499 -33 525 -25 q 433 -53 471 -46 q 359 -60 394 -60 q 301 -53 324 -60 z "},"Ĺ":{"ha":592,"x_min":140,"x_max":796,"o":"m 301 -53 q 202 3 246 -39 q 146 89 158 44 q 142 136 144 107 q 141 190 140 165 q 144 219 142 215 q 149 236 149 222 q 151 255 147 242 q 158 282 154 268 q 165 309 165 299 q 164 325 165 319 q 168 334 164 325 q 178 349 172 343 q 185 365 186 357 q 185 374 185 374 q 188 389 183 379 q 196 404 192 399 q 203 416 199 407 q 208 425 208 425 q 215 447 208 429 q 229 487 221 465 q 245 526 238 508 q 257 550 253 544 l 257 553 q 272 582 263 567 q 279 605 274 589 q 292 636 285 621 q 330 712 307 669 q 379 797 353 754 q 430 873 406 839 q 472 924 454 907 q 510 951 496 950 q 544 932 524 953 q 558 908 554 922 q 562 884 563 894 q 556 872 561 874 q 526 841 546 867 q 483 781 507 815 q 435 709 458 746 q 396 643 413 672 q 363 573 378 603 q 347 543 347 543 q 344 536 346 539 q 342 531 343 533 q 307 452 321 488 q 279 378 293 417 q 269 358 271 368 q 268 349 268 349 q 264 342 265 350 q 258 325 263 335 q 250 308 251 319 q 249 285 249 296 q 231 224 239 260 q 219 156 222 189 q 217 106 215 124 q 241 63 219 82 q 293 32 263 44 q 319 23 308 26 q 340 19 331 19 q 369 20 351 18 q 417 28 386 22 l 415 28 q 453 35 433 31 q 492 44 474 40 q 524 51 508 47 q 547 57 539 54 q 592 69 578 65 q 613 67 606 72 q 622 53 619 61 q 621 33 625 46 q 599 13 618 26 q 552 -12 579 0 q 499 -33 525 -25 q 433 -53 471 -46 q 359 -60 394 -60 q 301 -53 324 -60 m 617 992 q 602 1021 607 1001 q 599 1046 597 1040 q 617 1074 600 1053 q 658 1119 635 1094 q 703 1164 682 1144 q 735 1188 725 1183 q 764 1184 750 1197 q 792 1149 778 1171 q 781 1119 796 1136 q 743 1082 767 1101 q 697 1044 719 1063 q 663 1010 674 1025 q 641 983 649 988 q 617 992 633 979 z "},"Ľ":{"ha":592,"x_min":140,"x_max":811,"o":"m 301 -53 q 202 3 246 -39 q 146 89 158 44 q 142 136 144 107 q 141 190 140 165 q 144 219 142 215 q 149 236 149 222 q 151 255 147 242 q 158 282 154 268 q 165 309 165 299 q 164 325 165 319 q 168 334 164 325 q 178 349 172 343 q 185 365 186 357 q 185 374 185 374 q 188 389 183 379 q 196 404 192 399 q 203 416 199 407 q 208 425 208 425 q 215 447 208 429 q 229 487 221 465 q 245 526 238 508 q 257 550 253 544 l 257 553 q 272 582 263 567 q 279 605 274 589 q 292 636 285 621 q 330 712 307 669 q 379 797 353 754 q 430 873 406 839 q 472 924 454 907 q 510 951 496 950 q 544 932 524 953 q 558 908 554 922 q 562 884 563 894 q 556 872 561 874 q 526 841 546 867 q 483 781 507 815 q 435 709 458 746 q 396 643 413 672 q 363 573 378 603 q 347 543 347 543 q 344 536 346 539 q 342 531 343 533 q 307 452 321 488 q 279 378 293 417 q 269 358 271 368 q 268 349 268 349 q 264 342 265 350 q 258 325 263 335 q 250 308 251 319 q 249 285 249 296 q 231 224 239 260 q 219 156 222 189 q 217 106 215 124 q 241 63 219 82 q 293 32 263 44 q 319 23 308 26 q 340 19 331 19 q 369 20 351 18 q 417 28 386 22 l 415 28 q 453 35 433 31 q 492 44 474 40 q 524 51 508 47 q 547 57 539 54 q 592 69 578 65 q 613 67 606 72 q 622 53 619 61 q 621 33 625 46 q 599 13 618 26 q 552 -12 579 0 q 499 -33 525 -25 q 433 -53 471 -46 q 359 -60 394 -60 q 301 -53 324 -60 m 661 722 q 644 724 647 722 q 635 736 640 726 q 640 752 635 746 q 654 767 644 758 q 685 801 668 781 q 716 842 703 821 q 728 876 729 863 q 738 926 726 907 q 767 949 749 946 q 806 932 785 953 q 806 879 811 903 q 785 821 800 856 q 767 792 782 811 q 738 758 753 774 q 719 742 724 742 q 710 738 714 742 q 700 729 706 735 q 685 723 694 724 q 661 722 676 722 z "},"Ļ":{"ha":592,"x_min":140,"x_max":625,"o":"m 301 -53 q 202 3 246 -39 q 146 89 158 44 q 142 136 144 107 q 141 190 140 165 q 144 219 142 215 q 149 236 149 222 q 151 255 147 242 q 158 282 154 268 q 165 309 165 299 q 164 325 165 319 q 168 334 164 325 q 178 349 172 343 q 185 365 186 357 q 185 374 185 374 q 188 389 183 379 q 196 404 192 399 q 203 416 199 407 q 208 425 208 425 q 215 447 208 429 q 229 487 221 465 q 245 526 238 508 q 257 550 253 544 l 257 553 q 272 582 263 567 q 279 605 274 589 q 292 636 285 621 q 330 712 307 669 q 379 797 353 754 q 430 873 406 839 q 472 924 454 907 q 510 951 496 950 q 544 932 524 953 q 558 908 554 922 q 562 884 563 894 q 556 872 561 874 q 526 841 546 867 q 483 781 507 815 q 435 709 458 746 q 396 643 413 672 q 363 573 378 603 q 347 543 347 543 q 344 536 346 539 q 342 531 343 533 q 307 452 321 488 q 279 378 293 417 q 269 358 271 368 q 268 349 268 349 q 264 342 265 350 q 258 325 263 335 q 250 308 251 319 q 249 285 249 296 q 231 224 239 260 q 219 156 222 189 q 217 106 215 124 q 241 63 219 82 q 293 32 263 44 q 319 23 308 26 q 340 19 331 19 q 369 20 351 18 q 417 28 386 22 l 415 28 q 453 35 433 31 q 492 44 474 40 q 524 51 508 47 q 547 57 539 54 q 592 69 578 65 q 613 67 606 72 q 622 53 619 61 q 621 33 625 46 q 599 13 618 26 q 552 -12 579 0 q 499 -33 525 -25 q 433 -53 471 -46 q 359 -60 394 -60 q 301 -53 324 -60 m 182 -317 q 165 -315 168 -317 q 156 -307 161 -314 q 175 -281 156 -297 q 218 -231 194 -260 q 240 -179 242 -201 q 259 -124 239 -140 q 310 -132 279 -108 q 310 -181 315 -161 q 289 -235 304 -200 q 274 -257 286 -240 q 249 -289 261 -274 q 232 -304 236 -304 q 226 -305 229 -304 q 219 -307 222 -306 q 213 -311 217 -308 q 206 -315 210 -314 q 197 -317 203 -317 q 182 -317 192 -317 z "},"Ŀ":{"ha":592,"x_min":140,"x_max":664,"o":"m 301 -53 q 202 3 246 -39 q 146 89 158 44 q 142 136 144 107 q 141 190 140 165 q 144 219 142 215 q 149 236 149 222 q 151 255 147 242 q 158 282 154 268 q 165 309 165 299 q 164 325 165 319 q 168 334 164 325 q 178 349 172 343 q 185 365 186 357 q 185 374 185 374 q 188 389 183 379 q 196 404 192 399 q 203 416 199 407 q 208 425 208 425 q 215 447 208 429 q 229 487 221 465 q 245 526 238 508 q 257 550 253 544 l 257 553 q 272 582 263 567 q 279 605 274 589 q 292 636 285 621 q 330 712 307 669 q 379 797 353 754 q 430 873 406 839 q 472 924 454 907 q 510 951 496 950 q 544 932 524 953 q 558 908 554 922 q 562 884 563 894 q 556 872 561 874 q 526 841 546 867 q 483 781 507 815 q 435 709 458 746 q 396 643 413 672 q 363 573 378 603 q 347 543 347 543 q 344 536 346 539 q 342 531 343 533 q 307 452 321 488 q 279 378 293 417 q 269 358 271 368 q 268 349 268 349 q 264 342 265 350 q 258 325 263 335 q 250 308 251 319 q 249 285 249 296 q 231 224 239 260 q 219 156 222 189 q 217 106 215 124 q 241 63 219 82 q 293 32 263 44 q 319 23 308 26 q 340 19 331 19 q 369 20 351 18 q 417 28 386 22 l 415 28 q 453 35 433 31 q 492 44 474 40 q 524 51 508 47 q 547 57 539 54 q 592 69 578 65 q 613 67 606 72 q 622 53 619 61 q 621 33 625 46 q 599 13 618 26 q 552 -12 579 0 q 499 -33 525 -25 q 433 -53 471 -46 q 359 -60 394 -60 q 301 -53 324 -60 m 553 344 q 540 365 546 351 q 533 390 535 378 q 536 401 532 401 q 553 413 543 403 q 569 438 563 424 q 575 464 576 453 q 589 481 575 478 q 622 484 606 492 q 651 454 638 476 q 658 410 664 428 q 628 363 653 393 q 590 332 607 335 q 553 344 572 329 z "},"Ł":{"ha":592,"x_min":60,"x_max":625,"o":"m 82 306 q 66 333 60 317 q 118 368 72 350 q 167 404 132 383 q 247 447 201 425 q 338 489 292 468 q 422 526 383 510 q 479 553 460 543 q 524 569 511 567 q 556 568 538 572 q 586 541 583 560 q 560 511 589 522 q 531 488 554 501 q 488 457 507 474 q 452 445 482 457 q 381 415 422 433 q 297 378 340 397 q 220 343 254 358 q 172 321 186 328 q 154 313 165 317 q 126 307 143 308 q 99 299 108 297 q 82 306 90 300 m 301 -53 q 202 3 246 -39 q 146 89 158 44 q 142 136 144 107 q 141 190 140 165 q 144 219 142 215 q 149 236 149 222 q 151 255 147 242 q 158 282 154 268 q 165 309 165 299 q 164 325 165 319 q 168 334 164 325 q 178 349 172 343 q 185 365 186 357 q 185 374 185 374 q 188 389 183 379 q 196 404 192 399 q 203 416 199 407 q 208 425 208 425 q 215 447 208 429 q 229 487 221 465 q 245 526 238 508 q 257 550 253 544 l 257 553 q 272 582 263 567 q 279 605 274 589 q 292 636 285 621 q 330 712 307 669 q 379 797 353 754 q 430 873 406 839 q 472 924 454 907 q 510 951 496 950 q 544 932 524 953 q 558 908 554 922 q 562 884 563 894 q 556 872 561 874 q 526 841 546 867 q 483 781 507 815 q 435 709 458 746 q 396 643 413 672 q 363 573 378 603 q 347 543 347 543 q 344 536 346 539 q 342 531 343 533 q 307 452 321 488 q 279 378 293 417 q 269 358 271 368 q 268 349 268 349 q 264 342 265 350 q 258 325 263 335 q 250 308 251 319 q 249 285 249 296 q 231 224 239 260 q 219 156 222 189 q 217 106 215 124 q 241 63 219 82 q 293 32 263 44 q 319 23 308 26 q 340 19 331 19 q 369 20 351 18 q 417 28 386 22 l 415 28 q 453 35 433 31 q 492 44 474 40 q 524 51 508 47 q 547 57 539 54 q 592 69 578 65 q 613 67 606 72 q 622 53 619 61 q 621 33 625 46 q 599 13 618 26 q 552 -12 579 0 q 499 -33 525 -25 q 433 -53 471 -46 q 359 -60 394 -60 q 301 -53 324 -60 z "},"M":{"ha":1000,"x_min":47,"x_max":1110,"o":"m 918 -67 q 902 -72 917 -75 q 876 -51 888 -68 q 865 -3 865 -25 q 867 64 865 19 q 890 191 875 113 q 924 367 904 269 q 968 572 944 465 q 995 674 985 628 q 1011 750 1006 721 q 1017 779 1017 779 q 1009 776 1017 783 q 994 758 1001 768 q 989 743 988 749 q 979 729 989 743 q 954 692 969 715 q 921 636 940 678 q 878 558 901 594 q 831 469 856 517 q 786 389 806 421 q 761 347 774 371 q 746 317 749 324 q 726 280 740 301 q 696 238 713 258 q 679 212 688 225 q 666 190 671 199 q 661 181 661 181 q 648 156 661 176 q 616 110 635 135 q 581 67 597 85 q 503 6 532 15 q 438 31 474 -3 q 411 81 419 53 q 404 152 403 110 q 414 258 406 194 q 432 356 424 307 q 448 449 440 406 q 462 524 456 493 q 472 564 468 554 q 471 594 475 592 q 454 578 467 597 q 425 530 449 568 q 370 436 401 492 q 308 315 339 381 q 215 141 251 210 q 156 32 178 72 q 125 -28 135 -8 q 111 -54 115 -47 q 104 -64 107 -61 q 78 -53 92 -64 q 51 -29 65 -43 q 48 -10 47 -19 q 57 19 49 0 q 82 76 65 38 q 115 140 100 113 q 139 172 131 167 q 151 194 146 183 q 158 221 157 206 q 180 255 165 229 q 210 311 194 281 q 238 358 221 329 q 275 423 256 388 q 310 490 294 458 q 418 676 374 600 q 485 772 463 751 q 499 792 492 779 q 507 814 507 804 q 519 867 507 843 q 543 889 531 892 q 568 886 557 889 q 592 868 579 883 q 611 835 603 851 q 610 768 619 818 q 606 724 610 749 q 598 680 601 700 q 593 649 594 660 q 560 527 575 594 q 532 391 544 460 q 511 263 519 322 q 501 166 503 204 q 503 122 499 128 q 519 121 513 117 q 543 157 526 125 q 570 198 553 174 q 604 243 588 222 q 639 301 615 263 q 699 401 663 340 q 788 551 736 463 q 907 756 840 639 q 967 851 939 804 q 1014 911 996 897 q 1054 920 1033 929 q 1091 883 1075 911 q 1108 814 1107 856 q 1103 751 1110 794 q 1085 653 1097 708 q 1053 540 1072 599 q 1040 481 1049 517 q 1019 408 1031 446 q 997 338 1008 371 q 981 247 990 292 q 975 188 972 203 q 958 124 963 165 q 954 38 954 82 q 946 -39 949 -17 q 936 -60 943 -61 q 918 -67 918 -54 z "},"N":{"ha":832,"x_min":113,"x_max":1022,"o":"m 135 -86 q 117 -60 121 -71 q 116 -35 113 -50 q 126 6 119 -21 q 151 80 138 50 q 177 142 164 110 q 200 226 190 175 q 240 324 222 278 q 267 399 257 369 q 276 428 276 428 q 289 457 278 433 q 317 515 300 481 q 350 583 335 549 q 388 698 374 650 q 418 785 403 746 q 458 861 433 824 q 497 899 475 890 q 540 898 519 907 q 568 861 560 889 q 580 828 575 847 q 589 772 585 808 q 594 668 593 735 q 596 512 597 589 q 597 369 594 435 q 611 258 599 304 q 623 198 615 233 q 640 128 631 163 q 658 69 649 93 q 672 46 667 46 q 691 64 679 46 q 722 129 703 82 q 767 263 740 176 q 826 486 793 350 q 845 563 833 510 q 863 669 857 615 q 882 746 872 704 q 899 819 892 788 q 907 856 907 851 q 908 872 907 865 q 907 886 908 879 q 919 905 914 886 q 925 938 925 924 q 931 976 925 961 q 944 997 938 990 q 965 1008 949 1008 q 999 999 982 1007 q 1019 976 1015 990 q 1012 908 1022 961 q 981 764 1001 854 q 972 714 981 749 q 955 640 964 679 q 942 574 946 601 q 929 506 936 538 q 915 476 922 475 q 840 209 879 319 q 769 29 800 99 q 697 -63 736 -47 q 613 -22 657 -79 q 571 49 586 14 q 546 133 556 85 q 522 251 536 181 q 499 367 501 308 q 503 487 497 425 q 511 615 508 549 q 506 704 510 682 q 490 702 501 726 q 451 604 478 678 q 426 540 442 578 q 394 466 410 503 q 368 402 379 429 q 354 368 357 375 q 335 324 346 351 q 317 267 324 297 q 242 58 267 136 q 207 -50 218 -19 q 178 -102 193 -89 q 135 -86 163 -115 z "},"Ń":{"ha":786,"x_min":113,"x_max":1022,"o":"m 135 -86 q 117 -60 121 -71 q 116 -35 113 -50 q 126 6 119 -21 q 151 80 138 50 q 177 142 164 110 q 200 226 190 175 q 240 324 222 278 q 267 399 257 369 q 276 428 276 428 q 289 457 278 433 q 317 515 300 481 q 350 583 335 549 q 388 698 374 650 q 418 785 403 746 q 458 861 433 824 q 497 899 475 890 q 540 898 519 907 q 568 861 560 889 q 580 828 575 847 q 589 772 585 808 q 594 668 593 735 q 596 512 597 589 q 597 369 594 435 q 611 258 599 304 q 623 198 615 233 q 640 128 631 163 q 658 69 649 93 q 672 46 667 46 q 691 64 679 46 q 722 129 703 82 q 767 263 740 176 q 826 486 793 350 q 845 563 833 510 q 863 669 857 615 q 882 746 872 704 q 899 819 892 788 q 907 856 907 851 q 908 872 907 865 q 907 886 908 879 q 919 905 914 886 q 925 938 925 924 q 931 976 925 961 q 944 997 938 990 q 965 1008 949 1008 q 999 999 982 1007 q 1019 976 1015 990 q 1012 908 1022 961 q 981 764 1001 854 q 972 714 981 749 q 955 640 964 679 q 942 574 946 601 q 929 506 936 538 q 915 476 922 475 q 840 209 879 319 q 769 29 800 99 q 697 -63 736 -47 q 613 -22 657 -79 q 571 49 586 14 q 546 133 556 85 q 522 251 536 181 q 499 367 501 308 q 503 487 497 425 q 511 615 508 549 q 506 704 510 682 q 490 702 501 726 q 451 604 478 678 q 426 540 442 578 q 394 466 410 503 q 368 402 379 429 q 354 368 357 375 q 335 324 346 351 q 317 267 324 297 q 242 58 267 136 q 207 -50 218 -19 q 178 -102 193 -89 q 135 -86 163 -115 m 636 992 q 622 1021 626 1001 q 618 1046 617 1040 q 637 1074 619 1053 q 678 1119 654 1094 q 723 1164 701 1144 q 754 1188 744 1183 q 783 1184 769 1197 q 811 1149 797 1171 q 801 1119 815 1136 q 763 1082 786 1101 q 716 1044 739 1063 q 682 1010 693 1025 q 660 983 668 988 q 636 992 653 979 z "},"Ň":{"ha":786,"x_min":113,"x_max":1022,"o":"m 135 -86 q 117 -60 121 -71 q 116 -35 113 -50 q 126 6 119 -21 q 151 80 138 50 q 177 142 164 110 q 200 226 190 175 q 240 324 222 278 q 267 399 257 369 q 276 428 276 428 q 289 457 278 433 q 317 515 300 481 q 350 583 335 549 q 388 698 374 650 q 418 785 403 746 q 458 861 433 824 q 497 899 475 890 q 540 898 519 907 q 568 861 560 889 q 580 828 575 847 q 589 772 585 808 q 594 668 593 735 q 596 512 597 589 q 597 369 594 435 q 611 258 599 304 q 623 198 615 233 q 640 128 631 163 q 658 69 649 93 q 672 46 667 46 q 691 64 679 46 q 722 129 703 82 q 767 263 740 176 q 826 486 793 350 q 845 563 833 510 q 863 669 857 615 q 882 746 872 704 q 899 819 892 788 q 907 856 907 851 q 908 872 907 865 q 907 886 908 879 q 919 905 914 886 q 925 938 925 924 q 931 976 925 961 q 944 997 938 990 q 965 1008 949 1008 q 999 999 982 1007 q 1019 976 1015 990 q 1012 908 1022 961 q 981 764 1001 854 q 972 714 981 749 q 955 640 964 679 q 942 574 946 601 q 929 506 936 538 q 915 476 922 475 q 840 209 879 319 q 769 29 800 99 q 697 -63 736 -47 q 613 -22 657 -79 q 571 49 586 14 q 546 133 556 85 q 522 251 536 181 q 499 367 501 308 q 503 487 497 425 q 511 615 508 549 q 506 704 510 682 q 490 702 501 726 q 451 604 478 678 q 426 540 442 578 q 394 466 410 503 q 368 402 379 429 q 354 368 357 375 q 335 324 346 351 q 317 267 324 297 q 242 58 267 136 q 207 -50 218 -19 q 178 -102 193 -89 q 135 -86 163 -115 m 706 997 q 683 990 694 989 q 664 1000 672 990 q 622 1040 647 1015 q 575 1085 596 1064 q 551 1110 554 1106 q 552 1140 547 1124 q 572 1161 557 1157 q 610 1139 588 1165 q 642 1106 619 1125 q 688 1068 665 1088 q 724 1090 704 1078 q 760 1115 743 1103 q 788 1136 778 1128 q 836 1158 821 1161 q 854 1139 851 1154 q 851 1111 857 1124 q 833 1090 850 1106 q 791 1056 815 1074 q 744 1022 767 1038 q 706 997 721 1006 z "},"Ņ":{"ha":786,"x_min":113,"x_max":1022,"o":"m 135 -86 q 117 -60 121 -71 q 116 -35 113 -50 q 126 6 119 -21 q 151 80 138 50 q 177 142 164 110 q 200 226 190 175 q 240 324 222 278 q 267 399 257 369 q 276 428 276 428 q 289 457 278 433 q 317 515 300 481 q 350 583 335 549 q 388 698 374 650 q 418 785 403 746 q 458 861 433 824 q 497 899 475 890 q 540 898 519 907 q 568 861 560 889 q 580 828 575 847 q 589 772 585 808 q 594 668 593 735 q 596 512 597 589 q 597 369 594 435 q 611 258 599 304 q 623 198 615 233 q 640 128 631 163 q 658 69 649 93 q 672 46 667 46 q 691 64 679 46 q 722 129 703 82 q 767 263 740 176 q 826 486 793 350 q 845 563 833 510 q 863 669 857 615 q 882 746 872 704 q 899 819 892 788 q 907 856 907 851 q 908 872 907 865 q 907 886 908 879 q 919 905 914 886 q 925 938 925 924 q 931 976 925 961 q 944 997 938 990 q 965 1008 949 1008 q 999 999 982 1007 q 1019 976 1015 990 q 1012 908 1022 961 q 981 764 1001 854 q 972 714 981 749 q 955 640 964 679 q 942 574 946 601 q 929 506 936 538 q 915 476 922 475 q 840 209 879 319 q 769 29 800 99 q 697 -63 736 -47 q 613 -22 657 -79 q 571 49 586 14 q 546 133 556 85 q 522 251 536 181 q 499 367 501 308 q 503 487 497 425 q 511 615 508 549 q 506 704 510 682 q 490 702 501 726 q 451 604 478 678 q 426 540 442 578 q 394 466 410 503 q 368 402 379 429 q 354 368 357 375 q 335 324 346 351 q 317 267 324 297 q 242 58 267 136 q 207 -50 218 -19 q 178 -102 193 -89 q 135 -86 163 -115 m 285 -254 q 267 -253 271 -254 q 258 -244 264 -251 q 278 -218 258 -235 q 321 -168 297 -197 q 343 -117 344 -139 q 362 -62 342 -78 q 413 -69 382 -46 q 413 -118 418 -99 q 392 -172 407 -137 q 376 -194 389 -178 q 351 -226 364 -211 q 335 -242 339 -242 q 328 -242 332 -242 q 322 -244 325 -243 q 315 -249 319 -246 q 309 -253 313 -251 q 300 -254 306 -254 q 285 -254 294 -254 z "},"Ṅ":{"ha":786,"x_min":113,"x_max":1022,"o":"m 135 -86 q 117 -60 121 -71 q 116 -35 113 -50 q 126 6 119 -21 q 151 80 138 50 q 177 142 164 110 q 200 226 190 175 q 240 324 222 278 q 267 399 257 369 q 276 428 276 428 q 289 457 278 433 q 317 515 300 481 q 350 583 335 549 q 388 698 374 650 q 418 785 403 746 q 458 861 433 824 q 497 899 475 890 q 540 898 519 907 q 568 861 560 889 q 580 828 575 847 q 589 772 585 808 q 594 668 593 735 q 596 512 597 589 q 597 369 594 435 q 611 258 599 304 q 623 198 615 233 q 640 128 631 163 q 658 69 649 93 q 672 46 667 46 q 691 64 679 46 q 722 129 703 82 q 767 263 740 176 q 826 486 793 350 q 845 563 833 510 q 863 669 857 615 q 882 746 872 704 q 899 819 892 788 q 907 856 907 851 q 908 872 907 865 q 907 886 908 879 q 919 905 914 886 q 925 938 925 924 q 931 976 925 961 q 944 997 938 990 q 965 1008 949 1008 q 999 999 982 1007 q 1019 976 1015 990 q 1012 908 1022 961 q 981 764 1001 854 q 972 714 981 749 q 955 640 964 679 q 942 574 946 601 q 929 506 936 538 q 915 476 922 475 q 840 209 879 319 q 769 29 800 99 q 697 -63 736 -47 q 613 -22 657 -79 q 571 49 586 14 q 546 133 556 85 q 522 251 536 181 q 499 367 501 308 q 503 487 497 425 q 511 615 508 549 q 506 704 510 682 q 490 702 501 726 q 451 604 478 678 q 426 540 442 578 q 394 466 410 503 q 368 402 379 429 q 354 368 357 375 q 335 324 346 351 q 317 267 324 297 q 242 58 267 136 q 207 -50 218 -19 q 178 -102 193 -89 q 135 -86 163 -115 m 661 1025 q 645 1054 651 1035 q 640 1079 639 1074 q 651 1108 643 1086 q 678 1144 660 1129 q 687 1153 682 1147 q 697 1161 692 1160 q 730 1165 714 1172 q 760 1135 746 1157 q 767 1091 772 1108 q 736 1043 761 1074 q 698 1013 715 1015 q 661 1025 681 1010 z "},"Ŋ":{"ha":786,"x_min":133,"x_max":960,"o":"m 496 -217 q 445 -239 475 -235 q 387 -233 415 -243 q 338 -197 358 -222 q 335 -165 331 -178 q 353 -151 340 -153 q 383 -158 367 -149 q 431 -160 399 -162 q 481 -132 463 -158 q 510 -84 493 -118 q 547 -10 528 -50 q 582 63 567 31 q 535 120 558 82 q 501 213 513 158 q 491 275 496 243 q 483 353 486 307 q 476 472 479 400 q 470 617 471 558 q 468 681 469 675 q 454 651 467 681 q 424 576 442 622 q 385 474 406 529 q 344 367 364 419 q 310 274 325 314 q 290 215 296 233 q 243 86 260 135 q 224 22 226 38 q 220 -1 225 11 q 208 -22 215 -14 q 192 -32 200 -31 q 166 -24 179 -33 q 144 -1 153 -14 q 133 19 135 13 q 155 105 138 47 q 198 239 172 163 q 255 400 224 315 q 318 565 286 485 q 370 690 347 632 q 407 786 393 749 q 421 826 421 824 q 435 834 428 828 q 449 842 443 840 q 460 849 456 843 q 467 857 464 854 q 470 870 465 864 q 483 876 475 876 q 513 869 501 879 q 538 836 524 858 q 549 811 544 824 q 555 772 553 799 q 559 690 557 744 q 563 542 561 636 q 569 417 565 476 q 575 317 572 357 q 578 274 578 278 q 581 248 575 269 q 588 214 588 226 q 597 191 596 200 q 601 182 597 182 q 612 194 601 182 q 632 221 622 206 q 653 251 646 233 q 660 268 660 268 q 679 299 667 274 q 706 351 692 324 q 726 394 719 379 q 740 433 731 417 q 756 464 750 450 q 767 490 757 467 q 788 544 776 514 q 808 601 800 575 q 817 633 817 626 q 828 657 824 640 q 840 688 832 674 q 846 723 839 700 q 860 767 853 746 q 884 851 875 826 q 903 875 893 875 q 921 865 910 875 q 950 839 932 856 q 959 815 958 821 q 957 789 960 808 l 910 653 q 882 566 900 617 q 845 465 864 515 q 810 377 826 415 q 788 328 794 339 l 760 272 q 748 238 756 254 q 740 222 740 222 q 733 212 740 222 q 717 189 725 201 q 701 163 713 176 q 699 145 700 154 q 694 128 697 136 q 679 96 689 118 q 661 53 669 74 q 649 28 653 33 q 643 17 647 22 q 639 8 639 13 q 626 -27 639 4 q 590 -99 614 -58 q 565 -140 583 -115 q 528 -185 547 -164 q 496 -217 508 -207 z "},"Ñ":{"ha":786,"x_min":113,"x_max":1022,"o":"m 135 -86 q 117 -60 121 -71 q 116 -35 113 -50 q 126 6 119 -21 q 151 80 138 50 q 177 142 164 110 q 200 226 190 175 q 240 324 222 278 q 267 399 257 369 q 276 428 276 428 q 289 457 278 433 q 317 515 300 481 q 350 583 335 549 q 388 698 374 650 q 418 785 403 746 q 458 861 433 824 q 497 899 475 890 q 540 898 519 907 q 568 861 560 889 q 580 828 575 847 q 589 772 585 808 q 594 668 593 735 q 596 512 597 589 q 597 369 594 435 q 611 258 599 304 q 623 198 615 233 q 640 128 631 163 q 658 69 649 93 q 672 46 667 46 q 691 64 679 46 q 722 129 703 82 q 767 263 740 176 q 826 486 793 350 q 845 563 833 510 q 863 669 857 615 q 882 746 872 704 q 899 819 892 788 q 907 856 907 851 q 908 872 907 865 q 907 886 908 879 q 919 905 914 886 q 925 938 925 924 q 931 976 925 961 q 944 997 938 990 q 965 1008 949 1008 q 999 999 982 1007 q 1019 976 1015 990 q 1012 908 1022 961 q 981 764 1001 854 q 972 714 981 749 q 955 640 964 679 q 942 574 946 601 q 929 506 936 538 q 915 476 922 475 q 840 209 879 319 q 769 29 800 99 q 697 -63 736 -47 q 613 -22 657 -79 q 571 49 586 14 q 546 133 556 85 q 522 251 536 181 q 499 367 501 308 q 503 487 497 425 q 511 615 508 549 q 506 704 510 682 q 490 702 501 726 q 451 604 478 678 q 426 540 442 578 q 394 466 410 503 q 368 402 379 429 q 354 368 357 375 q 335 324 346 351 q 317 267 324 297 q 242 58 267 136 q 207 -50 218 -19 q 178 -102 193 -89 q 135 -86 163 -115 m 758 1013 q 713 1023 731 1013 q 669 1051 696 1033 q 636 1079 657 1058 q 599 1100 615 1100 q 576 1089 585 1100 q 558 1066 567 1078 q 535 1051 550 1054 q 526 1034 533 1044 q 517 1031 519 1024 q 495 1044 503 1035 q 489 1061 488 1054 q 510 1106 490 1074 q 576 1161 529 1138 q 623 1161 593 1168 q 675 1133 653 1154 q 724 1091 707 1104 q 767 1089 740 1078 q 812 1110 788 1094 q 865 1138 836 1126 q 883 1137 875 1142 q 896 1122 892 1132 q 899 1104 900 1113 q 890 1085 899 1099 q 868 1064 881 1071 q 804 1029 826 1040 q 773 1015 782 1018 q 758 1013 764 1013 z "},"O":{"ha":689,"x_min":158,"x_max":818,"o":"m 243 -28 q 178 33 192 11 q 161 85 164 54 q 162 153 158 110 q 171 238 165 196 q 181 300 176 279 q 187 319 188 307 q 186 331 186 331 q 196 367 185 338 q 217 444 207 397 q 270 584 244 528 q 321 681 296 640 q 371 754 346 721 q 463 842 428 813 q 540 892 497 872 q 592 918 568 908 q 631 921 615 928 q 747 858 708 904 q 804 714 786 811 q 816 603 814 653 q 808 506 818 554 q 773 401 799 458 q 701 268 747 344 q 592 101 653 172 q 469 -10 532 31 q 347 -57 406 -51 q 243 -28 288 -62 m 332 13 q 393 32 364 17 q 454 77 422 47 q 526 153 486 107 q 585 223 563 194 q 624 281 608 251 q 655 351 640 310 q 689 460 669 393 q 706 529 700 501 q 713 581 711 557 q 713 638 714 606 q 713 719 713 669 q 703 769 711 743 q 683 807 694 794 q 644 828 669 822 q 589 821 619 835 q 546 790 572 814 q 490 733 519 765 q 435 668 461 701 q 394 609 410 635 q 378 574 378 583 q 377 567 378 574 q 371 553 376 560 q 331 483 353 533 q 290 370 310 433 q 258 245 271 307 q 242 138 244 183 q 239 86 239 100 q 244 65 239 72 q 263 36 250 57 q 291 15 271 22 q 332 13 311 8 z "},"Ó":{"ha":689,"x_min":158,"x_max":843,"o":"m 243 -28 q 178 33 192 11 q 161 85 164 54 q 162 153 158 110 q 171 238 165 196 q 181 300 176 279 q 187 319 188 307 q 186 331 186 331 q 196 367 185 338 q 217 444 207 397 q 270 584 244 528 q 321 681 296 640 q 371 754 346 721 q 463 842 428 813 q 540 892 497 872 q 592 918 568 908 q 631 921 615 928 q 747 858 708 904 q 804 714 786 811 q 816 603 814 653 q 808 506 818 554 q 773 401 799 458 q 701 268 747 344 q 592 101 653 172 q 469 -10 532 31 q 347 -57 406 -51 q 243 -28 288 -62 m 332 13 q 393 32 364 17 q 454 77 422 47 q 526 153 486 107 q 585 223 563 194 q 624 281 608 251 q 655 351 640 310 q 689 460 669 393 q 706 529 700 501 q 713 581 711 557 q 713 638 714 606 q 713 719 713 669 q 703 769 711 743 q 683 807 694 794 q 644 828 669 822 q 589 821 619 835 q 546 790 572 814 q 490 733 519 765 q 435 668 461 701 q 394 609 410 635 q 378 574 378 583 q 377 567 378 574 q 371 553 376 560 q 331 483 353 533 q 290 370 310 433 q 258 245 271 307 q 242 138 244 183 q 239 86 239 100 q 244 65 239 72 q 263 36 250 57 q 291 15 271 22 q 332 13 311 8 m 664 992 q 649 1021 654 1001 q 646 1046 644 1040 q 665 1074 647 1053 q 706 1119 682 1094 q 751 1164 729 1144 q 782 1188 772 1183 q 811 1184 797 1197 q 839 1149 825 1171 q 828 1119 843 1136 q 790 1082 814 1101 q 744 1044 767 1063 q 710 1010 721 1025 q 688 983 696 988 q 664 992 681 979 z "},"Ŏ":{"ha":689,"x_min":158,"x_max":896,"o":"m 243 -28 q 178 33 192 11 q 161 85 164 54 q 162 153 158 110 q 171 238 165 196 q 181 300 176 279 q 187 319 188 307 q 186 331 186 331 q 196 367 185 338 q 217 444 207 397 q 270 584 244 528 q 321 681 296 640 q 371 754 346 721 q 463 842 428 813 q 540 892 497 872 q 592 918 568 908 q 631 921 615 928 q 747 858 708 904 q 804 714 786 811 q 816 603 814 653 q 808 506 818 554 q 773 401 799 458 q 701 268 747 344 q 592 101 653 172 q 469 -10 532 31 q 347 -57 406 -51 q 243 -28 288 -62 m 332 13 q 393 32 364 17 q 454 77 422 47 q 526 153 486 107 q 585 223 563 194 q 624 281 608 251 q 655 351 640 310 q 689 460 669 393 q 706 529 700 501 q 713 581 711 557 q 713 638 714 606 q 713 719 713 669 q 703 769 711 743 q 683 807 694 794 q 644 828 669 822 q 589 821 619 835 q 546 790 572 814 q 490 733 519 765 q 435 668 461 701 q 394 609 410 635 q 378 574 378 583 q 377 567 378 574 q 371 553 376 560 q 331 483 353 533 q 290 370 310 433 q 258 245 271 307 q 242 138 244 183 q 239 86 239 100 q 244 65 239 72 q 263 36 250 57 q 291 15 271 22 q 332 13 311 8 m 708 974 q 633 997 664 978 q 591 1049 603 1017 q 586 1122 579 1081 q 603 1161 590 1147 q 628 1176 615 1175 q 649 1165 642 1176 q 650 1131 657 1154 q 649 1092 646 1115 q 669 1051 651 1068 q 729 1035 688 1033 q 767 1053 747 1036 q 805 1092 788 1069 q 831 1128 822 1114 q 858 1160 846 1154 q 880 1158 871 1165 q 892 1137 889 1150 q 893 1114 896 1124 q 874 1077 889 1101 q 835 1028 860 1053 q 778 987 811 1003 q 708 974 746 971 z "},"Ô":{"ha":689,"x_min":158,"x_max":890,"o":"m 243 -28 q 178 33 192 11 q 161 85 164 54 q 162 153 158 110 q 171 238 165 196 q 181 300 176 279 q 187 319 188 307 q 186 331 186 331 q 196 367 185 338 q 217 444 207 397 q 270 584 244 528 q 321 681 296 640 q 371 754 346 721 q 463 842 428 813 q 540 892 497 872 q 592 918 568 908 q 631 921 615 928 q 747 858 708 904 q 804 714 786 811 q 816 603 814 653 q 808 506 818 554 q 773 401 799 458 q 701 268 747 344 q 592 101 653 172 q 469 -10 532 31 q 347 -57 406 -51 q 243 -28 288 -62 m 332 13 q 393 32 364 17 q 454 77 422 47 q 526 153 486 107 q 585 223 563 194 q 624 281 608 251 q 655 351 640 310 q 689 460 669 393 q 706 529 700 501 q 713 581 711 557 q 713 638 714 606 q 713 719 713 669 q 703 769 711 743 q 683 807 694 794 q 644 828 669 822 q 589 821 619 835 q 546 790 572 814 q 490 733 519 765 q 435 668 461 701 q 394 609 410 635 q 378 574 378 583 q 377 567 378 574 q 371 553 376 560 q 331 483 353 533 q 290 370 310 433 q 258 245 271 307 q 242 138 244 183 q 239 86 239 100 q 244 65 239 72 q 263 36 250 57 q 291 15 271 22 q 332 13 311 8 m 649 1014 q 608 994 625 990 q 588 1015 592 997 q 599 1051 583 1032 q 618 1071 603 1057 q 653 1103 633 1085 q 694 1136 674 1121 q 729 1160 715 1151 q 753 1170 742 1171 q 772 1157 764 1169 q 813 1119 789 1143 q 858 1074 838 1094 q 882 1049 879 1053 q 890 1023 890 1038 q 880 999 889 1008 q 857 992 871 989 q 824 1018 843 996 q 792 1052 814 1031 q 749 1092 769 1074 q 712 1067 732 1082 q 675 1037 692 1051 q 649 1014 658 1022 z "},"Ȍ":{"ha":689,"x_min":158,"x_max":818,"o":"m 243 -28 q 178 33 192 11 q 161 85 164 54 q 162 153 158 110 q 171 238 165 196 q 181 300 176 279 q 187 319 188 307 q 186 331 186 331 q 196 367 185 338 q 217 444 207 397 q 270 584 244 528 q 321 681 296 640 q 371 754 346 721 q 463 842 428 813 q 540 892 497 872 q 592 918 568 908 q 631 921 615 928 q 747 858 708 904 q 804 714 786 811 q 816 603 814 653 q 808 506 818 554 q 773 401 799 458 q 701 268 747 344 q 592 101 653 172 q 469 -10 532 31 q 347 -57 406 -51 q 243 -28 288 -62 m 332 13 q 393 32 364 17 q 454 77 422 47 q 526 153 486 107 q 585 223 563 194 q 624 281 608 251 q 655 351 640 310 q 689 460 669 393 q 706 529 700 501 q 713 581 711 557 q 713 638 714 606 q 713 719 713 669 q 703 769 711 743 q 683 807 694 794 q 644 828 669 822 q 589 821 619 835 q 546 790 572 814 q 490 733 519 765 q 435 668 461 701 q 394 609 410 635 q 378 574 378 583 q 377 567 378 574 q 371 553 376 560 q 331 483 353 533 q 290 370 310 433 q 258 245 271 307 q 242 138 244 183 q 239 86 239 100 q 244 65 239 72 q 263 36 250 57 q 291 15 271 22 q 332 13 311 8 m 597 999 q 577 997 583 992 q 563 1024 571 1001 q 540 1059 556 1039 q 508 1101 524 1079 q 483 1140 492 1122 q 479 1164 474 1157 q 508 1191 493 1183 q 533 1192 524 1199 q 557 1165 542 1186 q 588 1117 572 1143 q 614 1069 603 1090 q 625 1044 625 1049 q 622 1033 626 1042 q 612 1014 618 1024 q 597 999 606 1004 m 763 999 q 741 997 747 992 q 726 1024 735 1001 q 703 1059 719 1039 q 672 1101 688 1079 q 647 1140 656 1122 q 643 1164 638 1157 q 674 1191 660 1183 q 697 1192 688 1199 q 721 1165 706 1186 q 752 1117 736 1143 q 778 1069 768 1090 q 789 1044 789 1049 q 782 1023 790 1040 q 763 999 774 1006 z "},"Ö":{"ha":689,"x_min":158,"x_max":883,"o":"m 243 -28 q 178 33 192 11 q 161 85 164 54 q 162 153 158 110 q 171 238 165 196 q 181 300 176 279 q 187 319 188 307 q 186 331 186 331 q 196 367 185 338 q 217 444 207 397 q 270 584 244 528 q 321 681 296 640 q 371 754 346 721 q 463 842 428 813 q 540 892 497 872 q 592 918 568 908 q 631 921 615 928 q 747 858 708 904 q 804 714 786 811 q 816 603 814 653 q 808 506 818 554 q 773 401 799 458 q 701 268 747 344 q 592 101 653 172 q 469 -10 532 31 q 347 -57 406 -51 q 243 -28 288 -62 m 332 13 q 393 32 364 17 q 454 77 422 47 q 526 153 486 107 q 585 223 563 194 q 624 281 608 251 q 655 351 640 310 q 689 460 669 393 q 706 529 700 501 q 713 581 711 557 q 713 638 714 606 q 713 719 713 669 q 703 769 711 743 q 683 807 694 794 q 644 828 669 822 q 589 821 619 835 q 546 790 572 814 q 490 733 519 765 q 435 668 461 701 q 394 609 410 635 q 378 574 378 583 q 377 567 378 574 q 371 553 376 560 q 331 483 353 533 q 290 370 310 433 q 258 245 271 307 q 242 138 244 183 q 239 86 239 100 q 244 65 239 72 q 263 36 250 57 q 291 15 271 22 q 332 13 311 8 m 790 1042 q 774 1066 781 1051 q 769 1086 768 1081 q 780 1113 772 1093 q 797 1142 788 1133 q 807 1151 801 1144 q 818 1158 813 1157 q 849 1163 835 1171 q 871 1132 864 1154 q 879 1098 883 1113 q 857 1060 875 1083 q 819 1028 836 1031 q 790 1042 803 1025 m 611 1042 q 595 1066 601 1051 q 590 1086 589 1081 q 601 1113 593 1093 q 618 1142 608 1133 q 627 1151 622 1144 q 638 1158 632 1157 q 659 1165 649 1167 q 678 1156 669 1164 q 692 1132 688 1147 q 700 1098 704 1113 q 678 1060 696 1083 q 639 1028 656 1031 q 611 1042 622 1025 z "},"Ọ":{"ha":689,"x_min":158,"x_max":818,"o":"m 243 -28 q 178 33 192 11 q 161 85 164 54 q 162 153 158 110 q 171 238 165 196 q 181 300 176 279 q 187 319 188 307 q 186 331 186 331 q 196 367 185 338 q 217 444 207 397 q 270 584 244 528 q 321 681 296 640 q 371 754 346 721 q 463 842 428 813 q 540 892 497 872 q 592 918 568 908 q 631 921 615 928 q 747 858 708 904 q 804 714 786 811 q 816 603 814 653 q 808 506 818 554 q 773 401 799 458 q 701 268 747 344 q 592 101 653 172 q 469 -10 532 31 q 347 -57 406 -51 q 243 -28 288 -62 m 332 13 q 393 32 364 17 q 454 77 422 47 q 526 153 486 107 q 585 223 563 194 q 624 281 608 251 q 655 351 640 310 q 689 460 669 393 q 706 529 700 501 q 713 581 711 557 q 713 638 714 606 q 713 719 713 669 q 703 769 711 743 q 683 807 694 794 q 644 828 669 822 q 589 821 619 835 q 546 790 572 814 q 490 733 519 765 q 435 668 461 701 q 394 609 410 635 q 378 574 378 583 q 377 567 378 574 q 371 553 376 560 q 331 483 353 533 q 290 370 310 433 q 258 245 271 307 q 242 138 244 183 q 239 86 239 100 q 244 65 239 72 q 263 36 250 57 q 291 15 271 22 q 332 13 311 8 m 233 -237 q 218 -215 224 -228 q 214 -196 213 -201 q 224 -169 217 -189 q 239 -143 231 -149 q 248 -134 243 -140 q 258 -126 253 -128 q 289 -123 275 -115 q 308 -151 303 -131 q 317 -184 321 -169 q 297 -219 313 -199 q 260 -250 276 -247 q 233 -237 244 -253 z "},"Ò":{"ha":689,"x_min":158,"x_max":818,"o":"m 243 -28 q 178 33 192 11 q 161 85 164 54 q 162 153 158 110 q 171 238 165 196 q 181 300 176 279 q 187 319 188 307 q 186 331 186 331 q 196 367 185 338 q 217 444 207 397 q 270 584 244 528 q 321 681 296 640 q 371 754 346 721 q 463 842 428 813 q 540 892 497 872 q 592 918 568 908 q 631 921 615 928 q 747 858 708 904 q 804 714 786 811 q 816 603 814 653 q 808 506 818 554 q 773 401 799 458 q 701 268 747 344 q 592 101 653 172 q 469 -10 532 31 q 347 -57 406 -51 q 243 -28 288 -62 m 332 13 q 393 32 364 17 q 454 77 422 47 q 526 153 486 107 q 585 223 563 194 q 624 281 608 251 q 655 351 640 310 q 689 460 669 393 q 706 529 700 501 q 713 581 711 557 q 713 638 714 606 q 713 719 713 669 q 703 769 711 743 q 683 807 694 794 q 644 828 669 822 q 589 821 619 835 q 546 790 572 814 q 490 733 519 765 q 435 668 461 701 q 394 609 410 635 q 378 574 378 583 q 377 567 378 574 q 371 553 376 560 q 331 483 353 533 q 290 370 310 433 q 258 245 271 307 q 242 138 244 183 q 239 86 239 100 q 244 65 239 72 q 263 36 250 57 q 291 15 271 22 q 332 13 311 8 m 760 988 q 742 978 749 979 q 732 986 736 978 q 722 1010 728 994 q 689 1065 711 1033 q 653 1128 667 1097 q 650 1174 639 1158 q 681 1197 668 1189 q 708 1190 694 1206 q 731 1162 718 1185 q 758 1110 744 1139 q 779 1056 771 1081 q 788 1024 788 1032 q 780 1004 789 1018 q 760 988 771 990 z "},"Ő":{"ha":689,"x_min":158,"x_max":928,"o":"m 243 -28 q 178 33 192 11 q 161 85 164 54 q 162 153 158 110 q 171 238 165 196 q 181 300 176 279 q 187 319 188 307 q 186 331 186 331 q 196 367 185 338 q 217 444 207 397 q 270 584 244 528 q 321 681 296 640 q 371 754 346 721 q 463 842 428 813 q 540 892 497 872 q 592 918 568 908 q 631 921 615 928 q 747 858 708 904 q 804 714 786 811 q 816 603 814 653 q 808 506 818 554 q 773 401 799 458 q 701 268 747 344 q 592 101 653 172 q 469 -10 532 31 q 347 -57 406 -51 q 243 -28 288 -62 m 332 13 q 393 32 364 17 q 454 77 422 47 q 526 153 486 107 q 585 223 563 194 q 624 281 608 251 q 655 351 640 310 q 689 460 669 393 q 706 529 700 501 q 713 581 711 557 q 713 638 714 606 q 713 719 713 669 q 703 769 711 743 q 683 807 694 794 q 644 828 669 822 q 589 821 619 835 q 546 790 572 814 q 490 733 519 765 q 435 668 461 701 q 394 609 410 635 q 378 574 378 583 q 377 567 378 574 q 371 553 376 560 q 331 483 353 533 q 290 370 310 433 q 258 245 271 307 q 242 138 244 183 q 239 86 239 100 q 244 65 239 72 q 263 36 250 57 q 291 15 271 22 q 332 13 311 8 m 581 997 q 567 1026 571 1007 q 564 1049 563 1044 q 580 1071 565 1053 q 615 1111 594 1089 q 656 1151 636 1133 q 685 1174 675 1169 q 708 1168 697 1179 q 732 1135 719 1157 q 724 1112 736 1126 q 691 1079 711 1097 q 651 1044 671 1061 q 622 1015 632 1028 q 608 995 614 1001 q 596 990 601 989 q 581 997 590 992 m 774 997 q 759 1026 764 1007 q 756 1049 754 1044 q 772 1071 757 1053 q 808 1111 786 1089 q 848 1151 829 1133 q 876 1174 867 1169 q 901 1168 889 1179 q 924 1135 914 1157 q 915 1112 928 1126 q 883 1079 903 1097 q 843 1044 863 1061 q 814 1015 824 1028 q 793 991 800 994 q 774 997 786 988 z "},"Ȏ":{"ha":689,"x_min":158,"x_max":857,"o":"m 243 -28 q 178 33 192 11 q 161 85 164 54 q 162 153 158 110 q 171 238 165 196 q 181 300 176 279 q 187 319 188 307 q 186 331 186 331 q 196 367 185 338 q 217 444 207 397 q 270 584 244 528 q 321 681 296 640 q 371 754 346 721 q 463 842 428 813 q 540 892 497 872 q 592 918 568 908 q 631 921 615 928 q 747 858 708 904 q 804 714 786 811 q 816 603 814 653 q 808 506 818 554 q 773 401 799 458 q 701 268 747 344 q 592 101 653 172 q 469 -10 532 31 q 347 -57 406 -51 q 243 -28 288 -62 m 332 13 q 393 32 364 17 q 454 77 422 47 q 526 153 486 107 q 585 223 563 194 q 624 281 608 251 q 655 351 640 310 q 689 460 669 393 q 706 529 700 501 q 713 581 711 557 q 713 638 714 606 q 713 719 713 669 q 703 769 711 743 q 683 807 694 794 q 644 828 669 822 q 589 821 619 835 q 546 790 572 814 q 490 733 519 765 q 435 668 461 701 q 394 609 410 635 q 378 574 378 583 q 377 567 378 574 q 371 553 376 560 q 331 483 353 533 q 290 370 310 433 q 258 245 271 307 q 242 138 244 183 q 239 86 239 100 q 244 65 239 72 q 263 36 250 57 q 291 15 271 22 q 332 13 311 8 m 785 1014 q 786 1053 789 1031 q 765 1094 783 1076 q 706 1110 747 1111 q 667 1092 688 1110 q 630 1053 647 1075 q 604 1017 613 1032 q 569 983 585 982 q 546 1001 553 983 q 542 1031 539 1018 q 560 1067 546 1043 q 599 1117 575 1092 q 656 1158 624 1142 q 726 1171 689 1174 q 802 1148 772 1168 q 844 1096 832 1128 q 849 1022 857 1064 q 824 976 843 989 q 790 974 804 964 q 785 1014 776 983 z "},"Ō":{"ha":689,"x_min":158,"x_max":911,"o":"m 243 -28 q 178 33 192 11 q 161 85 164 54 q 162 153 158 110 q 171 238 165 196 q 181 300 176 279 q 187 319 188 307 q 186 331 186 331 q 196 367 185 338 q 217 444 207 397 q 270 584 244 528 q 321 681 296 640 q 371 754 346 721 q 463 842 428 813 q 540 892 497 872 q 592 918 568 908 q 631 921 615 928 q 747 858 708 904 q 804 714 786 811 q 816 603 814 653 q 808 506 818 554 q 773 401 799 458 q 701 268 747 344 q 592 101 653 172 q 469 -10 532 31 q 347 -57 406 -51 q 243 -28 288 -62 m 332 13 q 393 32 364 17 q 454 77 422 47 q 526 153 486 107 q 585 223 563 194 q 624 281 608 251 q 655 351 640 310 q 689 460 669 393 q 706 529 700 501 q 713 581 711 557 q 713 638 714 606 q 713 719 713 669 q 703 769 711 743 q 683 807 694 794 q 644 828 669 822 q 589 821 619 835 q 546 790 572 814 q 490 733 519 765 q 435 668 461 701 q 394 609 410 635 q 378 574 378 583 q 377 567 378 574 q 371 553 376 560 q 331 483 353 533 q 290 370 310 433 q 258 245 271 307 q 242 138 244 183 q 239 86 239 100 q 244 65 239 72 q 263 36 250 57 q 291 15 271 22 q 332 13 311 8 m 618 1058 q 598 1059 610 1058 q 574 1064 586 1060 q 546 1067 553 1064 q 533 1081 539 1071 q 532 1109 521 1101 q 590 1122 543 1117 q 689 1133 638 1129 q 793 1138 740 1138 q 851 1135 825 1138 q 893 1121 878 1132 q 906 1083 911 1100 q 871 1068 901 1065 q 844 1067 864 1068 q 800 1065 824 1065 q 760 1064 776 1064 q 727 1063 751 1064 q 673 1060 703 1061 q 618 1058 643 1058 z "},"Ǫ":{"ha":689,"x_min":150,"x_max":818,"o":"m 243 -28 q 178 33 192 11 q 161 85 164 54 q 162 153 158 110 q 171 238 165 196 q 181 300 176 279 q 187 319 188 307 q 186 331 186 331 q 196 367 185 338 q 217 444 207 397 q 270 584 244 528 q 321 681 296 640 q 371 754 346 721 q 463 842 428 813 q 540 892 497 872 q 592 918 568 908 q 631 921 615 928 q 747 858 708 904 q 804 714 786 811 q 816 603 814 653 q 808 506 818 554 q 773 401 799 458 q 701 268 747 344 q 592 101 653 172 q 469 -10 532 31 q 347 -57 406 -51 q 243 -28 288 -62 m 332 13 q 393 32 364 17 q 454 77 422 47 q 526 153 486 107 q 585 223 563 194 q 624 281 608 251 q 655 351 640 310 q 689 460 669 393 q 706 529 700 501 q 713 581 711 557 q 713 638 714 606 q 713 719 713 669 q 703 769 711 743 q 683 807 694 794 q 644 828 669 822 q 589 821 619 835 q 546 790 572 814 q 490 733 519 765 q 435 668 461 701 q 394 609 410 635 q 378 574 378 583 q 377 567 378 574 q 371 553 376 560 q 331 483 353 533 q 290 370 310 433 q 258 245 271 307 q 242 138 244 183 q 239 86 239 100 q 244 65 239 72 q 263 36 250 57 q 291 15 271 22 q 332 13 311 8 m 229 -297 q 182 -268 201 -289 q 156 -219 163 -247 q 163 -164 150 -190 q 208 -99 178 -132 q 275 -37 239 -67 q 342 11 311 -8 l 383 -31 q 310 -84 353 -49 q 243 -150 268 -119 q 216 -194 224 -174 q 218 -231 208 -215 q 243 -239 222 -239 q 297 -219 275 -233 q 354 -189 319 -206 q 382 -183 372 -179 q 394 -199 392 -187 q 390 -224 396 -211 q 367 -243 383 -236 q 344 -253 361 -244 q 307 -270 328 -261 q 265 -287 286 -279 q 229 -297 244 -294 z "},"Ø":{"ha":689,"x_min":136,"x_max":896,"o":"m 183 -99 q 146 -76 156 -97 q 145 -18 136 -54 q 181 64 154 18 q 201 92 192 79 q 213 115 210 106 q 240 157 218 124 q 294 237 263 190 q 362 334 326 283 q 428 430 397 385 q 481 505 460 475 q 506 538 503 535 q 518 544 511 536 q 528 561 525 551 q 540 584 532 572 q 556 597 549 596 q 565 612 558 604 q 572 625 571 619 q 578 635 574 631 q 585 644 583 639 q 626 691 599 658 q 686 764 654 724 q 749 843 718 804 q 799 910 779 882 q 822 944 819 938 q 851 957 829 965 q 862 960 856 960 q 874 958 868 960 q 876 952 874 958 q 888 931 879 946 q 894 905 896 917 q 886 878 893 893 q 872 847 881 860 q 844 814 864 835 q 782 749 824 793 q 743 708 761 725 q 725 685 725 690 q 714 670 722 679 q 696 646 706 661 q 671 620 688 638 q 638 583 654 603 q 608 548 621 563 q 596 531 596 533 q 591 521 593 526 q 581 513 589 515 q 573 508 576 515 q 569 500 569 500 q 558 477 569 494 q 526 436 546 460 q 484 374 511 414 q 423 283 457 333 q 354 179 389 232 q 289 79 319 126 q 238 -1 258 32 q 214 -47 218 -35 q 199 -87 204 -78 q 183 -99 194 -96 m 243 -28 q 178 33 192 11 q 161 85 164 54 q 162 153 158 110 q 171 238 165 196 q 181 300 176 279 q 187 319 188 307 q 186 331 186 331 q 196 367 185 338 q 217 444 207 397 q 270 584 244 528 q 321 681 296 640 q 371 754 346 721 q 463 842 428 813 q 540 892 497 872 q 592 918 568 908 q 631 921 615 928 q 747 858 708 904 q 804 714 786 811 q 816 603 814 653 q 808 506 818 554 q 773 401 799 458 q 701 268 747 344 q 592 101 653 172 q 469 -10 532 31 q 347 -57 406 -51 q 243 -28 288 -62 m 332 13 q 393 32 364 17 q 454 77 422 47 q 526 153 486 107 q 585 223 563 194 q 624 281 608 251 q 655 351 640 310 q 689 460 669 393 q 706 529 700 501 q 713 581 711 557 q 713 638 714 606 q 713 719 713 669 q 703 769 711 743 q 683 807 694 794 q 644 828 669 822 q 589 821 619 835 q 546 790 572 814 q 490 733 519 765 q 435 668 461 701 q 394 609 410 635 q 378 574 378 583 q 377 567 378 574 q 371 553 376 560 q 331 483 353 533 q 290 370 310 433 q 258 245 271 307 q 242 138 244 183 q 239 86 239 100 q 244 65 239 72 q 263 36 250 57 q 291 15 271 22 q 332 13 311 8 z "},"Ǿ":{"ha":689,"x_min":136,"x_max":896,"o":"m 183 -99 q 146 -76 156 -97 q 145 -18 136 -54 q 181 64 154 18 q 201 92 192 79 q 213 115 210 106 q 240 157 218 124 q 294 237 263 190 q 362 334 326 283 q 428 430 397 385 q 481 505 460 475 q 506 538 503 535 q 518 544 511 536 q 528 561 525 551 q 540 584 532 572 q 556 597 549 596 q 565 612 558 604 q 572 625 571 619 q 578 635 574 631 q 585 644 583 639 q 626 691 599 658 q 686 764 654 724 q 749 843 718 804 q 799 910 779 882 q 822 944 819 938 q 851 957 829 965 q 862 960 856 960 q 874 958 868 960 q 876 952 874 958 q 888 931 879 946 q 894 905 896 917 q 886 878 893 893 q 872 847 881 860 q 844 814 864 835 q 782 749 824 793 q 743 708 761 725 q 725 685 725 690 q 714 670 722 679 q 696 646 706 661 q 671 620 688 638 q 638 583 654 603 q 608 548 621 563 q 596 531 596 533 q 591 521 593 526 q 581 513 589 515 q 573 508 576 515 q 569 500 569 500 q 558 477 569 494 q 526 436 546 460 q 484 374 511 414 q 423 283 457 333 q 354 179 389 232 q 289 79 319 126 q 238 -1 258 32 q 214 -47 218 -35 q 199 -87 204 -78 q 183 -99 194 -96 m 243 -28 q 178 33 192 11 q 161 85 164 54 q 162 153 158 110 q 171 238 165 196 q 181 300 176 279 q 187 319 188 307 q 186 331 186 331 q 196 367 185 338 q 217 444 207 397 q 270 584 244 528 q 321 681 296 640 q 371 754 346 721 q 463 842 428 813 q 540 892 497 872 q 592 918 568 908 q 631 921 615 928 q 747 858 708 904 q 804 714 786 811 q 816 603 814 653 q 808 506 818 554 q 773 401 799 458 q 701 268 747 344 q 592 101 653 172 q 469 -10 532 31 q 347 -57 406 -51 q 243 -28 288 -62 m 332 13 q 393 32 364 17 q 454 77 422 47 q 526 153 486 107 q 585 223 563 194 q 624 281 608 251 q 655 351 640 310 q 689 460 669 393 q 706 529 700 501 q 713 581 711 557 q 713 638 714 606 q 713 719 713 669 q 703 769 711 743 q 683 807 694 794 q 644 828 669 822 q 589 821 619 835 q 546 790 572 814 q 490 733 519 765 q 435 668 461 701 q 394 609 410 635 q 378 574 378 583 q 377 567 378 574 q 371 553 376 560 q 331 483 353 533 q 290 370 310 433 q 258 245 271 307 q 242 138 244 183 q 239 86 239 100 q 244 65 239 72 q 263 36 250 57 q 291 15 271 22 q 332 13 311 8 m 663 992 q 648 1021 653 1001 q 644 1046 643 1040 q 663 1074 646 1053 q 704 1119 681 1094 q 749 1164 728 1144 q 781 1188 771 1183 q 810 1184 796 1197 q 838 1149 824 1171 q 827 1119 842 1136 q 789 1082 813 1101 q 742 1044 765 1063 q 708 1010 719 1025 q 687 983 694 988 q 663 992 679 979 z "},"Õ":{"ha":689,"x_min":158,"x_max":928,"o":"m 243 -28 q 178 33 192 11 q 161 85 164 54 q 162 153 158 110 q 171 238 165 196 q 181 300 176 279 q 187 319 188 307 q 186 331 186 331 q 196 367 185 338 q 217 444 207 397 q 270 584 244 528 q 321 681 296 640 q 371 754 346 721 q 463 842 428 813 q 540 892 497 872 q 592 918 568 908 q 631 921 615 928 q 747 858 708 904 q 804 714 786 811 q 816 603 814 653 q 808 506 818 554 q 773 401 799 458 q 701 268 747 344 q 592 101 653 172 q 469 -10 532 31 q 347 -57 406 -51 q 243 -28 288 -62 m 332 13 q 393 32 364 17 q 454 77 422 47 q 526 153 486 107 q 585 223 563 194 q 624 281 608 251 q 655 351 640 310 q 689 460 669 393 q 706 529 700 501 q 713 581 711 557 q 713 638 714 606 q 713 719 713 669 q 703 769 711 743 q 683 807 694 794 q 644 828 669 822 q 589 821 619 835 q 546 790 572 814 q 490 733 519 765 q 435 668 461 701 q 394 609 410 635 q 378 574 378 583 q 377 567 378 574 q 371 553 376 560 q 331 483 353 533 q 290 370 310 433 q 258 245 271 307 q 242 138 244 183 q 239 86 239 100 q 244 65 239 72 q 263 36 250 57 q 291 15 271 22 q 332 13 311 8 m 786 1013 q 741 1023 758 1013 q 697 1051 724 1033 q 664 1079 685 1058 q 626 1100 643 1100 q 603 1089 613 1100 q 586 1066 594 1078 q 563 1051 578 1054 q 554 1034 561 1044 q 544 1031 547 1024 q 523 1044 531 1035 q 517 1061 515 1054 q 538 1106 518 1074 q 604 1161 557 1138 q 651 1161 621 1168 q 703 1133 681 1154 q 751 1091 735 1104 q 794 1089 768 1078 q 840 1110 815 1094 q 893 1138 864 1126 q 911 1137 903 1142 q 924 1122 919 1132 q 926 1104 928 1113 q 917 1085 926 1099 q 896 1064 908 1071 q 832 1029 854 1040 q 801 1015 810 1018 q 786 1013 792 1013 z "},"Œ":{"ha":1089,"x_min":121,"x_max":1258,"o":"m 765 -67 q 697 -65 729 -67 q 638 -53 665 -62 q 586 -26 610 -44 q 568 -11 576 -19 q 554 7 560 -3 q 540 0 547 4 q 525 -10 532 -4 q 485 -32 506 -22 q 443 -49 464 -42 q 403 -62 422 -57 q 364 -67 383 -67 q 265 -58 321 -79 q 169 -1 210 -36 q 150 40 163 11 q 129 96 138 68 q 126 132 121 124 q 127 169 128 153 q 131 210 126 185 q 149 281 135 235 q 167 338 157 308 q 191 401 178 368 q 219 469 204 435 q 251 542 235 504 q 330 679 282 608 q 432 813 378 750 q 535 915 486 875 q 588 940 563 938 q 638 937 614 943 q 679 928 661 931 q 729 905 706 924 q 772 863 753 886 q 806 819 792 839 l 810 811 l 821 825 q 836 842 818 832 q 883 863 854 853 q 938 881 908 871 q 1019 894 968 890 q 1157 892 1069 899 q 1192 888 1178 892 q 1219 878 1207 883 q 1242 867 1231 872 q 1256 841 1253 857 q 1258 825 1258 825 q 1219 817 1258 818 q 1135 815 1181 815 q 1036 807 1083 815 q 974 799 989 799 q 940 792 954 793 q 925 790 925 790 q 908 769 922 790 q 876 719 893 747 q 845 666 858 690 q 832 638 832 642 q 821 607 832 624 q 794 568 810 590 q 776 535 781 550 q 785 515 772 521 q 845 524 807 519 q 922 531 883 528 q 981 535 960 535 q 1019 538 1004 542 q 1042 529 1035 533 q 1065 519 1058 526 q 1072 504 1072 511 q 1061 493 1071 497 q 1019 474 1053 485 q 942 451 986 463 q 852 431 897 440 q 775 417 807 422 q 738 413 743 411 q 727 402 732 417 q 694 331 722 388 q 657 233 671 278 q 632 122 643 188 q 627 62 622 85 q 676 18 632 39 q 751 14 704 13 q 857 31 797 15 q 903 55 882 46 q 933 69 924 64 q 955 73 940 69 q 975 76 969 76 q 987 88 981 83 q 1003 92 993 92 q 1016 81 1006 92 q 1036 58 1026 71 q 1044 42 1046 46 q 1014 14 1044 28 q 914 -28 983 0 q 858 -51 879 -43 q 817 -63 836 -60 q 765 -67 797 -67 m 640 849 q 568 826 606 857 q 478 722 531 796 q 450 683 465 701 q 419 644 435 664 q 385 596 403 624 q 310 464 340 531 q 262 337 281 397 q 231 226 243 276 q 219 133 215 160 q 215 94 222 106 q 245 26 226 51 q 301 6 264 0 q 337 8 315 4 q 379 16 358 11 q 408 22 400 21 q 444 38 428 29 q 490 50 460 46 q 508 58 490 50 q 536 69 525 67 q 539 116 536 92 q 543 150 542 140 q 551 188 546 167 q 563 232 557 210 q 576 278 568 263 q 589 296 583 293 l 597 339 q 609 386 604 374 q 622 407 614 399 q 631 426 626 414 q 636 440 635 438 q 640 459 636 440 q 664 513 643 478 q 670 529 664 524 q 678 540 676 535 q 685 553 681 546 q 692 568 689 560 l 721 619 q 726 647 721 633 q 735 676 732 661 q 731 751 740 713 q 699 817 722 789 q 640 849 676 844 z "},"P":{"ha":644,"x_min":113,"x_max":815,"o":"m 153 -67 q 125 -49 136 -67 q 115 -26 117 -40 q 124 27 113 -11 q 161 144 135 65 q 183 222 175 197 q 192 257 192 246 q 195 283 192 272 q 199 303 199 293 q 215 318 207 303 q 229 360 224 333 q 240 398 235 383 q 244 418 244 413 q 259 453 251 429 q 283 510 267 476 q 308 597 294 551 q 337 681 322 642 q 361 743 351 721 q 385 803 376 786 q 385 826 393 821 q 381 850 375 833 q 411 888 386 867 q 438 913 426 906 q 466 921 449 921 q 517 918 483 921 q 570 917 542 917 q 606 917 599 917 q 636 905 618 911 q 669 893 654 899 q 683 883 683 888 q 690 873 683 875 q 703 869 696 871 q 729 855 713 869 q 764 819 746 840 q 792 774 782 797 q 809 729 803 750 q 808 669 815 708 q 802 628 807 649 q 792 600 797 607 q 776 586 783 594 q 769 571 769 578 q 760 549 769 565 q 735 513 750 533 q 701 471 719 492 q 667 435 683 450 q 624 393 649 413 q 581 361 600 374 q 501 328 544 344 q 417 300 457 311 q 351 290 378 289 q 299 280 311 285 q 282 256 288 275 q 269 219 275 238 q 263 193 263 200 q 249 159 260 188 q 227 93 239 131 q 204 19 215 56 q 188 -40 193 -17 q 174 -63 182 -60 q 153 -67 165 -67 m 325 364 q 368 363 331 358 q 449 383 406 367 q 505 407 476 393 q 560 438 533 421 q 601 472 574 447 q 657 532 629 497 q 672 559 661 539 q 690 597 682 579 q 715 655 703 617 q 721 718 728 693 q 685 785 714 754 q 615 828 656 817 q 565 833 585 833 q 521 829 544 833 q 488 810 499 822 q 461 757 478 797 q 433 698 451 738 q 403 624 415 658 q 353 473 378 532 q 324 399 329 414 q 322 377 325 383 q 325 364 319 371 z "},"Þ":{"ha":656,"x_min":106,"x_max":774,"o":"m 163 -89 q 142 -82 156 -85 q 119 -73 129 -79 q 108 -54 110 -67 q 106 -46 107 -50 q 110 -27 106 -42 q 122 21 114 -12 q 133 56 124 25 q 154 128 142 86 q 179 211 167 171 q 201 278 192 251 q 211 300 210 304 q 220 329 213 307 q 233 357 228 351 q 241 390 235 369 q 256 428 247 410 q 274 454 265 447 q 281 482 274 463 q 297 523 288 501 q 315 560 307 544 q 325 575 324 575 q 327 583 325 575 q 343 610 329 592 q 345 624 343 610 q 358 646 347 638 q 365 674 364 667 q 361 685 367 682 q 383 722 349 721 q 403 746 392 722 q 408 753 406 751 q 443 846 426 800 q 470 924 460 892 q 481 963 481 956 q 491 979 481 974 q 513 985 501 985 q 523 990 517 989 q 535 992 529 992 l 557 969 q 570 947 568 960 q 572 918 572 935 q 568 888 572 901 q 553 849 564 874 q 518 776 542 825 q 551 782 538 779 q 564 785 564 785 q 615 782 583 785 q 664 775 646 779 q 740 715 714 751 q 771 647 767 679 q 766 598 774 631 q 747 529 758 565 q 720 465 735 493 q 693 426 706 436 q 688 411 700 428 q 656 377 675 394 q 628 357 638 360 q 618 340 628 357 q 590 313 608 322 q 555 290 574 303 q 525 260 536 276 q 518 267 525 271 q 503 256 511 264 q 489 246 494 249 q 368 197 426 208 q 347 190 361 192 q 318 189 332 189 l 271 196 l 242 117 q 221 39 232 74 q 200 -37 210 4 q 190 -76 196 -62 q 176 -92 183 -89 q 163 -89 169 -94 m 303 269 q 429 294 381 268 q 521 361 478 321 q 551 394 532 372 q 592 442 571 417 q 629 489 614 468 q 662 558 651 519 q 673 628 672 596 q 665 675 674 661 q 615 706 647 701 q 547 703 582 711 q 485 679 513 694 q 460 647 478 676 q 422 574 443 618 q 378 481 400 531 q 339 387 357 432 q 310 310 321 342 q 303 269 300 278 z "},"Q":{"ha":697,"x_min":157,"x_max":819,"o":"m 321 -99 q 275 -82 300 -94 q 229 -51 250 -69 q 199 -12 208 -32 q 160 138 164 58 q 181 332 157 218 q 199 396 188 356 q 225 476 211 436 q 250 544 239 517 q 264 572 261 572 q 268 596 268 576 q 280 626 268 603 q 310 678 292 649 q 349 734 329 707 q 388 776 369 761 q 451 838 415 813 q 521 882 486 864 q 545 894 529 888 q 581 907 561 901 q 615 914 600 913 q 719 897 685 918 q 781 822 754 876 q 811 764 808 792 q 819 696 814 736 q 812 608 819 658 q 792 508 804 557 q 764 426 779 458 q 735 393 749 393 q 731 392 735 393 q 726 385 726 392 q 721 341 729 375 q 692 267 713 307 q 587 58 647 142 q 458 -67 526 -26 q 321 -99 390 -107 m 607 -175 q 563 -159 585 -176 q 535 -124 540 -142 q 525 -108 525 -115 q 522 -97 525 -100 q 507 -83 517 -94 q 493 -56 497 -71 q 465 1 483 -36 q 425 77 446 38 q 388 147 404 117 q 369 181 372 176 q 372 208 358 192 q 388 228 379 225 q 424 224 397 231 q 482 157 456 224 q 494 124 483 150 q 519 72 506 97 q 542 39 533 46 q 557 4 549 24 q 575 -28 565 -15 q 593 -61 579 -43 q 613 -99 607 -79 q 644 -162 644 -149 q 607 -175 643 -176 m 332 -18 q 448 48 390 -11 q 558 203 506 107 q 651 418 610 300 q 682 495 664 453 q 714 589 700 538 q 728 697 728 640 q 724 788 736 758 q 678 832 711 817 q 580 826 633 849 q 475 743 526 803 q 383 586 424 683 q 293 369 326 465 q 250 197 260 274 q 254 58 240 121 q 277 -6 257 15 q 332 -18 297 -28 z "},"R":{"ha":746,"x_min":110,"x_max":889,"o":"m 194 -83 q 174 -99 189 -97 q 136 -82 160 -100 q 115 -56 119 -65 q 119 -26 110 -47 q 153 50 129 -4 q 172 117 158 83 q 193 165 186 151 q 216 230 199 185 q 256 331 233 275 q 300 435 279 386 q 331 510 321 485 q 379 626 354 565 q 447 781 404 688 q 453 810 453 794 q 431 825 454 825 q 415 856 417 840 q 429 879 414 872 l 501 908 q 635 917 567 924 q 765 879 704 911 q 860 801 832 840 q 888 721 888 761 q 874 642 889 681 q 831 578 863 613 q 759 508 800 543 q 674 445 718 474 q 593 401 631 417 q 521 372 558 385 q 443 347 483 360 q 390 342 421 342 q 344 347 360 342 l 321 282 q 273 133 307 232 q 194 -83 239 35 m 746 -99 q 720 -101 735 -103 q 674 -79 706 -100 q 551 8 613 -43 q 414 147 490 60 q 365 211 385 182 q 322 293 344 240 l 303 368 l 340 389 l 390 339 q 448 246 413 290 q 514 167 483 201 q 582 97 539 138 q 674 18 625 56 q 761 -39 722 -19 q 767 -60 769 -46 q 758 -85 764 -74 q 746 -99 751 -97 m 388 418 q 463 434 419 421 q 549 465 506 447 q 634 512 589 485 q 718 572 679 539 q 781 642 757 606 q 803 714 806 678 q 789 751 803 732 q 756 786 775 771 q 718 807 736 801 q 626 825 663 821 q 571 820 590 829 q 544 783 551 811 q 533 756 544 779 q 506 697 522 732 q 475 624 490 663 q 414 499 435 542 q 388 440 393 457 q 388 418 382 424 z "},"Ŕ":{"ha":692,"x_min":110,"x_max":889,"o":"m 194 -83 q 174 -99 189 -97 q 136 -82 160 -100 q 115 -56 119 -65 q 119 -26 110 -47 q 153 50 129 -4 q 172 117 158 83 q 193 165 186 151 q 216 230 199 185 q 256 331 233 275 q 300 435 279 386 q 331 510 321 485 q 379 626 354 565 q 447 781 404 688 q 453 810 453 794 q 431 825 454 825 q 415 856 417 840 q 429 879 414 872 l 501 908 q 635 917 567 924 q 765 879 704 911 q 860 801 832 840 q 888 721 888 761 q 874 642 889 681 q 831 578 863 613 q 759 508 800 543 q 674 445 718 474 q 593 401 631 417 q 521 372 558 385 q 443 347 483 360 q 390 342 421 342 q 344 347 360 342 l 321 282 q 273 133 307 232 q 194 -83 239 35 m 746 -99 q 720 -101 735 -103 q 674 -79 706 -100 q 551 8 613 -43 q 414 147 490 60 q 365 211 385 182 q 322 293 344 240 l 303 368 l 340 389 l 390 339 q 448 246 413 290 q 514 167 483 201 q 582 97 539 138 q 674 18 625 56 q 761 -39 722 -19 q 767 -60 769 -46 q 758 -85 764 -74 q 746 -99 751 -97 m 388 418 q 463 434 419 421 q 549 465 506 447 q 634 512 589 485 q 718 572 679 539 q 781 642 757 606 q 803 714 806 678 q 789 751 803 732 q 756 786 775 771 q 718 807 736 801 q 626 825 663 821 q 571 820 590 829 q 544 783 551 811 q 533 756 544 779 q 506 697 522 732 q 475 624 490 663 q 414 499 435 542 q 388 440 393 457 q 388 418 382 424 m 635 992 q 620 1021 625 1001 q 617 1046 615 1040 q 635 1074 618 1053 q 676 1119 653 1094 q 722 1164 700 1144 q 753 1188 743 1183 q 782 1184 768 1197 q 810 1149 796 1171 q 799 1119 814 1136 q 761 1082 785 1101 q 715 1044 738 1063 q 681 1010 692 1025 q 659 983 667 988 q 635 992 651 979 z "},"Ř":{"ha":692,"x_min":110,"x_max":889,"o":"m 194 -83 q 174 -99 189 -97 q 136 -82 160 -100 q 115 -56 119 -65 q 119 -26 110 -47 q 153 50 129 -4 q 172 117 158 83 q 193 165 186 151 q 216 230 199 185 q 256 331 233 275 q 300 435 279 386 q 331 510 321 485 q 379 626 354 565 q 447 781 404 688 q 453 810 453 794 q 431 825 454 825 q 415 856 417 840 q 429 879 414 872 l 501 908 q 635 917 567 924 q 765 879 704 911 q 860 801 832 840 q 888 721 888 761 q 874 642 889 681 q 831 578 863 613 q 759 508 800 543 q 674 445 718 474 q 593 401 631 417 q 521 372 558 385 q 443 347 483 360 q 390 342 421 342 q 344 347 360 342 l 321 282 q 273 133 307 232 q 194 -83 239 35 m 746 -99 q 720 -101 735 -103 q 674 -79 706 -100 q 551 8 613 -43 q 414 147 490 60 q 365 211 385 182 q 322 293 344 240 l 303 368 l 340 389 l 390 339 q 448 246 413 290 q 514 167 483 201 q 582 97 539 138 q 674 18 625 56 q 761 -39 722 -19 q 767 -60 769 -46 q 758 -85 764 -74 q 746 -99 751 -97 m 388 418 q 463 434 419 421 q 549 465 506 447 q 634 512 589 485 q 718 572 679 539 q 781 642 757 606 q 803 714 806 678 q 789 751 803 732 q 756 786 775 771 q 718 807 736 801 q 626 825 663 821 q 571 820 590 829 q 544 783 551 811 q 533 756 544 779 q 506 697 522 732 q 475 624 490 663 q 414 499 435 542 q 388 440 393 457 q 388 418 382 424 m 704 997 q 682 990 693 989 q 663 1000 671 990 q 620 1040 646 1015 q 574 1085 594 1064 q 550 1110 553 1106 q 551 1140 546 1124 q 571 1161 556 1157 q 608 1139 586 1165 q 641 1106 618 1125 q 686 1068 664 1088 q 722 1090 703 1078 q 759 1115 742 1103 q 786 1136 776 1128 q 835 1158 819 1161 q 853 1139 850 1154 q 850 1111 856 1124 q 831 1090 849 1106 q 790 1056 814 1074 q 742 1022 765 1038 q 704 997 719 1006 z "},"Ŗ":{"ha":692,"x_min":110,"x_max":889,"o":"m 194 -83 q 174 -99 189 -97 q 136 -82 160 -100 q 115 -56 119 -65 q 119 -26 110 -47 q 153 50 129 -4 q 172 117 158 83 q 193 165 186 151 q 216 230 199 185 q 256 331 233 275 q 300 435 279 386 q 331 510 321 485 q 379 626 354 565 q 447 781 404 688 q 453 810 453 794 q 431 825 454 825 q 415 856 417 840 q 429 879 414 872 l 501 908 q 635 917 567 924 q 765 879 704 911 q 860 801 832 840 q 888 721 888 761 q 874 642 889 681 q 831 578 863 613 q 759 508 800 543 q 674 445 718 474 q 593 401 631 417 q 521 372 558 385 q 443 347 483 360 q 390 342 421 342 q 344 347 360 342 l 321 282 q 273 133 307 232 q 194 -83 239 35 m 746 -99 q 720 -101 735 -103 q 674 -79 706 -100 q 551 8 613 -43 q 414 147 490 60 q 365 211 385 182 q 322 293 344 240 l 303 368 l 340 389 l 390 339 q 448 246 413 290 q 514 167 483 201 q 582 97 539 138 q 674 18 625 56 q 761 -39 722 -19 q 767 -60 769 -46 q 758 -85 764 -74 q 746 -99 751 -97 m 388 418 q 463 434 419 421 q 549 465 506 447 q 634 512 589 485 q 718 572 679 539 q 781 642 757 606 q 803 714 806 678 q 789 751 803 732 q 756 786 775 771 q 718 807 736 801 q 626 825 663 821 q 571 820 590 829 q 544 783 551 811 q 533 756 544 779 q 506 697 522 732 q 475 624 490 663 q 414 499 435 542 q 388 440 393 457 q 388 418 382 424 m 254 -254 q 237 -253 240 -254 q 228 -244 233 -251 q 247 -218 228 -235 q 290 -168 267 -197 q 313 -117 314 -139 q 331 -62 311 -78 q 382 -69 351 -46 q 382 -118 388 -99 q 361 -172 376 -137 q 346 -194 358 -178 q 321 -226 333 -211 q 304 -242 308 -242 q 298 -242 301 -242 q 292 -244 294 -243 q 285 -249 289 -246 q 278 -253 282 -251 q 269 -254 275 -254 q 254 -254 264 -254 z "}}}
